<svg id="Layer_1" data-name="Layer 1" xmlns="http://www.w3.org/2000/svg" viewBox="0 0 76.96 50.3"><defs><style>.cls-1{fill:#fff;}</style></defs><title>Artboard 23</title><path class="cls-1" d="M52.16.62a24.47,24.47,0,0,0-13.59,4.1A1.28,1.28,0,1,0,40,6.86a22,22,0,1,1-4.42,32.7,1.28,1.28,0,1,0-1.93,1.68A24.53,24.53,0,1,0,52.16.62Z"/><path class="cls-1" d="M38.73,37.41A1.29,1.29,0,0,0,40,38.69h1.43A21.92,21.92,0,0,0,43.9,42.8a1.25,1.25,0,0,0,1,.49,1.21,1.21,0,0,0,.78-.27,1.27,1.27,0,0,0,.23-1.79,18.71,18.71,0,0,1-1.62-2.54h6.58v5a1.28,1.28,0,0,0,2.56,0v-5H60a20,20,0,0,1-1.62,2.54A1.26,1.26,0,0,0,58.63,43a1.23,1.23,0,0,0,.79.28,1.28,1.28,0,0,0,1-.5,21.82,21.82,0,0,0,2.46-4.11h3.27a1.28,1.28,0,1,0,0-2.56H63.92a33.39,33.39,0,0,0,1.74-9.7h5.06a1.28,1.28,0,1,0,0-2.56H65.66a33.39,33.39,0,0,0-1.74-9.7h2.24a1.28,1.28,0,1,0,0-2.56H62.9a22.05,22.05,0,0,0-2.28-3.86,1.28,1.28,0,1,0-2,1.53A18,18,0,0,1,60,11.61H53.44v-5a1.28,1.28,0,1,0-2.56,0v5h-6.6a17.46,17.46,0,0,1,1.48-2.33,1.28,1.28,0,0,0-2-1.54,22.68,22.68,0,0,0-2.61,4.61,1,1,0,0,0,0,.1c-.1.22-.2.44-.29.68a1.27,1.27,0,0,0,.73,1.65,1.25,1.25,0,0,0,.46.09,1.28,1.28,0,0,0,1.13-.7h7.79v9.7H42a1.28,1.28,0,1,0,0,2.56h8.92v9.7H43.12c-.19-.51-.38-1-.55-1.55a1.28,1.28,0,1,0-2.44.76c.08.27.19.52.28.79H40A1.28,1.28,0,0,0,38.73,37.41ZM53.44,14.17h7.77a30.3,30.3,0,0,1,1.89,9.7H53.44Zm0,12.26H63.1a30.25,30.25,0,0,1-1.88,9.7H53.44Z"/><path class="cls-1" d="M17.6,27.81H11.82l2.54-2.52a18.17,18.17,0,0,0,3-3.57,6.51,6.51,0,0,0,.92-3.27,4.72,4.72,0,0,0-1.55-3.67,5.68,5.68,0,0,0-3.95-1.34,7.7,7.7,0,0,0-5,1.91,1.28,1.28,0,0,0,1.63,2A5.18,5.18,0,0,1,12.79,16a3.21,3.21,0,0,1,2.24.68,2.23,2.23,0,0,1,.7,1.77,4,4,0,0,1-.58,2,16.49,16.49,0,0,1-2.59,3c-1.17,1.15-4.67,4.64-4.67,4.64a1.46,1.46,0,0,0-.37,1A1.28,1.28,0,0,0,8.8,30.37h8.8a1.28,1.28,0,0,0,0-2.56Z"/><path class="cls-1" d="M31,24.28h-.6V14.72a1.28,1.28,0,0,0-2.28-.81l-8.8,10.84a1.29,1.29,0,0,0-.17,1.36,1.31,1.31,0,0,0,1.16.73h7.53v2.25a1.28,1.28,0,0,0,2.56,0V26.84H31a1.28,1.28,0,1,0,0-2.56Zm-3.16,0H23l4.84-6Z"/><path class="cls-1" d="M39.32,31.53V12.4a6.18,6.18,0,0,0-6.18-6.18H6.43A6.18,6.18,0,0,0,.26,12.4V31.53A6.18,6.18,0,0,0,6.43,37.7H18.59l7.86,7.86a1.94,1.94,0,0,0,3.31-1.38V37.7h3.38A6.18,6.18,0,0,0,39.32,31.53Zm-2.56,0a3.62,3.62,0,0,1-3.62,3.61h-4a1.94,1.94,0,0,0-1.94,2v5.6l-7-7a2,2,0,0,0-1.37-.57H6.43a3.61,3.61,0,0,1-3.61-3.61V12.4A3.61,3.61,0,0,1,6.43,8.79H33.14a3.62,3.62,0,0,1,3.62,3.61Z"/></svg>