<svg id="Layer_1" data-name="Layer 1" xmlns="http://www.w3.org/2000/svg" viewBox="0 0 126.23 38.04"><defs><style>.cls-1{fill:#fff;}</style></defs><title>Artboard 18</title><rect x="0.61" y="0.58" width="125" height="36.88" rx="7.56"/><path class="cls-1" d="M43.83,17.24h1.86l4.4,12.13h-1.8l-1.23-3.63h-4.8L41,29.37H39.26Zm2.7,7.16L44.69,19l-2,5.36Z"/><path class="cls-1" d="M51.33,20.57h1.45v1.17a3.71,3.71,0,0,1,1-.93,3.14,3.14,0,0,1,1.77-.5,3.33,3.33,0,0,1,2.56,1.16,4.69,4.69,0,0,1,1,3.29c0,1.92-.5,3.3-1.51,4.13a3.47,3.47,0,0,1-2.24.78,3,3,0,0,1-1.69-.44,3.58,3.58,0,0,1-.88-.85V32.9H51.33Zm5.59,6.93a4.14,4.14,0,0,0,.69-2.6,5,5,0,0,0-.3-1.82,2.13,2.13,0,0,0-2.12-1.46,2.1,2.1,0,0,0-2.12,1.54,6,6,0,0,0-.31,2.1A4.33,4.33,0,0,0,53.07,27a2.1,2.1,0,0,0,2.12,1.37A2.13,2.13,0,0,0,56.92,27.5Z"/><path class="cls-1" d="M61.15,20.57H62.6v1.17a3.71,3.71,0,0,1,1-.93,3.14,3.14,0,0,1,1.77-.5,3.33,3.33,0,0,1,2.56,1.16,4.69,4.69,0,0,1,1,3.29c0,1.92-.5,3.3-1.52,4.13a3.43,3.43,0,0,1-2.23.78,3,3,0,0,1-1.69-.44,3.58,3.58,0,0,1-.88-.85V32.9H61.15Zm5.59,6.93a4.14,4.14,0,0,0,.69-2.6,5,5,0,0,0-.3-1.82,2.26,2.26,0,0,0-4.25.08,6.23,6.23,0,0,0-.3,2.1,4.52,4.52,0,0,0,.3,1.74,2.26,2.26,0,0,0,3.86.5Z"/><path class="cls-1" d="M75.28,25.46a3.3,3.3,0,0,0,.47,1.68,3.06,3.06,0,0,0,2.77,1.2,4.93,4.93,0,0,0,1.63-.26,1.86,1.86,0,0,0,1.41-1.84,1.6,1.6,0,0,0-.6-1.41,6.18,6.18,0,0,0-1.9-.72l-1.59-.37a7.05,7.05,0,0,1-2.21-.8,2.55,2.55,0,0,1-1.12-2.27A3.5,3.5,0,0,1,75.24,18a4.33,4.33,0,0,1,3.12-1,5.26,5.26,0,0,1,3.15.92,3.34,3.34,0,0,1,1.3,2.94H81.26a3,3,0,0,0-.5-1.49,2.87,2.87,0,0,0-2.45-.95,2.72,2.72,0,0,0-2,.61,1.94,1.94,0,0,0-.61,1.42,1.39,1.39,0,0,0,.72,1.3,9.64,9.64,0,0,0,2.13.66l1.65.39a5,5,0,0,1,1.84.77A2.91,2.91,0,0,1,83.16,26a3.09,3.09,0,0,1-1.43,2.88,6.25,6.25,0,0,1-3.32.87A4.88,4.88,0,0,1,75,28.57a3.94,3.94,0,0,1-1.23-3.11Z"/><path class="cls-1" d="M85.58,18.06h1.51v2.47H88.5v1.21H87.09v5.78a.63.63,0,0,0,.31.62,1.37,1.37,0,0,0,.58.09h.23l.29,0v1.18a3.12,3.12,0,0,1-.53.11,5.74,5.74,0,0,1-.6,0A1.58,1.58,0,0,1,86,29a2.32,2.32,0,0,1-.38-1.38V21.74H84.39V20.53h1.19Z"/><path class="cls-1" d="M96.94,21.41a4.44,4.44,0,0,1,1.18,3.35,5.75,5.75,0,0,1-1,3.53,3.71,3.71,0,0,1-3.2,1.4A3.59,3.59,0,0,1,91,28.45a4.88,4.88,0,0,1-1.07-3.31,5.3,5.3,0,0,1,1.13-3.55,3.75,3.75,0,0,1,3-1.32A3.94,3.94,0,0,1,96.94,21.41ZM96,27.29a5.62,5.62,0,0,0,.54-2.49,4.5,4.5,0,0,0-.39-2A2.2,2.2,0,0,0,94,21.57a2.11,2.11,0,0,0-2,1,4.84,4.84,0,0,0-.61,2.51,4.21,4.21,0,0,0,.61,2.35,2.17,2.17,0,0,0,2,.94A2,2,0,0,0,96,27.29Z"/><path class="cls-1" d="M99.85,20.53h1.41v1.53a3.33,3.33,0,0,1,.85-1.09,2.19,2.19,0,0,1,1.56-.64h.14l.34,0v1.57l-.24,0h-.25a2.11,2.11,0,0,0-1.72.72,2.5,2.5,0,0,0-.61,1.67v5.08H99.85Z"/><path class="cls-1" d="M110.7,20.77A3.36,3.36,0,0,1,112,21.92a3.71,3.71,0,0,1,.59,1.56,9.81,9.81,0,0,1,.14,1.95h-6.44a3.84,3.84,0,0,0,.63,2.16,2.11,2.11,0,0,0,1.83.82,2.34,2.34,0,0,0,1.84-.77,2.67,2.67,0,0,0,.55-1h1.46a3.1,3.1,0,0,1-.38,1.09,4,4,0,0,1-.73,1,3.5,3.5,0,0,1-1.66.9,5.54,5.54,0,0,1-1.21.13,3.69,3.69,0,0,1-2.78-1.2,4.71,4.71,0,0,1-1.14-3.37,5.09,5.09,0,0,1,1.15-3.46,3.75,3.75,0,0,1,3-1.33A4.07,4.07,0,0,1,110.7,20.77Zm.53,3.48a3.87,3.87,0,0,0-.42-1.55,2.14,2.14,0,0,0-2-1.07,2.22,2.22,0,0,0-1.71.74,2.8,2.8,0,0,0-.72,1.88Z"/><path class="cls-1" d="M39,6.67h2.54a2.4,2.4,0,0,1,2,.93,3.49,3.49,0,0,1,.63,2.15,4.38,4.38,0,0,1-.37,1.84A2.32,2.32,0,0,1,41.52,13H39Zm2.37,5.63a2.25,2.25,0,0,0,.7-.09,1.6,1.6,0,0,0,.81-.65,3,3,0,0,0,.36-1,4.06,4.06,0,0,0,.06-.67,3.09,3.09,0,0,0-.46-1.83,1.67,1.67,0,0,0-1.48-.66H39.86V12.3Z"/><path class="cls-1" d="M48.68,8.86a2.33,2.33,0,0,1,.61,1.75,3.06,3.06,0,0,1-.54,1.86,2,2,0,0,1-1.68.73,1.9,1.9,0,0,1-1.51-.65A2.58,2.58,0,0,1,45,10.81,2.78,2.78,0,0,1,45.59,9a2,2,0,0,1,1.58-.69A2.07,2.07,0,0,1,48.68,8.86Zm-.49,3.08a3,3,0,0,0,.29-1.3,2.3,2.3,0,0,0-.21-1.06,1.14,1.14,0,0,0-1.12-.64,1.11,1.11,0,0,0-1,.55,2.57,2.57,0,0,0-.32,1.31A2.25,2.25,0,0,0,46.12,12a1.14,1.14,0,0,0,1,.5A1.06,1.06,0,0,0,48.19,11.94Z"/><path class="cls-1" d="M51.24,8.4l.89,3.65L53,8.4h.87L54.82,12l1-3.63h.78L55.2,13h-.81l-.94-3.59L52.53,13h-.81L50.39,8.4Z"/><path class="cls-1" d="M57.77,8.4h.74v.65a2.06,2.06,0,0,1,.7-.58A1.83,1.83,0,0,1,60,8.29,1.34,1.34,0,0,1,61.36,9a2.4,2.4,0,0,1,.19,1.08v3h-.79V10.11a1.47,1.47,0,0,0-.13-.68A.76.76,0,0,0,59.88,9a1.47,1.47,0,0,0-.46.06,1.15,1.15,0,0,0-.56.38,1.14,1.14,0,0,0-.25.47,3.18,3.18,0,0,0-.06.7V13h-.78Z"/><path class="cls-1" d="M63.28,6.67h.78V13h-.78Z"/><path class="cls-1" d="M69.08,8.86a2.33,2.33,0,0,1,.61,1.75,3.06,3.06,0,0,1-.54,1.86,2,2,0,0,1-1.68.73A1.92,1.92,0,0,1,66,12.55a2.58,2.58,0,0,1-.56-1.74A2.78,2.78,0,0,1,66,9a2,2,0,0,1,1.58-.69A2.07,2.07,0,0,1,69.08,8.86Zm-.48,3.08a3,3,0,0,0,.28-1.3,2.44,2.44,0,0,0-.2-1.06,1.16,1.16,0,0,0-1.13-.64,1.08,1.08,0,0,0-1,.55,2.47,2.47,0,0,0-.33,1.31A2.17,2.17,0,0,0,66.53,12a1.11,1.11,0,0,0,1,.5A1.07,1.07,0,0,0,68.6,11.94Z"/><path class="cls-1" d="M73.42,10.23a.43.43,0,0,0,.36-.23.78.78,0,0,0,0-.3.63.63,0,0,0-.29-.58,1.47,1.47,0,0,0-.81-.18,1,1,0,0,0-.86.33,1.14,1.14,0,0,0-.19.55H71a1.34,1.34,0,0,1,.55-1.2,2.24,2.24,0,0,1,1.24-.34,2.59,2.59,0,0,1,1.33.31,1.07,1.07,0,0,1,.51,1v2.68a.29.29,0,0,0,0,.19c0,.05.1.07.21.07H75l.14,0v.57a1.6,1.6,0,0,1-.28.07h-.26a.64.64,0,0,1-.58-.28,1.09,1.09,0,0,1-.13-.43,1.93,1.93,0,0,1-.69.54,2.14,2.14,0,0,1-1,.23,1.49,1.49,0,0,1-1.06-.39,1.31,1.31,0,0,1-.41-1,1.27,1.27,0,0,1,.41-1,1.93,1.93,0,0,1,1-.44Zm-1.64,2.1a.89.89,0,0,0,.58.2,1.91,1.91,0,0,0,.8-.19,1.08,1.08,0,0,0,.65-1v-.62a1.42,1.42,0,0,1-.37.15,2.41,2.41,0,0,1-.44.08l-.47.07a1.66,1.66,0,0,0-.64.17.69.69,0,0,0-.36.65A.62.62,0,0,0,71.78,12.33Z"/><path class="cls-1" d="M79,8.54a2.1,2.1,0,0,1,.47.45V6.65h.75V13h-.7v-.64a1.74,1.74,0,0,1-.65.62,1.9,1.9,0,0,1-.85.19,1.71,1.71,0,0,1-1.33-.65,2.57,2.57,0,0,1-.57-1.74,2.94,2.94,0,0,1,.52-1.75A1.82,1.82,0,0,1,79,8.54ZM77.23,12a1.11,1.11,0,0,0,1,.5,1.05,1.05,0,0,0,.88-.47,2.19,2.19,0,0,0,.35-1.33,2,2,0,0,0-.36-1.31A1.11,1.11,0,0,0,78.23,9a1.16,1.16,0,0,0-1,.45,2.11,2.11,0,0,0-.37,1.33A2.34,2.34,0,0,0,77.23,12Z"/><path class="cls-1" d="M88,8.86a2.33,2.33,0,0,1,.61,1.75,3.06,3.06,0,0,1-.54,1.86,2,2,0,0,1-1.68.73,1.9,1.9,0,0,1-1.51-.65,2.58,2.58,0,0,1-.56-1.74A2.78,2.78,0,0,1,84.9,9a2,2,0,0,1,1.58-.69A2.07,2.07,0,0,1,88,8.86Zm-.49,3.08a3,3,0,0,0,.29-1.3,2.3,2.3,0,0,0-.21-1.06,1.14,1.14,0,0,0-1.12-.64,1.11,1.11,0,0,0-1,.55,2.57,2.57,0,0,0-.32,1.31A2.25,2.25,0,0,0,85.43,12a1.14,1.14,0,0,0,1,.5A1.06,1.06,0,0,0,87.5,11.94Z"/><path class="cls-1" d="M90,8.4h.74v.65a2.06,2.06,0,0,1,.7-.58,1.79,1.79,0,0,1,.81-.18A1.36,1.36,0,0,1,93.57,9a2.4,2.4,0,0,1,.19,1.08v3H93V10.11a1.61,1.61,0,0,0-.13-.68A.76.76,0,0,0,92.09,9a1.47,1.47,0,0,0-.46.06,1.15,1.15,0,0,0-.56.38,1.14,1.14,0,0,0-.25.47,3.18,3.18,0,0,0-.06.7V13H90Z"/><path class="cls-1" d="M98.48,7.1h.79V8.4H100V9h-.74v3a.31.31,0,0,0,.16.32.6.6,0,0,0,.31,0h.12l.15,0V13a1.27,1.27,0,0,1-.28.06l-.31,0a.88.88,0,0,1-.75-.28,1.26,1.26,0,0,1-.19-.73V9h-.63V8.4h.63Z"/><path class="cls-1" d="M101.56,6.65h.77V9a2.47,2.47,0,0,1,.5-.49,1.65,1.65,0,0,1,.94-.25,1.4,1.4,0,0,1,1.37.71,2.4,2.4,0,0,1,.2,1.07v3h-.81V10.11a1.6,1.6,0,0,0-.13-.75.82.82,0,0,0-.79-.38,1.32,1.32,0,0,0-.88.33,1.64,1.64,0,0,0-.4,1.26V13h-.77Z"/><path class="cls-1" d="M109.77,8.52a1.81,1.81,0,0,1,.7.6,2,2,0,0,1,.31.82,5,5,0,0,1,.07,1h-3.37a2,2,0,0,0,.33,1.14,1.1,1.1,0,0,0,1,.43,1.22,1.22,0,0,0,1-.41,1.35,1.35,0,0,0,.29-.54h.77a1.54,1.54,0,0,1-.21.57,1.88,1.88,0,0,1-.38.51,1.76,1.76,0,0,1-.87.47,3,3,0,0,1-.63.07,1.93,1.93,0,0,1-1.46-.63,2.46,2.46,0,0,1-.6-1.77,2.67,2.67,0,0,1,.6-1.81,2,2,0,0,1,1.58-.7A2.14,2.14,0,0,1,109.77,8.52Zm.28,1.82a2,2,0,0,0-.22-.81A1.12,1.12,0,0,0,108.77,9a1.17,1.17,0,0,0-.89.39,1.52,1.52,0,0,0-.39,1Z"/><path class="cls-1" d="M19.65,12.2A5.18,5.18,0,0,1,21,8.2a6,6,0,0,1,3.72-1.88,5.57,5.57,0,0,1-1.29,4.1A5.17,5.17,0,0,1,19.65,12.2Z"/><path class="cls-1" d="M26.68,19.84A5.59,5.59,0,0,1,29.46,15a6.14,6.14,0,0,0-5-2.57c-2.19,0-3.4,1.18-4.59,1.18-.86,0-2.57-1.07-4.16-1.07-3.14,0-6.32,2.59-6.32,7.58,0,5.76,4,11.66,6.58,11.66,1.66,0,2.39-1.06,4.29-1.06s2.56,1,4.14,1c2.16,0,4.48-3,5.7-6.8A5.59,5.59,0,0,1,26.68,19.84Z"/></svg>