<svg id="Layer_1" data-name="Layer 1" xmlns="http://www.w3.org/2000/svg" viewBox="0 0 64 74"><defs><style>.cls-1{fill:#52db78;}</style></defs><title>Artboard 1</title><path class="cls-1" d="M59.27,21.25a1.79,1.79,0,0,0-1.11-.85h0a1.82,1.82,0,0,0-1.39.18,1.84,1.84,0,0,0-.84,1.11,1.82,1.82,0,0,0,.18,1.39A27.83,27.83,0,0,1,32.47,64.84l2.36-2.35h0a1.83,1.83,0,0,0-1.3-3.12h0a1.85,1.85,0,0,0-1.29.53l-5,5,0,0a1.83,1.83,0,0,0-.71,1.21,1.69,1.69,0,0,0,0,.23A1.79,1.79,0,0,0,27,67.73L32.24,73h0a1.83,1.83,0,0,0,2.58-2.59l-1.91-1.91A31.52,31.52,0,0,0,63.5,37h0A31.46,31.46,0,0,0,59.27,21.25Z"/><path class="cls-1" d="M52.37,37A20.37,20.37,0,1,0,32,57.37,20.4,20.4,0,0,0,52.37,37ZM15.28,37A16.72,16.72,0,1,1,32,53.72,16.69,16.69,0,0,1,15.28,37Z"/><path class="cls-1" d="M4.15,37A27.82,27.82,0,0,1,31.53,9.16l-2.36,2.35a1.85,1.85,0,0,0,0,2.59,1.83,1.83,0,0,0,2.58,0l5.17-5.17a1.82,1.82,0,0,0,.6-1.13V7.41s0-.07,0-.1a.15.15,0,0,0,0-.07.59.59,0,0,0,0-.13v0c0-.06,0-.11,0-.16h0A2,2,0,0,0,37,6.27L31.75,1A1.81,1.81,0,0,0,30.46.49h0A1.85,1.85,0,0,0,29.17,1a1.84,1.84,0,0,0,0,2.59l1.91,1.91A31.49,31.49,0,0,0,4.72,52.75a1.83,1.83,0,0,0,3.35-.44,1.87,1.87,0,0,0-.18-1.39A27.77,27.77,0,0,1,4.15,37Z"/><path class="cls-1" d="M33.62,48.33v-1A7.53,7.53,0,0,0,38.14,45a5,5,0,0,0,1.18-4h0c-.37-3-2.74-5-7-5.66-3.71-.61-3.78-2.08-3.81-2.63A2.85,2.85,0,0,1,31,29.94a4,4,0,0,1,4.78,2.25,1.62,1.62,0,0,0,3-1.26,6.91,6.91,0,0,0-5.15-4.19V25.67a1.62,1.62,0,1,0-3.24,0v1.08l-.1,0c-3.16.72-5.19,3.17-5.05,6.1.11,2.11,1.32,4.81,6.52,5.66,3.62.6,4.23,1.84,4.35,2.86a1.76,1.76,0,0,1-.41,1.49,4.94,4.94,0,0,1-3.49,1.3c-1.69,0-3.85-.66-4.37-2.76a1.62,1.62,0,0,0-3.15.79,7,7,0,0,0,5.7,5.06v1.06a1.62,1.62,0,0,0,3.24,0Z"/></svg>