<?xml version="1.0" encoding="utf-8"?>
<!-- Generator: Adobe Illustrator 24.0.1, SVG Export Plug-In . SVG Version: 6.00 Build 0)  -->
<svg version="1.1" id="Layer_1" xmlns="http://www.w3.org/2000/svg" xmlns:xlink="http://www.w3.org/1999/xlink" x="0px" y="0px"
	 viewBox="0 0 82.7 22.6" style="enable-background:new 0 0 82.7 22.6;" xml:space="preserve">
<style type="text/css">
	.st0{fill:#FFFFFF;}
	.st1{fill:#E30613;}
</style>
<title>Artboard 5</title>
<path class="st0" d="M34.1,16.5c-0.5,0.2-1,0.3-1.5,0.3c-0.7,0-1.5-0.1-2.2-0.4c-0.6-0.3-1.2-0.7-1.6-1.1c-0.4-0.5-0.8-1.1-1-1.7
	c-0.2-0.7-0.4-1.4-0.4-2.1s0.1-1.5,0.4-2.2c0.2-0.6,0.6-1.2,1-1.8c0.5-0.5,1-0.9,1.6-1.2c0.7-0.3,1.4-0.4,2.2-0.4
	c0.5,0,1,0.1,1.5,0.2c0.5,0.2,1,0.4,1.4,0.7c0.4,0.3,0.7,0.7,1,1.2S37,9,37,9.6h-2.2c-0.1-0.5-0.4-1-0.8-1.3
	c-0.4-0.3-0.9-0.5-1.4-0.4c-0.5,0-0.9,0.1-1.3,0.3S30.6,8.7,30.4,9c-0.2,0.2-0.4,0.6-0.5,1s-0.2,0.9-0.2,1.3c0,0.4,0.1,0.9,0.2,1.3
	c0.1,0.4,0.3,0.8,0.5,1.1s0.5,0.6,0.9,0.8s0.9,0.3,1.3,0.3c0.6,0,1.3-0.2,1.8-0.6c0.4-0.4,0.7-1,0.7-1.7h-2.3v-1.7h4.4v5.6h-1.5
	l-0.2-1.2C35.1,15.8,34.6,16.2,34.1,16.5z"/>
<path class="st0" d="M38.5,7.8V6.1h2.1v1.7H38.5z M40.6,9v7.5h-2.1V9H40.6z"/>
<path class="st0" d="M43.9,9v1.4l0,0c0.1-0.2,0.2-0.5,0.4-0.6c0.2-0.2,0.3-0.4,0.6-0.5C45.1,9.2,45.3,9,45.6,9
	c0.2-0.1,0.5-0.1,0.8-0.1c0.2,0,0.3,0,0.5,0.1v1.9h-0.3h-0.4c-0.3,0-0.7,0-1,0.2c-0.3,0.1-0.5,0.3-0.6,0.5c-0.2,0.2-0.3,0.5-0.3,0.8
	c-0.1,0.3-0.1,0.7-0.1,1v3.4h-2V9H43.9z"/>
<path class="st0" d="M47.2,11.1c0.2-0.5,0.4-0.9,0.8-1.2c0.3-0.4,0.8-0.6,1.2-0.8c1-0.4,2.2-0.4,3.2,0c0.9,0.4,1.7,1.1,2,2.1
	c0.2,0.5,0.3,1.1,0.3,1.6c0,0.6-0.1,1.1-0.3,1.6c-0.3,0.9-1.1,1.7-2,2c-1,0.4-2.2,0.4-3.2,0c-0.5-0.2-0.9-0.4-1.2-0.8
	c-0.3-0.4-0.6-0.8-0.8-1.2c-0.2-0.5-0.3-1.1-0.3-1.6C46.9,12.2,47,11.7,47.2,11.1z M49,13.7c0.1,0.3,0.2,0.5,0.3,0.8
	c0.1,0.2,0.3,0.4,0.6,0.6c0.3,0.1,0.6,0.2,0.9,0.2c0.3,0,0.6-0.1,0.9-0.2c0.2-0.1,0.4-0.3,0.6-0.6c0.1-0.2,0.2-0.5,0.3-0.8
	s0.1-0.6,0.1-0.9c0-0.3,0-0.6-0.1-0.9c-0.1-0.3-0.2-0.5-0.3-0.8c-0.1-0.2-0.3-0.4-0.6-0.6c-0.3-0.1-0.6-0.2-0.9-0.2
	c-0.3,0-0.6,0.1-0.9,0.2c-0.2,0.1-0.4,0.3-0.6,0.6c-0.1,0.2-0.2,0.5-0.3,0.8s-0.1,0.6-0.1,0.9C48.9,13.1,48.9,13.4,49,13.7z"/>
<path class="st0" d="M57,9v1.1l0,0c0.5-0.8,1.5-1.3,2.4-1.3c0.4,0,0.9,0.1,1.3,0.3c0.4,0.2,0.7,0.6,0.8,1c0.2-0.4,0.6-0.7,1-0.9
	s0.9-0.3,1.4-0.3c0.3,0,0.7,0,1,0.1s0.6,0.2,0.8,0.4c0.2,0.2,0.4,0.4,0.5,0.7s0.2,0.7,0.2,1v5.5h-1.2v-5c0-0.2,0-0.4-0.1-0.6
	c0-0.2-0.1-0.4-0.2-0.5c-0.1-0.2-0.3-0.3-0.4-0.4C64.3,10,64,10,63.8,10c-0.5,0-1.1,0.2-1.5,0.5c-0.4,0.4-0.5,0.9-0.5,1.4v4.7h-1.2
	v-4.9c0-0.2,0-0.4-0.1-0.7c0-0.2-0.1-0.4-0.2-0.5c-0.1-0.2-0.3-0.3-0.4-0.4C59.7,10,59.4,10,59.2,10c-0.3,0-0.6,0.1-0.9,0.2
	c-0.2,0.1-0.5,0.3-0.6,0.5s-0.3,0.4-0.3,0.6c-0.1,0.2-0.1,0.4-0.1,0.6v4.7h-1.2V9H57z"/>
<path class="st0" d="M73.4,16.1c-0.6,0.4-1.4,0.7-2.1,0.6c-0.5,0-1.1-0.1-1.6-0.3c-0.4-0.2-0.8-0.5-1.1-0.8
	c-0.3-0.4-0.5-0.8-0.7-1.3s-0.2-1.1-0.3-1.6c0-0.5,0.1-1.1,0.3-1.6c0.2-0.5,0.4-0.9,0.7-1.2c0.3-0.3,0.7-0.6,1.1-0.8
	s0.9-0.3,1.4-0.3c0.6,0,1.2,0.1,1.7,0.4c0.4,0.2,0.8,0.6,1.1,1c0.3,0.4,0.5,0.9,0.6,1.4s0.1,1,0.1,1.4H69c0,0.3,0,0.6,0.1,0.9
	c0.2,0.6,0.6,1.1,1.2,1.3c0.3,0.1,0.7,0.2,1.1,0.2c0.5,0,0.9-0.1,1.3-0.4c0.4-0.3,0.6-0.7,0.7-1.1h1.2C74.4,14.9,74,15.6,73.4,16.1z
	 M73.1,11.2c-0.1-0.2-0.3-0.5-0.5-0.7s-0.4-0.4-0.7-0.5c-0.3-0.1-0.6-0.2-0.8-0.2c-0.3,0-0.6,0.1-0.9,0.2c-0.3,0.1-0.5,0.3-0.7,0.5
	s-0.3,0.4-0.4,0.7s-0.2,0.5-0.2,0.8h4.3C73.2,11.8,73.2,11.5,73.1,11.2z"/>
<path class="st0" d="M75,9h1.6l1.8,2.6L80.3,9h1.5l-2.6,3.5l2.9,4.1h-1.6l-2.1-3.1l-2.1,3.1h-1.5l2.8-4L75,9z"/>
<g>
	<path class="st1" d="M11.7,0.2c-6.1,0-11.1,5-11.1,11.1s5,11.1,11.1,11.1s11.1-5,11.1-11.1l0,0C22.8,5.2,17.8,0.2,11.7,0.2
		L11.7,0.2z"/>
	<path class="st0" d="M18.2,15.1h-0.9c2-3,0.6-8.5-3.9-7c3.7,0,4.5,3.4,3,7h-0.7c0.9-2.3,0.5-6-2.9-4.8c1.7,0.2,2.9,1.7,2.7,3.4
		c0,0.1,0,0.2,0,0.2c-0.1,1-0.5,1.9-1,2.8c-0.1-0.1-0.1-0.2-0.1-0.3c0.9-2.8-0.3-4.5-2-4.1c0.7,0.4,1.2,1.1,1.3,1.9
		c0,0.3,0,0.6-0.2,0.8H13c-1.8-0.2-3.6-0.2-5.4-0.1C6.9,15,6.3,15.4,6,16c-0.2-0.4-0.4-0.8-0.5-1.2l-0.2-0.6
		c-0.1-0.3-0.1-0.6-0.2-0.9C5,11.3,6.5,8.9,7,8C6.3,9,5.6,7.8,7,7.1C6.7,6.9,6.3,6.6,6.3,6.6c0.3,0,0.6,0,0.9,0c0-0.2,0-0.4-0.1-0.6
		C7,5,8,4.6,8.3,5C8.6,5.4,7.9,5.6,8,5.9C8,6.1,8.6,5.4,8.9,6C9,6.4,8.3,6.3,8.3,6.5S8.9,6.4,9,6.8c0.1,0.4-0.6,0.3-0.6,0.4
		c-0.1,1.2,0,2.4,0.1,3.6c0.2,1,0.4,1.5,1.7,1.4c-0.8-4.4,2.6-6.7,4.9-6.5c5,0.3,4.5,5.3,4.5,5.3C19.4,12.4,19,13.8,18.2,15.1z"/>
</g>
</svg>
