<svg id="Layer_1" data-name="Layer 1" xmlns="http://www.w3.org/2000/svg" viewBox="0 0 188.39 52.43"><defs><style>.cls-1{fill:#fff;}</style></defs><title>Artboard 1 copy 6</title><path class="cls-1" d="M26.1.71a25.5,25.5,0,1,0,25.5,25.5A25.5,25.5,0,0,0,26.1.71ZM41.17,34.79h-2c4.58-6.89,1.29-19.46-8.84-16,8.58,0,10.39,7.9,6.87,16.06H35.63c2.06-5.19,1.11-13.69-6.78-10.92C36.2,25,35,32.21,35,32.21a17.42,17.42,0,0,1-2.2,6.45,2.41,2.41,0,0,1-.29-.62c1.95-6.47-.79-10.39-4.53-9.44,0,0,3,1.58,3,4.36a4.66,4.66,0,0,1-.36,1.93H29.26c-5.85-.18-9.56-.77-12.57-.26a5.41,5.41,0,0,0-3.78,2.45,28.29,28.29,0,0,1-1.22-2.76l-.42-1.43a11.29,11.29,0,0,1-.34-2.08c-.34-4.65,3.25-10.1,4.29-12.3-1.58,2.39-3.26-.39,0-2.16-.48-.36-1.55-1-1.55-1a7.67,7.67,0,0,0,2-.12,5.61,5.61,0,0,0-.13-1.3c-.14-2.33,2.14-3.09,2.88-2.35,1.06,1.05-.9,1.45-.79,2s1.42-1.25,2,.16c.39,1-1.35.74-1.3,1.38,0,.33,1.27-.24,1.53.63.22.72-1.24.53-1.32.87,0,.87-.18,6.15.32,8.24.57,2.4,1,3.41,3.81,3.24-1.92-10,5.86-15.26,11.3-15,11.61.6,10.21,12.2,10.21,12.2C44.14,27.5,42.55,33,41.17,34.79Z"/><path class="cls-1" d="M77.52,38a8.82,8.82,0,0,1-3.45.72,12.28,12.28,0,0,1-4.95-1,10.44,10.44,0,0,1-3.7-2.63,11.67,11.67,0,0,1-2.32-3.94,14.65,14.65,0,0,1-.8-4.88,15.12,15.12,0,0,1,.8-5,12,12,0,0,1,2.32-4,10.56,10.56,0,0,1,3.7-2.68,12.11,12.11,0,0,1,4.95-1,11.58,11.58,0,0,1,3.57.55,10.1,10.1,0,0,1,3.12,1.63,8.75,8.75,0,0,1,3.4,6.27h-5a5,5,0,0,0-1.81-3,5.26,5.26,0,0,0-3.25-1,6.13,6.13,0,0,0-3,.69,5.59,5.59,0,0,0-2,1.85,7.86,7.86,0,0,0-1.12,2.63,12.8,12.8,0,0,0-.36,3,11.88,11.88,0,0,0,.36,2.93A7.64,7.64,0,0,0,69,31.83a5.71,5.71,0,0,0,2,1.83,6.13,6.13,0,0,0,3,.69,5.74,5.74,0,0,0,4-1.33,5.76,5.76,0,0,0,1.66-3.84h-5.3V25.26H84.53V38.2H81.18l-.54-2.71A8,8,0,0,1,77.52,38Z"/><path class="cls-1" d="M87.78,18.18V14.26h4.77v3.92Zm4.77,2.68V38.2H87.78V20.86Z"/><path class="cls-1" d="M100.19,20.86v3.22h.07a5.63,5.63,0,0,1,.91-1.49,5.77,5.77,0,0,1,1.3-1.17,6.22,6.22,0,0,1,1.58-.76,5.65,5.65,0,0,1,1.74-.27,3.75,3.75,0,0,1,1,.17V25c-.22,0-.49-.08-.8-.12s-.62-.05-.91-.05a5.06,5.06,0,0,0-2.21.44,3.8,3.8,0,0,0-1.46,1.19,4.8,4.8,0,0,0-.79,1.76,10,10,0,0,0-.23,2.18V38.2H95.67V20.86Z"/><path class="cls-1" d="M107.57,25.78a8.16,8.16,0,0,1,1.81-2.89,8,8,0,0,1,2.82-1.84,9.78,9.78,0,0,1,3.69-.66,9.91,9.91,0,0,1,3.7.66,8.1,8.1,0,0,1,2.84,1.84,8.3,8.3,0,0,1,1.81,2.89,10.73,10.73,0,0,1,.63,3.77,10.63,10.63,0,0,1-.63,3.76,8.26,8.26,0,0,1-1.81,2.86A7.81,7.81,0,0,1,119.59,38a10.12,10.12,0,0,1-3.7.64A10,10,0,0,1,112.2,38a7.73,7.73,0,0,1-2.82-1.83,8.12,8.12,0,0,1-1.81-2.86,11.39,11.39,0,0,1,0-7.53Zm4.33,5.8a5.45,5.45,0,0,0,.68,1.78,3.76,3.76,0,0,0,1.29,1.25,3.9,3.9,0,0,0,2,.47,4,4,0,0,0,2-.47,3.62,3.62,0,0,0,1.3-1.25,5.25,5.25,0,0,0,.69-1.78,9.78,9.78,0,0,0,.2-2,10.11,10.11,0,0,0-.2-2.05,5,5,0,0,0-.69-1.77,3.74,3.74,0,0,0-1.3-1.26,4,4,0,0,0-2-.49,3.67,3.67,0,0,0-3.31,1.75,5.14,5.14,0,0,0-.68,1.77,10.11,10.11,0,0,0-.2,2.05A9.78,9.78,0,0,0,111.9,31.58Z"/><path class="cls-1" d="M130.21,20.86v2.55h.06a6.76,6.76,0,0,1,8.52-2.28,3.79,3.79,0,0,1,1.85,2.28,6.06,6.06,0,0,1,2.29-2.18,6.55,6.55,0,0,1,3.14-.77,9,9,0,0,1,2.36.29,4.84,4.84,0,0,1,1.82.89,4.06,4.06,0,0,1,1.17,1.55,5.73,5.73,0,0,1,.42,2.3V38.2H149V26.83a8.07,8.07,0,0,0-.14-1.51,3,3,0,0,0-.5-1.22,2.53,2.53,0,0,0-1-.82,4.11,4.11,0,0,0-1.7-.3,4.52,4.52,0,0,0-3.32,1.2,4.38,4.38,0,0,0-1.2,3.22V38.2h-2.85V26.83a7.38,7.38,0,0,0-.15-1.54,3.46,3.46,0,0,0-.52-1.22,2.46,2.46,0,0,0-1-.81A3.89,3.89,0,0,0,135,23a4.25,4.25,0,0,0-2.13.5,4.93,4.93,0,0,0-1.44,1.21,4.58,4.58,0,0,0-.8,1.46,4,4,0,0,0-.25,1.25V38.2h-2.86V20.86Z"/><path class="cls-1" d="M167.77,37.1a7.9,7.9,0,0,1-4.9,1.47,8.8,8.8,0,0,1-3.6-.67A7.05,7.05,0,0,1,156.7,36a8,8,0,0,1-1.56-2.88,14,14,0,0,1-.59-3.66,10.49,10.49,0,0,1,.61-3.62A8.65,8.65,0,0,1,156.85,23a7.87,7.87,0,0,1,2.58-1.88,8,8,0,0,1,3.27-.67,7.05,7.05,0,0,1,3.84,1A7.49,7.49,0,0,1,169,23.85a9.62,9.62,0,0,1,1.28,3.22,13.75,13.75,0,0,1,.28,3.32h-13a7,7,0,0,0,.27,2.16,5,5,0,0,0,1,1.81,4.76,4.76,0,0,0,1.71,1.26,6,6,0,0,0,2.45.47,4.93,4.93,0,0,0,3-.84,4.09,4.09,0,0,0,1.53-2.55h2.81A7,7,0,0,1,167.77,37.1ZM167.08,26a5,5,0,0,0-1-1.56,5.16,5.16,0,0,0-1.54-1,5,5,0,0,0-2-.38,5.09,5.09,0,0,0-2,.38A4.72,4.72,0,0,0,159,24.42,5.08,5.08,0,0,0,158,26a5.93,5.93,0,0,0-.44,1.89h10A5.62,5.62,0,0,0,167.08,26Z"/><path class="cls-1" d="M171.49,20.86h3.65l4.16,6.07,4.33-6.07h3.42l-6,8,6.71,9.35h-3.66L179.3,31l-4.83,7.17H171l6.51-9.12Z"/></svg>