<svg id="Layer_1" data-name="Layer 1" xmlns="http://www.w3.org/2000/svg" xmlns:xlink="http://www.w3.org/1999/xlink" viewBox="0 0 126.23 38.04"><defs><style>.cls-1{fill:url(#ÅÂÁ_Ï_ÌÌ_È_ËÂÌÚ_58);}.cls-2{fill:url(#ÅÂÁ_Ï_ÌÌ_È_ËÂÌÚ_27);}.cls-3{fill:url(#ÅÂÁ_Ï_ÌÌ_È_ËÂÌÚ_62);}.cls-4{fill:url(#ÅÂÁ_Ï_ÌÌ_È_ËÂÌÚ_64);}.cls-5{fill:#fff;}</style><linearGradient id="ÅÂÁ_Ï_ÌÌ_È_ËÂÌÚ_58" x1="9.54" y1="8.95" x2="24.46" y2="17.57" gradientUnits="userSpaceOnUse"><stop offset="0" stop-color="#00db6c"/><stop offset="1" stop-color="#00f468"/></linearGradient><linearGradient id="ÅÂÁ_Ï_ÌÌ_È_ËÂÌÚ_27" x1="6.42" y1="20.47" x2="20.47" y2="15.36" gradientUnits="userSpaceOnUse"><stop offset="0" stop-color="#42e5ff"/><stop offset="0.23" stop-color="#3de1fe"/><stop offset="0.5" stop-color="#2ed6fb"/><stop offset="0.79" stop-color="#17c5f5"/><stop offset="1" stop-color="#00b4f0"/></linearGradient><linearGradient id="ÅÂÁ_Ï_ÌÌ_È_ËÂÌÚ_62" x1="10.28" y1="25.06" x2="25.64" y2="25.06" gradientUnits="userSpaceOnUse"><stop offset="0" stop-color="#ed004b"/><stop offset="1" stop-color="red"/></linearGradient><linearGradient id="ÅÂÁ_Ï_ÌÌ_È_ËÂÌÚ_64" x1="21.86" y1="19.14" x2="31.29" y2="19.14" gradientUnits="userSpaceOnUse"><stop offset="0" stop-color="#ffae00"/><stop offset="0.13" stop-color="#ffba00"/><stop offset="0.43" stop-color="#ffce00"/><stop offset="0.72" stop-color="#ffdb00"/><stop offset="1" stop-color="#ffdf00"/></linearGradient></defs><title>Artboard 18 copy</title><rect x="0.61" y="0.58" width="125" height="36.88" rx="7.56"/><path class="cls-1" d="M25.8,15.25l-14-7.87a1.29,1.29,0,0,0-1.39.08l11.46,11.7Z"/><path class="cls-2" d="M10.4,7.46a1.29,1.29,0,0,0-.55,1.06V29.66a1.28,1.28,0,0,0,.43,1L21.86,19.16Z"/><path class="cls-3" d="M10.28,30.63a1.31,1.31,0,0,0,1.51.17L25.64,23l-3.78-3.87Z"/><path class="cls-4" d="M30.63,18,25.8,15.25l-3.94,3.91L25.64,23l5-2.8A1.3,1.3,0,0,0,30.63,18Z"/><path class="cls-5" d="M44.68,28.73a6.07,6.07,0,1,1,4.06-10.58l-1,1.12a4.53,4.53,0,0,0-3-1.17,4.57,4.57,0,1,0,0,9.13,4.16,4.16,0,0,0,4.17-3.62H44.67v-1.5h5.74v.75A6,6,0,0,1,48.76,27,5.65,5.65,0,0,1,44.68,28.73Z"/><path class="cls-5" d="M55,28.73a3.93,3.93,0,1,1,3.92-3.92A3.93,3.93,0,0,1,55,28.73Zm0-6.34a2.42,2.42,0,1,0,2.42,2.42A2.42,2.42,0,0,0,55,22.39Z"/><path class="cls-5" d="M63.56,28.73a3.93,3.93,0,1,1,3.92-3.92A3.93,3.93,0,0,1,63.56,28.73Zm0-6.34A2.42,2.42,0,1,0,66,24.81,2.42,2.42,0,0,0,63.56,22.39Z"/><path class="cls-5" d="M108.94,28.45h-1.51V24.32a2,2,0,0,0-3.73-1.12l-1.26-.82a3.54,3.54,0,0,1,6.5,1.94Z"/><path class="cls-5" d="M83.39,28.73A3.92,3.92,0,0,1,80.61,22a3.68,3.68,0,0,1,2.62-1.16,3.73,3.73,0,0,1,3.33,2l.39.71-5.54,2.57a2.41,2.41,0,0,0,4,0l1.25.84A3.91,3.91,0,0,1,83.39,28.73Zm-.16-6.34a2.2,2.2,0,0,0-1.55.7A2.46,2.46,0,0,0,81,24.73L84.74,23A2.14,2.14,0,0,0,83.23,22.39Z"/><path class="cls-5" d="M72,28.73a3.93,3.93,0,1,1,3.92-3.92A3.93,3.93,0,0,1,72,28.73Zm0-6.34a2.42,2.42,0,1,0,2.42,2.42A2.42,2.42,0,0,0,72,22.39Z"/><path class="cls-5" d="M72,32.28a3.87,3.87,0,0,1-3.43-2.1l1.33-.7A2.36,2.36,0,0,0,72,30.77a2.4,2.4,0,0,0,2.38-2.42V21.16h1.5v7.19A3.91,3.91,0,0,1,72,32.28Z"/><rect class="cls-5" x="76.98" y="17.02" width="1.5" height="11.44"/><rect class="cls-5" x="99.38" y="17.02" width="1.5" height="11.44"/><path class="cls-5" d="M92.13,28.45h-1.5V17H94.9a3.51,3.51,0,0,1,0,7l-2.77,0Zm0-10v4l2.77,0a2,2,0,0,0,0-4Z"/><path class="cls-5" d="M104.78,28.8a2.75,2.75,0,0,1-1.75-.64,2.49,2.49,0,0,1-.86-1.91c0-1.64,1.33-2.78,3.24-2.78a6.75,6.75,0,0,1,3.19,1.1l-.67,1,.25-.38-.25.38.79-.54c-.41,1.48-2.2,3.51-3.54,3.73A2.6,2.6,0,0,1,104.78,28.8Zm.63-3.82c-.18,0-1.73,0-1.73,1.27A1,1,0,0,0,104,27a1.23,1.23,0,0,0,.92.27,3.53,3.53,0,0,0,2.29-1.76A4.33,4.33,0,0,0,105.41,25Z"/><polygon class="cls-5" points="110.49 31.75 110.6 31.79 112.11 31.79 116.98 20.77 115.33 20.77 112.96 26.14 110.52 20.77 108.87 20.77 112.15 27.98 110.49 31.75"/><path class="cls-5" d="M41.7,13.09a3,3,0,1,1,2-5.19l-.47.52a2.28,2.28,0,1,0-1.52,4,2.08,2.08,0,0,0,2.08-1.83H41.69v-.7h2.82v.35a2.94,2.94,0,0,1-.81,2A2.78,2.78,0,0,1,41.7,13.09Z"/><polygon class="cls-5" points="48.55 12.91 45.45 12.91 45.45 7.13 48.55 7.13 48.55 7.83 46.14 7.83 46.14 12.21 48.55 12.21 48.55 12.91"/><rect class="cls-5" x="45.8" y="9.67" width="2.53" height="0.7"/><rect class="cls-5" x="49.44" y="7.14" width="3.69" height="0.7"/><rect class="cls-5" x="50.94" y="7.48" width="0.7" height="5.45"/><rect class="cls-5" x="57.62" y="7.14" width="3.69" height="0.7"/><rect class="cls-5" x="59.12" y="7.48" width="0.7" height="5.45"/><rect class="cls-5" x="55.98" y="7.16" width="0.7" height="5.77"/><path class="cls-5" d="M66.59,13a2.92,2.92,0,1,1,2.92-2.92A2.92,2.92,0,0,1,66.59,13Zm0-5.14a2.22,2.22,0,1,0,2.23,2.22A2.23,2.23,0,0,0,66.59,7.89Z"/><polygon class="cls-5" points="71.06 8.38 73.92 12.93 74.68 12.93 74.68 12.93 74.68 7.16 73.99 7.16 73.99 11.72 71.13 7.16 70.37 7.16 70.36 7.16 70.36 12.93 71.06 12.93 71.06 8.38"/></svg>