<svg id="Layer_1" data-name="Layer 1" xmlns="http://www.w3.org/2000/svg" viewBox="0 0 40.03 39.87"><defs><style>.cls-1{fill:#52db78;}</style></defs><title>Artboard 22</title><path class="cls-1" d="M20,.51A19.43,19.43,0,1,0,39.44,19.94,19.45,19.45,0,0,0,20,.51Zm0,36.18A16.76,16.76,0,1,1,36.77,19.94,16.76,16.76,0,0,1,20,36.69ZM14.8,24.35a1.25,1.25,0,0,0-.64.17,1.42,1.42,0,0,0-.46,1.84,7.41,7.41,0,0,0,4.68,3.32l.3.07v1.39a1.34,1.34,0,0,0,2.67,0V29.79l.31-.06a6.48,6.48,0,0,0,2.87-1.32,5.35,5.35,0,0,0,2-4.17,4.8,4.8,0,0,0-2.27-4,13.59,13.59,0,0,0-2.71-1.18c-.35-.13-.7-.25-1-.38l-.91-.33c-1.6-.56-3.42-1.21-3.43-2.72a2.56,2.56,0,0,1,1-2.11A4.52,4.52,0,0,1,20,12.66a4.81,4.81,0,0,1,4,2.2,1.41,1.41,0,0,0,1.83.46,1.34,1.34,0,0,0,.58-.83,1.32,1.32,0,0,0-.12-1,7.37,7.37,0,0,0-4.68-3.29l-.3-.07V8.74a1.34,1.34,0,1,0-2.67,0v1.34l-.31.06a6.47,6.47,0,0,0-2.87,1.3,5.4,5.4,0,0,0-2,4.19,4.71,4.71,0,0,0,2.26,4,14.24,14.24,0,0,0,2.72,1.19c.35.12.7.24,1,.37l.9.33c1.53.54,3.43,1.21,3.44,2.75a2.46,2.46,0,0,1-1,2.08,4.46,4.46,0,0,1-2.83.9A4.81,4.81,0,0,1,16,25a1.34,1.34,0,0,0-.83-.58A1.49,1.49,0,0,0,14.8,24.35Z"/></svg>