<svg id="Layer_1" data-name="Layer 1" xmlns="http://www.w3.org/2000/svg" viewBox="0 0 39.27 39.32"><defs><style>.cls-1{fill:#52db78;}</style></defs><title>Artboard 21</title><path class="cls-1" d="M19.63.23A19.43,19.43,0,1,0,39.06,19.66,19.45,19.45,0,0,0,19.63.23ZM36.9,20.73a17.4,17.4,0,0,1-2.2,7.44H28.49a27.5,27.5,0,0,0,1.29-7.43Zm0-2.14H29.78a27.12,27.12,0,0,0-1.29-7.43H34.7A17.09,17.09,0,0,1,36.9,18.59ZM20.7,28.17V20.73h7a25.47,25.47,0,0,1-1.41,7.44Zm12.57,2.15A17.34,17.34,0,0,1,24,36.39a24.54,24.54,0,0,0,3.68-6.07ZM20.7,9V2.54A20.87,20.87,0,0,1,25.36,9ZM24,2.92A17.36,17.36,0,0,1,33.27,9H27.69A24.42,24.42,0,0,0,24,2.92ZM20.7,11.15h5.54a25.47,25.47,0,0,1,1.41,7.44H20.7Zm4.66,19.17a20.82,20.82,0,0,1-4.66,6.45V30.32Zm-6.79,0v6.45a20.66,20.66,0,0,1-4.66-6.45Zm-7,0a24.54,24.54,0,0,0,3.68,6.07A17.34,17.34,0,0,1,6,30.32Zm7-9.59v7.44H13a25.47,25.47,0,0,1-1.41-7.44Zm-7-2.14A25.41,25.41,0,0,1,13,11.15h5.54v7.44ZM6,9a17.36,17.36,0,0,1,9.26-6.08A24.42,24.42,0,0,0,11.58,9Zm7.91,0a20.82,20.82,0,0,1,4.66-6.46V9Zm-3.13,2.16a27.5,27.5,0,0,0-1.29,7.43H2.37a17.09,17.09,0,0,1,2.2-7.44ZM9.49,20.73a27.12,27.12,0,0,0,1.29,7.43H4.57a17.36,17.36,0,0,1-2.2-7.44Z"/></svg>