<svg id="Layer_1" data-name="Layer 1" xmlns="http://www.w3.org/2000/svg" viewBox="0 0 32.66 44.28"><defs><style>.cls-1{fill:#52db78;}</style></defs><title>Artboard 20</title><path class="cls-1" d="M16.33,43.87a4.22,4.22,0,0,1-3.45-1.81C8.15,35.25.2,22.87.2,16.54a16.13,16.13,0,0,1,32.26,0c0,6.33-7.95,18.71-12.68,25.52A4.22,4.22,0,0,1,16.33,43.87Zm0-41.21A13.9,13.9,0,0,0,2.45,16.54c0,4.17,4.48,13,12.28,24.24a1.94,1.94,0,0,0,3.2,0c7.8-11.23,12.28-20.06,12.28-24.24A13.9,13.9,0,0,0,16.33,2.66Zm0,20.9a7,7,0,1,1,7-7A7,7,0,0,1,16.33,23.56Zm0-11.79a4.77,4.77,0,1,0,4.77,4.77A4.78,4.78,0,0,0,16.33,11.77Z"/></svg>