<svg id="Layer_1" data-name="Layer 1" xmlns="http://www.w3.org/2000/svg" viewBox="0 0 276 80"><defs><style>.cls-1{fill:#e30613;}.cls-2{fill:#fff;}.cls-3{fill:#1d1d1b;}.cls-4{fill:#706f6f;}</style></defs><title>Artboard 1 copy 2</title><path class="cls-1" d="M76,39.13A37.23,37.23,0,1,0,38.72,76.35,37.23,37.23,0,0,0,76,39.13"/><path class="cls-2" d="M50.15,20c-7.93-.41-19.29,7.23-16.49,21.88-4.14.24-4.73-1.24-5.57-4.74-.73-3-.47-10.75-.45-12,.12-.5,2.24-.22,1.93-1.27-.39-1.28-2.2-.45-2.24-.93-.08-.93,2.47-.54,1.89-2-.81-2.06-2.55.77-2.89-.23-.16-.81,2.7-1.39,1.15-2.93-1.08-1.08-4.4,0-4.2,3.43a8,8,0,0,1,.19,1.9,11.1,11.1,0,0,1-2.9.18s1.56.9,2.26,1.43c-4.74,2.58-2.3,6.64,0,3.15-1.52,3.22-6.75,11.18-6.26,18a17,17,0,0,0,.5,3.05L17.69,51a39.8,39.8,0,0,0,1.78,4A7.86,7.86,0,0,1,25,51.42c4.38-.74,9.8.12,18.33.37h1.88A7,7,0,0,0,45.74,49c0-4.06-4.35-6.37-4.34-6.37,5.46-1.38,9.46,4.33,6.61,13.78a3.47,3.47,0,0,0,.42.9c1.3-2,3.22-7.17,3.22-9.41,0,0,1.83-10.51-8.91-12.13,11.52-4.05,12.9,8.37,9.89,15.94h2.3c5.14-11.91,2.5-23.5-10-23.45,14.79-5,19.6,13.35,12.91,23.4h2.91c2-2.59,4.34-10.64,4.34-13.78,0,0,2-16.94-14.91-17.82"/><path class="cls-1" d="M113.54,36.7a12.87,12.87,0,0,1-5,1,17.92,17.92,0,0,1-7.22-1.4,15.48,15.48,0,0,1-5.41-3.84,17.11,17.11,0,0,1-3.38-5.75,21.19,21.19,0,0,1-1.17-7.12,21.91,21.91,0,0,1,1.17-7.27,17.47,17.47,0,0,1,3.38-5.85,15.42,15.42,0,0,1,5.41-3.92,17.59,17.59,0,0,1,7.22-1.42,16.94,16.94,0,0,1,5.21.81,15,15,0,0,1,4.56,2.37,12.88,12.88,0,0,1,5,9.16h-7.35a7.35,7.35,0,0,0-2.64-4.41,7.7,7.7,0,0,0-4.75-1.47,9,9,0,0,0-4.41,1,8.32,8.32,0,0,0-2.93,2.69,11.74,11.74,0,0,0-1.64,3.84A19.3,19.3,0,0,0,99,19.64a17.91,17.91,0,0,0,.52,4.28,11.53,11.53,0,0,0,1.64,3.75,8.52,8.52,0,0,0,2.93,2.66,9,9,0,0,0,4.41,1,8.34,8.34,0,0,0,5.9-1.94,8.38,8.38,0,0,0,2.42-5.6h-7.73V18.07h14.68V37h-4.89l-.78-4A11.58,11.58,0,0,1,113.54,36.7Z"/><path class="cls-1" d="M128.52,7.74V2h6.95V7.74Zm6.95,3.92V37h-6.95V11.66Z"/><path class="cls-1" d="M146.63,11.66v4.7h.1a8.69,8.69,0,0,1,1.32-2.18A8.92,8.92,0,0,1,150,12.46a9.53,9.53,0,0,1,2.3-1.1,8.39,8.39,0,0,1,2.55-.39,5.23,5.23,0,0,1,1.52.25v6.46c-.33-.07-.72-.12-1.18-.17a12.28,12.28,0,0,0-1.32-.08,7.47,7.47,0,0,0-3.23.64,5.53,5.53,0,0,0-2.13,1.74,6.93,6.93,0,0,0-1.15,2.57,13.91,13.91,0,0,0-.34,3.18V37H140V11.66Z"/><path class="cls-1" d="M157.4,18.83a11.6,11.6,0,0,1,6.76-6.9,14.36,14.36,0,0,1,5.38-1,14.56,14.56,0,0,1,5.41,1,11.64,11.64,0,0,1,4.14,2.69,11.87,11.87,0,0,1,2.64,4.21,15.54,15.54,0,0,1,.93,5.51,15.33,15.33,0,0,1-.93,5.48A11.83,11.83,0,0,1,179.09,34,11.46,11.46,0,0,1,175,36.67a15,15,0,0,1-5.41.93,14.78,14.78,0,0,1-5.38-.93A11.51,11.51,0,0,1,160.05,34a11.72,11.72,0,0,1-2.65-4.18,15.33,15.33,0,0,1-.93-5.48A15.54,15.54,0,0,1,157.4,18.83Zm6.32,8.47a7.77,7.77,0,0,0,1,2.59,5.29,5.29,0,0,0,1.89,1.84,5.7,5.7,0,0,0,2.93.68,5.88,5.88,0,0,0,3-.68,5.32,5.32,0,0,0,1.9-1.84,7.78,7.78,0,0,0,1-2.59,15.24,15.24,0,0,0,.29-3,15.7,15.7,0,0,0-.29-3,7.54,7.54,0,0,0-1-2.59,5.58,5.58,0,0,0-1.9-1.84,5.78,5.78,0,0,0-3-.71,5.35,5.35,0,0,0-4.82,2.55,7.53,7.53,0,0,0-1,2.59,14.94,14.94,0,0,0-.3,3A14.5,14.5,0,0,0,163.72,27.3Z"/><path class="cls-3" d="M190.45,11.66v3.72h.1A9.85,9.85,0,0,1,203,12.05a5.47,5.47,0,0,1,2.69,3.33A8.84,8.84,0,0,1,209,12.2a9.44,9.44,0,0,1,4.57-1.13,13,13,0,0,1,3.45.42,7.21,7.21,0,0,1,2.65,1.29,6,6,0,0,1,1.71,2.28,8.28,8.28,0,0,1,.61,3.35V37h-4.16V20.37a11.78,11.78,0,0,0-.19-2.2,4.49,4.49,0,0,0-.74-1.79,3.81,3.81,0,0,0-1.49-1.2,6,6,0,0,0-2.47-.44,6.56,6.56,0,0,0-4.85,1.76,6.38,6.38,0,0,0-1.76,4.7V37H202.2V20.37a11.22,11.22,0,0,0-.22-2.25,4.83,4.83,0,0,0-.76-1.79,3.59,3.59,0,0,0-1.45-1.17,5.53,5.53,0,0,0-2.32-.42,6.2,6.2,0,0,0-3.11.74,7,7,0,0,0-3.28,3.89,5.84,5.84,0,0,0-.37,1.83V37h-4.16V11.66Z"/><path class="cls-3" d="M245.28,35.35a11.49,11.49,0,0,1-7.15,2.15,13,13,0,0,1-5.26-1,10.38,10.38,0,0,1-3.75-2.75,11.63,11.63,0,0,1-2.28-4.21,20.29,20.29,0,0,1-.85-5.33,15.17,15.17,0,0,1,.88-5.29,12.73,12.73,0,0,1,2.47-4.16,11.26,11.26,0,0,1,3.77-2.74,11.53,11.53,0,0,1,4.77-1,10.39,10.39,0,0,1,5.61,1.39A11.21,11.21,0,0,1,247.06,16a14,14,0,0,1,1.86,4.7,20.11,20.11,0,0,1,.42,4.85h-19a10,10,0,0,0,.4,3.16,7,7,0,0,0,3.91,4.48,8.71,8.71,0,0,0,3.57.68,7.26,7.26,0,0,0,4.34-1.22,6,6,0,0,0,2.23-3.72H249A10.15,10.15,0,0,1,245.28,35.35Zm-1-16.25a7.06,7.06,0,0,0-1.52-2.28,7.49,7.49,0,0,0-8-1.52,6.67,6.67,0,0,0-2.23,1.55A7.4,7.4,0,0,0,231,19.12a8.82,8.82,0,0,0-.64,2.77h14.54A8.26,8.26,0,0,0,244.27,19.1Z"/><path class="cls-3" d="M250.71,11.66H256l6.07,8.86,6.32-8.86h5l-8.71,11.65L274.5,37h-5.34l-7.05-10.48-7,10.48h-5l9.5-13.32Z"/><path class="cls-4" d="M98.69,47h3.13V57.44h-2v-7c0-.2,0-.48,0-.85v-.84l-2,8.73H95.72l-2-8.73v.84c0,.37,0,.65,0,.85v7h-2V47h3.17l1.89,8.19Z"/><path class="cls-4" d="M111.55,56.52a5.41,5.41,0,0,1-6.82,0,5.63,5.63,0,0,1-1.58-4.29,5.54,5.54,0,0,1,1.58-4.3,5.41,5.41,0,0,1,6.82,0,5.54,5.54,0,0,1,1.58,4.3A5.63,5.63,0,0,1,111.55,56.52Zm-1.35-1.58a4.31,4.31,0,0,0,.75-2.71,4.29,4.29,0,0,0-.75-2.71,2.49,2.49,0,0,0-2.06-1,2.52,2.52,0,0,0-2.06.95,4.26,4.26,0,0,0-.77,2.72,4.24,4.24,0,0,0,.77,2.71,2.71,2.71,0,0,0,4.12,0Z"/><path class="cls-4" d="M114.48,47h2.28l4.13,7.26V47h2V57.44h-2.18l-4.23-7.38v7.38h-2Z"/><path class="cls-4" d="M132.37,48.88h-5.51v2.21h5.06V52.9h-5.06v2.67h5.76v1.87h-7.89V47h7.64Z"/><path class="cls-4" d="M140,47h2.47L139,53.54v3.9h-2.18v-3.9L133.19,47h2.56l2.16,4.54Z"/><path class="cls-4" d="M154.46,47v1.85h-3.11v8.56h-2.19V48.88H146V47Z"/><path class="cls-4" d="M162.13,47.3a2.71,2.71,0,0,1,1,.73,3.24,3.24,0,0,1,.52.88,2.86,2.86,0,0,1,.19,1.09,3.13,3.13,0,0,1-.37,1.46,2,2,0,0,1-1.24,1,2,2,0,0,1,1,.83,3.38,3.38,0,0,1,.3,1.62v.7a5,5,0,0,0,.06,1,.85.85,0,0,0,.4.59v.26h-2.4c-.07-.23-.11-.41-.14-.55a4.5,4.5,0,0,1-.09-.9l0-1a2,2,0,0,0-.34-1.33,1.76,1.76,0,0,0-1.24-.33h-2.12v4.08h-2.13V47h5A4.75,4.75,0,0,1,162.13,47.3Zm-4.49,1.54v2.8H160a2.51,2.51,0,0,0,1-.17,1.18,1.18,0,0,0,.62-1.17A1.3,1.3,0,0,0,161,49a2,2,0,0,0-1-.19Z"/><path class="cls-4" d="M168.59,47h2.46l3.69,10.41h-2.36l-.69-2.14h-3.83l-.71,2.14h-2.27Zm-.14,6.48h2.67l-1.32-4.1Z"/><path class="cls-4" d="M175.74,47H178l4.13,7.26V47h2V57.44H182l-4.24-7.38v7.38h-2Z"/><path class="cls-4" d="M187.5,54.23a2.13,2.13,0,0,0,.39,1.07,2.31,2.31,0,0,0,1.86.64,4,4,0,0,0,1.27-.17,1.22,1.22,0,0,0,.93-1.21.87.87,0,0,0-.45-.79,4.81,4.81,0,0,0-1.45-.49L188.92,53a6.93,6.93,0,0,1-2.28-.8,2.54,2.54,0,0,1-1-2.25,3,3,0,0,1,1-2.32,4.37,4.37,0,0,1,3-.93,4.68,4.68,0,0,1,2.85.87,3.12,3.12,0,0,1,1.23,2.53h-2.09a1.49,1.49,0,0,0-.84-1.33,3,3,0,0,0-1.3-.26,2.42,2.42,0,0,0-1.37.34,1.05,1.05,0,0,0-.52.94.9.9,0,0,0,.51.84,6.9,6.9,0,0,0,1.38.43l1.83.43a4.61,4.61,0,0,1,1.8.76,2.52,2.52,0,0,1,.93,2.12,3,3,0,0,1-1.1,2.37,4.67,4.67,0,0,1-3.12.94,5.07,5.07,0,0,1-3.23-.93,3,3,0,0,1-1.18-2.55Z"/><path class="cls-4" d="M195.3,47.05h7.42v1.83h-5.26v2.39h4.61v1.81h-4.61v4.36H195.3Z"/><path class="cls-4" d="M211.56,48.88h-5.51v2.21h5.06V52.9h-5.06v2.67h5.76v1.87h-7.88V47h7.63Z"/><path class="cls-4" d="M219.91,47.3a2.68,2.68,0,0,1,1,.73,3.24,3.24,0,0,1,.52.88,2.86,2.86,0,0,1,.2,1.09,3.15,3.15,0,0,1-.38,1.46,2.05,2.05,0,0,1-1.23,1,2,2,0,0,1,1,.83,3.38,3.38,0,0,1,.3,1.62v.7a6.47,6.47,0,0,0,.05,1,.86.86,0,0,0,.41.59v.26h-2.4c-.07-.23-.12-.41-.15-.55a6.69,6.69,0,0,1-.09-.9V55a2,2,0,0,0-.35-1.33,1.76,1.76,0,0,0-1.24-.33h-2.12v4.08h-2.13V47h5A4.86,4.86,0,0,1,219.91,47.3Zm-4.5,1.54v2.8h2.34a2.57,2.57,0,0,0,1.05-.17,1.17,1.17,0,0,0,.61-1.17,1.3,1.3,0,0,0-.59-1.27,2.08,2.08,0,0,0-1-.19Z"/><path class="cls-4" d="M94.82,67.86h1.3l3.08,8.49H97.94l-.86-2.54H93.72l-.92,2.54H91.62Zm1.89,5-1.29-3.75-1.37,3.75Z"/><path class="cls-4" d="M102.91,74.41a1.46,1.46,0,0,0,.27.8,1.69,1.69,0,0,0,1.39.5,2.08,2.08,0,0,0,1-.25.84.84,0,0,0,.45-.78.67.67,0,0,0-.36-.61,4.87,4.87,0,0,0-.91-.29l-.84-.21a4.13,4.13,0,0,1-1.18-.44,1.29,1.29,0,0,1-.68-1.16,1.79,1.79,0,0,1,.64-1.43,2.57,2.57,0,0,1,1.72-.54,2.41,2.41,0,0,1,2,.82,1.83,1.83,0,0,1,.38,1.12h-1a1.22,1.22,0,0,0-.25-.64,1.67,1.67,0,0,0-1.27-.4,1.58,1.58,0,0,0-.92.22.72.72,0,0,0-.31.59.74.74,0,0,0,.41.65,2.62,2.62,0,0,0,.7.25l.7.17a5.42,5.42,0,0,1,1.53.53,1.38,1.38,0,0,1,.6,1.25,1.91,1.91,0,0,1-.63,1.43,2.72,2.72,0,0,1-1.93.6,2.58,2.58,0,0,1-2-.63,2.36,2.36,0,0,1-.63-1.55Z"/><path class="cls-4" d="M111.81,70.33a2.38,2.38,0,0,1,.93.8,2.81,2.81,0,0,1,.42,1.1,7.28,7.28,0,0,1,.09,1.36h-4.5a2.7,2.7,0,0,0,.44,1.51,1.48,1.48,0,0,0,1.28.57,1.63,1.63,0,0,0,1.29-.53,1.83,1.83,0,0,0,.38-.73h1a1.89,1.89,0,0,1-.27.76,2.66,2.66,0,0,1-.5.68,2.47,2.47,0,0,1-1.17.63,3.61,3.61,0,0,1-.84.09,2.58,2.58,0,0,1-1.95-.84,3.3,3.3,0,0,1-.8-2.35,3.57,3.57,0,0,1,.81-2.43,2.63,2.63,0,0,1,2.1-.93A2.87,2.87,0,0,1,111.81,70.33Zm.37,2.43a2.73,2.73,0,0,0-.29-1.08,1.5,1.5,0,0,0-1.42-.75,1.55,1.55,0,0,0-1.19.52,2,2,0,0,0-.51,1.31Z"/><path class="cls-4" d="M114.36,70.16h1v1.07a2.4,2.4,0,0,1,.59-.76A1.55,1.55,0,0,1,117,70h.09l.24,0v1.1l-.17,0H117a1.49,1.49,0,0,0-1.21.51,1.74,1.74,0,0,0-.42,1.16v3.56h-1Z"/><path class="cls-4" d="M118.55,70.16l1.65,5,1.72-5h1.14l-2.33,6.19h-1.11l-2.28-6.19Z"/><path class="cls-4" d="M123.73,67.86h1.06V69h-1.06Zm0,2.33h1.06v6.16h-1.06Z"/><path class="cls-4" d="M130.21,70.49a2.43,2.43,0,0,1,.79,1.75h-1a1.94,1.94,0,0,0-.43-.95,1.33,1.33,0,0,0-1.05-.38,1.48,1.48,0,0,0-1.43,1,4,4,0,0,0-.27,1.56A2.91,2.91,0,0,0,127.2,75a1.53,1.53,0,0,0,2.26.24,2.12,2.12,0,0,0,.53-1.08h1a2.75,2.75,0,0,1-.87,1.8,2.69,2.69,0,0,1-1.77.57,2.35,2.35,0,0,1-1.94-.89,3.39,3.39,0,0,1-.72-2.21,3.73,3.73,0,0,1,.79-2.54,2.58,2.58,0,0,1,2-.91A2.71,2.71,0,0,1,130.21,70.49Z"/><path class="cls-4" d="M135.63,70.33a2.41,2.41,0,0,1,.94.8,2.65,2.65,0,0,1,.41,1.1,6.34,6.34,0,0,1,.1,1.36h-4.51A2.63,2.63,0,0,0,133,75.1a1.46,1.46,0,0,0,1.27.57,1.63,1.63,0,0,0,1.29-.53,2,2,0,0,0,.39-.73h1a2.25,2.25,0,0,1-.27.76,2.47,2.47,0,0,1-.51.68,2.39,2.39,0,0,1-1.16.63,3.63,3.63,0,0,1-.85.09,2.57,2.57,0,0,1-1.94-.84,3.3,3.3,0,0,1-.8-2.35,3.61,3.61,0,0,1,.8-2.43,2.66,2.66,0,0,1,2.11-.93A2.86,2.86,0,0,1,135.63,70.33Zm.38,2.43a2.73,2.73,0,0,0-.29-1.08,1.51,1.51,0,0,0-1.42-.75,1.55,1.55,0,0,0-1.19.52,2,2,0,0,0-.51,1.31Z"/><path class="cls-4" d="M145.7,70.78a3.1,3.1,0,0,1,.82,2.34,4,4,0,0,1-.72,2.47,2.58,2.58,0,0,1-2.24,1,2.55,2.55,0,0,1-2-.86,3.47,3.47,0,0,1-.74-2.32,3.7,3.7,0,0,1,.78-2.48A2.64,2.64,0,0,1,143.7,70,2.75,2.75,0,0,1,145.7,70.78Zm-.64,4.11a4,4,0,0,0,.38-1.74,3.08,3.08,0,0,0-.28-1.41,1.54,1.54,0,0,0-1.49-.85,1.46,1.46,0,0,0-1.37.73,3.34,3.34,0,0,0-.43,1.75A2.94,2.94,0,0,0,142.3,75a1.48,1.48,0,0,0,1.36.65A1.41,1.41,0,0,0,145.06,74.89Z"/><path class="cls-4" d="M148.05,68.27a1.6,1.6,0,0,1,1.4-.53h.44v.95h-.37c-.32,0-.51.09-.57.25a4.77,4.77,0,0,0-.1,1.25h1V71h-1v5.34h-1V71H147v-.82h.87v-1A1.87,1.87,0,0,1,148.05,68.27Z"/><path class="cls-4" d="M160.82,69.08a4.69,4.69,0,0,1,.85,2.88,5.06,5.06,0,0,1-1,3.16,3.81,3.81,0,0,1-3.23,1.48,3.87,3.87,0,0,1-3.08-1.29,4.9,4.9,0,0,1-1-3.16,5,5,0,0,1,.86-3,3.71,3.71,0,0,1,3.24-1.57A3.87,3.87,0,0,1,160.82,69.08Zm-1,5.41a4.7,4.7,0,0,0,.68-2.51,3.54,3.54,0,0,0-.79-2.41,2.66,2.66,0,0,0-2.14-.92,2.81,2.81,0,0,0-2.15.91,3.83,3.83,0,0,0-.83,2.67,3.89,3.89,0,0,0,.72,2.38,2.68,2.68,0,0,0,2.31,1A2.41,2.41,0,0,0,159.81,74.49Z"/><path class="cls-4" d="M162.67,70.16h1V71a3.7,3.7,0,0,1,.67-.66,2,2,0,0,1,1.17-.36,1.86,1.86,0,0,1,1.19.37,1.91,1.91,0,0,1,.46.61,2.21,2.21,0,0,1,.82-.74,2.26,2.26,0,0,1,1.05-.24,1.71,1.71,0,0,1,1.7.91,2.93,2.93,0,0,1,.24,1.3v4.12h-1.08v-4.3a1,1,0,0,0-.31-.85,1.27,1.27,0,0,0-.76-.23,1.51,1.51,0,0,0-1,.41,1.83,1.83,0,0,0-.44,1.37v3.6H166.3v-4a2.13,2.13,0,0,0-.15-.92.91.91,0,0,0-.88-.43,1.53,1.53,0,0,0-1.08.46,2.23,2.23,0,0,0-.48,1.65v3.28h-1Z"/><path class="cls-4" d="M172.29,70.16h1V71a2.77,2.77,0,0,1,.93-.78A2.45,2.45,0,0,1,175.3,70a1.81,1.81,0,0,1,1.78.92,3.28,3.28,0,0,1,.26,1.44v4h-1.06v-3.9a2.11,2.11,0,0,0-.17-.91,1,1,0,0,0-1-.58,1.77,1.77,0,0,0-.61.08,1.58,1.58,0,0,0-.75.5,1.6,1.6,0,0,0-.34.64,4.31,4.31,0,0,0-.08.93v3.24h-1Z"/><path class="cls-4" d="M182.46,70.33a2.49,2.49,0,0,1,.94.8,3,3,0,0,1,.41,1.1,7.28,7.28,0,0,1,.09,1.36h-4.5a2.7,2.7,0,0,0,.44,1.51,1.48,1.48,0,0,0,1.28.57,1.63,1.63,0,0,0,1.29-.53,1.83,1.83,0,0,0,.38-.73h1a2.25,2.25,0,0,1-.27.76,2.94,2.94,0,0,1-.51.68,2.43,2.43,0,0,1-1.17.63,3.61,3.61,0,0,1-.84.09,2.6,2.6,0,0,1-1.95-.84,3.29,3.29,0,0,1-.79-2.35,3.56,3.56,0,0,1,.8-2.43,2.65,2.65,0,0,1,2.1-.93A2.87,2.87,0,0,1,182.46,70.33Zm.37,2.43a2.73,2.73,0,0,0-.29-1.08,1.49,1.49,0,0,0-1.42-.75,1.55,1.55,0,0,0-1.19.52,2,2,0,0,0-.51,1.31Z"/><path class="cls-4" d="M184.39,70.16h1.35l1.42,2.18,1.44-2.18,1.27,0-2.09,3L190,76.35h-1.33L187.09,74l-1.49,2.32h-1.32l2.18-3.17Z"/><path class="cls-4" d="M199.53,68.11a3,3,0,0,1,1.52,2.32h-1.13a2.06,2.06,0,0,0-.85-1.35,2.86,2.86,0,0,0-1.61-.43,2.49,2.49,0,0,0-1.94.89,3.83,3.83,0,0,0-.79,2.63,4.26,4.26,0,0,0,.65,2.47,2.39,2.39,0,0,0,2.12,1,2.68,2.68,0,0,0,1.87-.67,2.82,2.82,0,0,0,.75-2.16h-2.65v-1h3.72v4.54h-.74l-.27-1.09a4.63,4.63,0,0,1-1,.89,3.83,3.83,0,0,1-1.89.43,3.69,3.69,0,0,1-2.56-1,4.71,4.71,0,0,1-1.16-3.36,4.84,4.84,0,0,1,1.14-3.39,3.56,3.56,0,0,1,2.8-1.21A4.27,4.27,0,0,1,199.53,68.11Z"/><path class="cls-4" d="M202.75,70.16h1v1.07a2.26,2.26,0,0,1,.59-.76,1.55,1.55,0,0,1,1.09-.45h.1l.24,0v1.1l-.17,0h-.17a1.47,1.47,0,0,0-1.21.51,1.74,1.74,0,0,0-.42,1.16v3.56h-1Z"/><path class="cls-4" d="M210.91,70.78a3.14,3.14,0,0,1,.82,2.34,4,4,0,0,1-.73,2.47,2.58,2.58,0,0,1-2.24,1,2.53,2.53,0,0,1-2-.86,3.42,3.42,0,0,1-.75-2.32,3.66,3.66,0,0,1,.79-2.48A2.62,2.62,0,0,1,208.9,70,2.79,2.79,0,0,1,210.91,70.78Zm-.65,4.11a4,4,0,0,0,.38-1.74,3.22,3.22,0,0,0-.27-1.41,1.56,1.56,0,0,0-1.5-.85,1.46,1.46,0,0,0-1.37.73,3.34,3.34,0,0,0-.43,1.75A2.94,2.94,0,0,0,207.5,75a1.49,1.49,0,0,0,1.36.65A1.41,1.41,0,0,0,210.26,74.89Z"/><path class="cls-4" d="M213.81,70.16v4.11a1.91,1.91,0,0,0,.14.78,1,1,0,0,0,1,.55,1.41,1.41,0,0,0,1.44-1,3.92,3.92,0,0,0,.21-1.43v-3h1v6.19h-1v-.91a2.17,2.17,0,0,1-.49.59,2.13,2.13,0,0,1-1.42.49,1.82,1.82,0,0,1-1.77-.89,2.63,2.63,0,0,1-.26-1.26V70.16Z"/><path class="cls-4" d="M219,70.19h1V71a2.47,2.47,0,0,1,.69-.65A2.2,2.2,0,0,1,222,70a2.33,2.33,0,0,1,1.79.81,3.29,3.29,0,0,1,.73,2.3A3.52,3.52,0,0,1,223.43,76a2.39,2.39,0,0,1-1.57.55,2.06,2.06,0,0,1-1.17-.31,2.37,2.37,0,0,1-.62-.59v3.16h-1ZM222.94,75a2.89,2.89,0,0,0,.48-1.82,3.45,3.45,0,0,0-.21-1.27,1.58,1.58,0,0,0-3,.06,4.3,4.3,0,0,0-.21,1.46,3.14,3.14,0,0,0,.21,1.22,1.58,1.58,0,0,0,2.7.35Z"/><path class="cls-4" d="M225.68,77.56a.73.73,0,0,0,.56-.56,1.49,1.49,0,0,0,.08-.5v-.08s0,0,0-.07h-.63V75.09h1.23v1.17a2.6,2.6,0,0,1-.27,1.21,1.3,1.3,0,0,1-1,.64Z"/><path class="cls-4" d="M232,67.86h1.16v8.49H232Z"/><path class="cls-4" d="M234.65,70.16h1V71a2.89,2.89,0,0,1,.94-.78,2.42,2.42,0,0,1,1.09-.24,1.81,1.81,0,0,1,1.78.92,3.29,3.29,0,0,1,.25,1.44v4h-1.06v-3.9a2.12,2.12,0,0,0-.16-.91,1,1,0,0,0-1-.58,1.77,1.77,0,0,0-.61.08,1.58,1.58,0,0,0-.75.5,1.73,1.73,0,0,0-.34.64,4.43,4.43,0,0,0-.07.93v3.24h-1Z"/><path class="cls-4" d="M245.08,70.49a2.43,2.43,0,0,1,.79,1.75h-1a1.84,1.84,0,0,0-.42-.95,1.36,1.36,0,0,0-1.06-.38,1.47,1.47,0,0,0-1.42,1,3.79,3.79,0,0,0-.28,1.56,2.91,2.91,0,0,0,.39,1.56,1.36,1.36,0,0,0,1.24.63,1.39,1.39,0,0,0,1-.39,2.19,2.19,0,0,0,.52-1.08h1A2.75,2.75,0,0,1,245,76a2.69,2.69,0,0,1-1.77.57,2.35,2.35,0,0,1-1.94-.89,3.39,3.39,0,0,1-.72-2.21,3.73,3.73,0,0,1,.79-2.54,2.58,2.58,0,0,1,2-.91A2.69,2.69,0,0,1,245.08,70.49Z"/></svg>