<svg id="Layer_1" data-name="Layer 1" xmlns="http://www.w3.org/2000/svg" viewBox="0 0 122.07 22.65"><defs><style>.cls-1{fill:#fff;}.cls-2{fill:#5fa82c;}</style></defs><title>Artboard 5 copy</title><path class="cls-1" d="M22.15,10.58a9.92,9.92,0,1,0-9.92,9.91,9.92,9.92,0,0,0,9.92-9.91"/><path class="cls-2" d="M22.85,11.32A11.14,11.14,0,1,0,11.71,22.47,11.14,11.14,0,0,0,22.85,11.32"/><path class="cls-1" d="M8.88,18.2h.69l1.3-3.57a4.84,4.84,0,0,1-.61-.22Z"/><path class="cls-1" d="M13.88,4.45,12.5,8.25c.22,0,.44,0,.65.09l1.41-3.89Z"/><path class="cls-1" d="M8.09,11.35c0-3.07,1.62-5.56,3.63-5.56,1.71,0,2.57.43,3.85.43a9.26,9.26,0,0,0,2.57-.43L15.57,8.35c-.85.43-2.14-.63-3.86-.63a3.64,3.64,0,0,0-3.64,3.64"/><path class="cls-1" d="M5,17.87l1-1-.68.21s-.34.13-.34.81"/><path class="cls-1" d="M15.36,11.36c0,3.07-1.63,5.56-3.64,5.56-1.71,0-2.57-.43-3.85-.43a9.35,9.35,0,0,0-2.57.43l2.57-2.57c.86-.42,2.14.64,3.86.64a3.64,3.64,0,0,0,3.64-3.64"/><path class="cls-1" d="M8.66,11.26a2.41,2.41,0,0,1,.07-.53,3.66,3.66,0,0,1,.13-.44H9s.05,0,.06,0l.12-.44s0-.06.06-.07a.11.11,0,0,0,.08-.11s0-.05.05-.06a.38.38,0,0,0,.15-.09s0,0,0,0,0,0,.07,0,0,0,0,0,0,0,0,0l.16-.06s0,0,0-.05,0,0,0,0,.07-.06.12,0h0c.09,0,.2,0,.24-.15h0s.07,0,.08,0,0,0,0,0h0s0,0,0,0A.11.11,0,0,0,10.57,9s-.05,0-.05,0a.32.32,0,0,1,.11-.23s0,0,0,0a.25.25,0,0,0,0,.07c0,.07,0,.09,0,.15,0-.1,0-.1,0-.14s.11,0,.14-.06,0,0,0,0a.15.15,0,0,1,0,.07c0,.05.06.08.11.06s0,0,0,0,.07,0,.11,0,0,0,0,0a.22.22,0,0,0-.07-.2s0-.05,0-.08a.08.08,0,0,1,.08,0h.09c.1,0,.1,0,.09-.13s0-.08.08-.08a.35.35,0,0,0,.14,0s.05,0,.07,0,0,0,0,0,.06-.08.11-.06,0,0,0,0a2.81,2.81,0,0,1,.29,0s0,0,0,0,0,.11-.06.13,0,0,0,0,0,0,0,0a.1.1,0,0,1-.07.07l-.08,0s0,0,0,0,0,.07.07.05h0c.06,0,.14,0,.2,0s0,0,0,0a.46.46,0,0,1,.23.16s0,0,0,0a.47.47,0,0,1,.22.09s.06,0,.1,0a.08.08,0,0,1,.09.09s0,.05.06.05a.2.2,0,0,1,.14.06h0c.05-.05.12-.05.19-.07l0-.06V9h0s.05,0,.05.09,0,.09.09.11h0s0,0,0,0,.1.09.16.12a.25.25,0,0,0,.11,0s.1.1.1.13,0,0,0,0a.13.13,0,0,0,.12.05.15.15,0,0,1,.09,0c.06.06.14.08.19.16l0-.05s0,0,.09,0a.57.57,0,0,0,.16.11h0l0,0h0l.08.13s0,.08-.05.1-.07,0-.08,0,0,0,0,.08,0,0,0,0l-.14.12s0,0,0,0a.22.22,0,0,1-.1-.19s0-.06-.08-.07,0,0-.05.06,0,0,0,.06l0,0s-.08,0-.12,0,0,.06,0,.1,0,.07-.07.06-.08,0-.12,0a.1.1,0,0,1-.13,0l-.05-.08s0,0,0,0a.43.43,0,0,1-.14.16l-.11.09s-.07.07-.06.12.05.12.14.13h.08s0,0,0,.05a1.41,1.41,0,0,0-.06.22.21.21,0,0,1,0,.12.06.06,0,0,0,0,0,.25.25,0,0,1-.08.17s-.05.07-.09.07a.21.21,0,0,0-.18.13s0,0,0,0,0,0,0,0v.06s0,0,0,0,0,0,0,0,0-.07-.07-.06h0l.06-.09h0l-.27.12a.05.05,0,0,0,0,.09l0,0s0,0,0,.05,0,.07,0,.1,0,0,0,0,0,.12,0,.17v0s0,.07-.08.09a.17.17,0,0,0-.11.12.09.09,0,0,1-.06.06.11.11,0,0,0-.09.06.11.11,0,0,1-.12,0c-.06,0-.13,0-.19,0h0a.94.94,0,0,0-.06.15c0,.06,0,.1.05.15a.11.11,0,0,1,0,.15s-.07,0-.1,0h0a.34.34,0,0,0-.18-.13c-.05,0-.06-.06-.05-.11l-.08,0s0-.06,0-.09a.77.77,0,0,0-.1-.18.14.14,0,0,0-.19,0s0,.06-.08.06-.06,0-.05.07,0,0,0,0a1,1,0,0,0-.21.14,0,0,0,0,0,0,0v.13s0,0-.06.07,0,0,0,0-.11-.12-.11-.2v0s0-.05,0-.08a.08.08,0,0,0,0-.08.29.29,0,0,1,0-.16v-.1l-.1.14a.36.36,0,0,1-.07-.1.1.1,0,0,0-.08-.06.8.8,0,0,0-.3-.06c-.08,0-.08,0-.08-.09s0-.07-.07,0l-.07,0c-.05,0-.07,0-.08,0s-.05-.11-.08-.16,0,0,0,0H9.53s-.06,0-.09.06,0,0,0,.05a.47.47,0,0,1,.08.26s0,0,0,0,.06,0,.08,0a.18.18,0,0,0,.1,0,.24.24,0,0,1,.16.07.06.06,0,0,1,0,.1.1.1,0,0,0,0,.1s0,0,0,0a.24.24,0,0,0-.16,0s-.1,0-.13.05-.08,0-.11,0a.11.11,0,0,1-.05-.09.22.22,0,0,0-.11-.18.09.09,0,0,1,0-.07.28.28,0,0,0-.09-.18A.26.26,0,0,1,9.09,12a.41.41,0,0,1,0-.11.45.45,0,0,1,0-.16l.06-.14c-.09,0-.18,0-.27,0l0,0h0a.08.08,0,0,1,0-.13l0,0a0,0,0,0,1,.05,0h.28a.09.09,0,0,0,.1,0,.09.09,0,0,0,0-.11l-.06,0s0,0,0,0,0-.11,0-.17,0,0,0,0S9,10.9,9,11s0,0,0,0,0,0-.05,0l0,0c-.06,0-.08,0-.1.06a.42.42,0,0,0-.06.14.08.08,0,0,1-.05.07m.82.2s0,0,0,0a.25.25,0,0,0,.1.18.16.16,0,0,0,.15,0s.05-.09.1-.12,0,0,0,0l-.08-.06s0,0,0-.06a.07.07,0,0,0,0-.11l0,0s-.08-.06,0-.1h0c0-.07,0-.15,0-.22s-.13-.06-.16,0a.61.61,0,0,0-.12.16s0,0,0,.06.07.05.06.1a0,0,0,0,0,0,0c.05.09.05.09,0,.17"/><path class="cls-1" d="M8.69,11.84a.22.22,0,0,0,.14,0,0,0,0,0,1,0,0s0,.07.08.08S9,12,9,12a.19.19,0,0,0,.07.12.22.22,0,0,1,.05.12.21.21,0,0,0,.05.13c.08.11.13.22.21.32a.46.46,0,0,0,.32.2s0,0,.07,0a.15.15,0,0,1-.05.07.24.24,0,0,0-.06.11.08.08,0,0,1-.07.09.21.21,0,0,0-.13.1s0,.07-.05.09-.07-.07-.1-.11A3.2,3.2,0,0,1,8.71,12a.77.77,0,0,1,0-.15"/><path class="cls-1" d="M9.09,9.81s0,0,0,0L9,10.16s0,.06-.07.05h0a2.93,2.93,0,0,1,.19-.4"/><path class="cls-1" d="M9.25,9.57a.1.1,0,0,1-.08.12l.08-.12"/><polyline class="cls-1" points="9.1 9.79 9.1 9.8 9.1 9.79"/><path class="cls-1" d="M14.42,11.45h.43s0,0,0,0a3.07,3.07,0,0,1-.37,1.39s0,0,0,0a3,3,0,0,0-.65-.25s0,0,0-.05a4.56,4.56,0,0,0,.15-1.1s0-.05.06-.05h.42"/><path class="cls-1" d="M13,11.85h.07a.11.11,0,0,1,.15,0s0,0,0,0a.09.09,0,0,1,.11-.07s0,0,0,0a.16.16,0,0,1,.06-.08.06.06,0,0,0,0-.05s0-.09,0-.13,0,0,.05,0h.23s0,0,0,0a4.62,4.62,0,0,1-.11.91,1.21,1.21,0,0,1-.05.18s0,0,0,0a5.35,5.35,0,0,0-.8-.14s0,0,0,0,0-.31,0-.46a.16.16,0,0,1,.08-.08s0,0,0,0A.14.14,0,0,0,13,12s0,0,.06,0,0,0,0,0,0-.07,0-.09L13,11.85"/><path class="cls-1" d="M14,11.33c0-.11,0-.23,0-.35s0,0,0,0,.1,0,.13-.08a1.14,1.14,0,0,0,.1-.19.28.28,0,0,0,0-.2v-.07l.06.07a.24.24,0,0,1,0-.08s.06,0,.09,0,0,0,0,0a.22.22,0,0,1,.26-.07l0,0a3,3,0,0,1,.18.78,1.7,1.7,0,0,1,0,.22Z"/><path class="cls-1" d="M14.46,13a3.54,3.54,0,0,1-.32.44,3.16,3.16,0,0,1-.42.4.05.05,0,0,1-.08,0l-.31-.13s0,0,0-.05l.15-.24a3.81,3.81,0,0,0,.27-.66s0,0,0,0a3.81,3.81,0,0,1,.64.24l0,0"/><path class="cls-1" d="M10.53,12.58s0,0,0,0a.11.11,0,0,0,0,.12s0,.06,0,.08a1.14,1.14,0,0,0,.15.23.18.18,0,0,0,.12,0s0,0,0,.05l0,.07s0,0,0,0,0,0,0,0l.06.21s0,0,0,0a3.3,3.3,0,0,0-.52.13s0,0-.05,0a3.11,3.11,0,0,1-.38-.75c0-.05,0-.1-.05-.15s0,0,0,0l.58-.11"/><path class="cls-1" d="M12.7,13.4l.15,0a.17.17,0,0,0,.14,0c-.05.12.06.07.1.1s-.05.07-.13.06l-.3-.07s0,0,0,0a1.24,1.24,0,0,0,0-.16.12.12,0,0,1,.05-.07l.07-.06h0c-.07,0-.07,0-.06-.06s0-.08.06-.14,0-.08,0-.12,0-.19.05-.28,0,0,0,0c.25,0,.51.08.76.14,0,0,.05,0,0,.06s-.13.33-.2.49-.08,0-.11.09h0l0,0a.16.16,0,0,0-.15,0,.12.12,0,0,1-.08,0h0l0,0c-.05,0-.05,0-.06,0s0,0-.06,0a.14.14,0,0,0-.12.1l-.05.08"/><path class="cls-1" d="M11.43,12.85h.07c0,.06.06,0,.09,0v0a.66.66,0,0,0,0,.14.15.15,0,0,0,.05.14s0,0,0,0,0,0,0,0,0,0,0,0,0,0-.06-.06h0l-.15.12c.07,0,.13,0,.18,0s.1.07.09.14a4.93,4.93,0,0,0-.54.05s0,0,0,0,0-.1,0-.15,0-.05,0-.1,0-.1,0-.15h0s0,0-.05-.06,0-.13,0-.19a.08.08,0,0,1,0-.05.64.64,0,0,1,.2-.11s0,0,0-.05,0,0,0,0,0-.05.09-.05a.06.06,0,0,1,.06,0,.31.31,0,0,1,.07.24.22.22,0,0,0,0,.08"/><path class="cls-1" d="M11.76,14.08c0,.12,0,.25,0,.37s0,.05-.06,0a.6.6,0,0,1-.25-.2,2,2,0,0,1-.35-.67s0,0,0,0a4.91,4.91,0,0,1,.55,0s0,0,0,0l0,0a.29.29,0,0,1,0,.16c0,.1,0,.21,0,.31"/><path class="cls-1" d="M12.79,14.35s0,0,0,0,0,0,0,0,0,0-.07,0,0,0-.06,0a.17.17,0,0,0-.12,0h-.05s-.1,0-.14.07a.35.35,0,0,1-.2.07.6.6,0,0,1,0-.23.13.13,0,0,1,.07-.09l.17-.08a.43.43,0,0,0,.1-.09.11.11,0,0,1,.09-.06.2.2,0,0,0,.14-.08.21.21,0,0,1,.13,0c0,.07,0,.06.07.08s.12,0,.17-.05,0,0,0,0,0,0,0,0,0,0,0,.05,0,0,0,.06a.32.32,0,0,1-.05.19c0,.08-.12.14-.17.22a.09.09,0,0,1-.1.05l-.06,0h0"/><path class="cls-1" d="M12.65,12.75l0,0a.1.1,0,0,0-.07-.14h0a.27.27,0,0,0-.11.19,0,0,0,0,0,0,.06s.07.08.13,0,0,0,.06,0,0,.09,0,.09-.12.08-.17.14h0c0-.08,0-.08-.14,0a.28.28,0,0,0-.1.09.25.25,0,0,1-.19.12s0,0,0,0v0c0,.1,0,.1-.11.09a0,0,0,0,1,0,0,.13.13,0,0,1,.07-.14s-.05,0-.06,0,0-.12,0-.19h0a.78.78,0,0,0,.2-.11l0,0a.28.28,0,0,0-.05-.23s0-.05,0-.09a.09.09,0,0,1,.13,0c.06,0,.12,0,.18,0a.68.68,0,0,1,.28,0s.05,0,.08,0,0,0,0,0l0,.21s0,0,0,0h0"/><path class="cls-1" d="M9.56,12.81l.25-.08s0,0,0,0a3.37,3.37,0,0,0,.43.92s0,0,0,0l-.25.1s-.08,0-.11,0v0c0-.06,0-.06-.11,0s0,0,0,0l-.28-.27a.06.06,0,0,1,0-.06.18.18,0,0,1,.16-.13s0,0,0,0,.05-.09.05-.14,0,0,0,0a.23.23,0,0,0,.08-.18s0,0,0,0-.08,0-.13,0a.11.11,0,0,1-.1,0"/><path class="cls-1" d="M11.48,14.45l-.12,0a2,2,0,0,1-.86-.62c-.05-.07-.05-.07,0-.1l.42-.1s0,0,.06,0a2.7,2.7,0,0,0,.24.55,1.32,1.32,0,0,0,.22.26"/><path class="cls-1" d="M13.57,11.22s0,0,0,0a4,4,0,0,0,0-.49c0-.05-.05-.08-.07-.13h0c-.05,0-.11,0-.17,0s-.05,0-.06,0,0,0,0-.06l.21-.17s.07,0,.05.12.11,0,.17-.07,0,0,0,0a2.29,2.29,0,0,1,.07.36,5.29,5.29,0,0,1,0,.56s0,.06-.06,0h-.24s0-.09,0-.14"/><path class="cls-1" d="M11.94,14.24a.26.26,0,0,1,.05.17.14.14,0,0,1-.12.08s0,0,0,0v-.72s0-.05,0-.05,0-.09,0-.12l0,0H12s0,0,0,0,0,.06,0,.07h0c-.05,0,0,0,0,.06s0,0,0,0l.19,0h0s0-.07,0-.09l-.07-.06c.06,0,.07,0,.15,0l0-.06c0,.06,0,.1,0,.15l.1-.07s0,0,0,0a1.05,1.05,0,0,1,.11-.07.67.67,0,0,1-.16.3.59.59,0,0,1-.22.12.16.16,0,0,0-.09.11.14.14,0,0,1-.07.11h0"/><path class="cls-1" d="M11.08,14.41A2.94,2.94,0,0,1,10,13.92a2.44,2.44,0,0,1,.34-.14s0,0,.05,0a2.31,2.31,0,0,0,.56.52l.13.08"/><path class="cls-1" d="M10,12.6c0-.07,0-.11,0-.16s0-.07,0-.11,0,0,0,0a1,1,0,0,1,.23,0,.08.08,0,0,1,0,0l0,0c0,.07,0,.07,0,.09L10,12.6"/><path class="cls-1" d="M13,11.77l0-.09s-.05-.07,0-.1,0-.05,0-.07a.09.09,0,0,1,.1-.06h.2s0,0,0,0a.31.31,0,0,0,0,.08s-.06.06-.09.08h0c0-.06-.05,0-.07,0l-.13.12"/><path class="cls-1" d="M12.46,12.42c.06,0,.07-.05.08-.09a.14.14,0,0,1,.08-.09.32.32,0,0,0,.12-.14,0,0,0,0,0,0,0,.8.8,0,0,1-.05-.21v0s0,0,0,0,0,0,.05,0a.09.09,0,0,1,0,0s0,0,0,0,0,0,0,0,.05,0,0,0,0,.08-.05.09,0,0,0,0,0,.06,0,.11,0,.27,0,.4,0,0,0,0-.06,0,0,0,0-.05,0-.08,0,0,0,0h0s-.06,0-.06,0v0c0,.07,0,.07-.12.05"/><path class="cls-1" d="M13.6,13.92a2.82,2.82,0,0,1-.44.26.11.11,0,0,1,0-.08.4.4,0,0,0,.09-.17s0,0,0,0,0-.06,0-.09,0,0,0,0l.28.12"/><path class="cls-1" d="M13.43,11.36h-.16a1.19,1.19,0,0,0,.2-.51.54.54,0,0,1,0,.18h0c0,.09,0,.1.06.15a.09.09,0,0,1,0,.08s-.07,0-.05.09"/><path class="cls-1" d="M13.91,10.76c0-.12-.05-.24-.07-.35s0,0,0,0l.1,0s0,0,0,0,0-.07,0-.12a.52.52,0,0,1,.11.08s0,0,0,0a.55.55,0,0,0-.12.21.66.66,0,0,0,0,.14.12.12,0,0,1,0,.1"/><path class="cls-1" d="M8.77,11.34l0,0c.05-.06.05-.13.08-.19s0-.05.07-.05a.09.09,0,0,0,0,.12s.08,0,.11,0,.08.07.11.12H8.89c-.06,0-.11,0-.12.07"/><path class="cls-1" d="M14.13,10.37a.21.21,0,0,0,0,.11.37.37,0,0,1-.08.29.18.18,0,0,1-.05.07s0-.05,0-.07a.21.21,0,0,0,0-.13.27.27,0,0,1,.11-.27"/><path class="cls-1" d="M9,11.67a.22.22,0,0,0,0,.14c-.05-.06-.1-.05-.16,0s-.1,0-.11-.08v-.11s0,0,0,0,.07.07.12,0h.06s.05,0,.09,0"/><path class="cls-1" d="M12.33,13.19s0,.08,0,.11,0,0,0,0-.08.07-.09.12a.14.14,0,0,1-.11,0h0c0-.05,0-.05-.05-.07a.82.82,0,0,0,.25-.21"/><path class="cls-1" d="M14,11.33h.94s0,0,0,0H14s0,0,0,0"/><path class="cls-1" d="M13.24,13.39s-.09,0-.1,0,0,0,0,0,0,0,0,0,0-.08-.06-.08a.18.18,0,0,1,.21,0"/><path class="cls-1" d="M12.59,13.63s0,0,0,0l.13,0c-.07,0-.12.09-.2.11s0-.05,0-.07,0,0,0,0"/><path class="cls-1" d="M12.45,13.28v0s0,0,0,0,.05-.06.1-.06,0,0,0,0,0,.07,0,.07-.08,0-.1,0"/><path class="cls-1" d="M13.21,13.65a.07.07,0,0,0,0-.06l0-.05s.06,0,.06,0,.06.08,0,.16"/><path class="cls-1" d="M14.66,10.24l-.1-.14s.08.05.1.14"/><path class="cls-1" d="M9.57,12a1.3,1.3,0,0,0,.08.17s0,0,0,0h0c0-.06,0-.11-.07-.17h0"/><path class="cls-1" d="M12.59,13.63s0,0,0,0h-.05s.05,0,.07,0"/><path class="cls-1" d="M9.07,11s0,0,0,.06l0-.06"/><path class="cls-1" d="M9.27,12.45a.11.11,0,0,1,.05.08s-.05,0-.05-.08Z"/><path class="cls-1" d="M13.2,13.66h0"/><path class="cls-1" d="M12.8,14.35h0s0,0,0,0h0"/><path class="cls-1" d="M9.27,12.45h0Z"/><path class="cls-1" d="M12.66,12.76h0"/><path class="cls-1" d="M13.45,9.05l.2-.09a.06.06,0,0,1,.06,0,3.35,3.35,0,0,1,.56.57c-.06,0-.06,0-.09,0l0-.08,0,0s0,0,0,0a.27.27,0,0,0-.15,0s0,0,0,0a.05.05,0,0,0,0,0,.39.39,0,0,1-.08-.1s-.05-.08-.12-.06l-.06,0a1.37,1.37,0,0,1-.18-.16"/><path class="cls-1" d="M12.23,8.38a1.92,1.92,0,0,1,.58.32c.11.1.2.21.3.32s0,0,0,0,0,0,0,0L13,9a0,0,0,0,0-.06,0s0,0,0,0a.53.53,0,0,0-.26-.27h0c-.07,0-.13,0-.19,0l.07.11a.06.06,0,0,1,0,0,.47.47,0,0,0-.15-.13.64.64,0,0,1-.1-.13s0,0,0-.08"/><path class="cls-1" d="M13.27,8.69a1.61,1.61,0,0,1,.33.2L13.4,9h0s-.06,0-.08-.06h0c-.12,0-.17,0-.23-.12a.22.22,0,0,0,.21,0s0,0,0-.07h0"/><path class="cls-1" d="M12.94,8.71a1.88,1.88,0,0,0-.43-.31.58.58,0,0,1,.19,0l.24.09s.05,0,0,.07a.81.81,0,0,0,0,.11"/><path class="cls-1" d="M12.73,8.91l-.06-.1s0,0,0,0h0s0,0,0,0,0,0,0,0,0,0,0,.07"/><polyline class="cls-1" points="13.27 8.69 13.26 8.68 13.27 8.69 13.27 8.69"/><path class="cls-1" d="M11.08,8.4c-.14.07-.25.2-.41.23a.21.21,0,0,0-.14.1.81.81,0,0,0-.1.21c0,.07-.06.1-.14.07l0,0s-.06,0-.05-.06,0,0,0,0-.05-.07,0-.1a3.07,3.07,0,0,1,.89-.38h0"/><path class="cls-1" d="M9.74,9.31s0-.05,0-.06l-.11,0A3.22,3.22,0,0,1,9.88,9s0,0,0,0S10,9,10.09,9s.08,0,.12.05a.16.16,0,0,1-.19.1h0a.55.55,0,0,0-.21.12s0,0,0,0"/><path class="cls-1" d="M11.08,8.51a.55.55,0,0,1,.15-.08s0,0,0,0,0,0,0,.05h-.17"/><path class="cls-1" d="M11.06,8.53a.64.64,0,0,1-.08.14h0c-.05-.06-.05-.06,0-.11l.07,0h0"/><path class="cls-1" d="M10.06,8.92l-.06,0c.05,0,.05,0,.07,0h0"/><path class="cls-1" d="M10.91,8.68s0,0,0,0,0,0,0,0,0,0,0,.06"/><path class="cls-1" d="M10.07,8.91h0"/><path class="cls-1" d="M9.58,11.19l0,0s0-.06,0-.09a0,0,0,0,0,0,0s0,0,.06,0,0,0,0,.06a.1.1,0,0,1-.06.13"/><path class="cls-1" d="M9.65,11.58s0-.09,0-.14a.15.15,0,0,1,0,.14"/><path class="cls-1" d="M9.61,11.28s.05,0,0,.06,0,0,0,0,0,0,0,0a.07.07,0,0,0,0-.06h0"/><path class="cls-1" d="M9.6,11.28h0"/><path class="cls-1" d="M30.56,6v8.53h5.1v1.94H28.25V6Z"/><path class="cls-1" d="M38.68,14.65a1.9,1.9,0,0,0,1.35.46,1.87,1.87,0,0,0,1.09-.32,1.32,1.32,0,0,0,.56-.67h1.83a3.44,3.44,0,0,1-1.35,2,4,4,0,0,1-2.2.59,4.32,4.32,0,0,1-1.61-.29,3.34,3.34,0,0,1-1.22-.81,3.65,3.65,0,0,1-.77-1.26,4.67,4.67,0,0,1-.27-1.62,4.34,4.34,0,0,1,.28-1.58,3.68,3.68,0,0,1,.79-1.27A3.6,3.6,0,0,1,38.38,9,3.87,3.87,0,0,1,40,8.68a3.6,3.6,0,0,1,1.69.37,3.4,3.4,0,0,1,1.18,1,4.14,4.14,0,0,1,.67,1.44,5.49,5.49,0,0,1,.14,1.68H38.17A2.12,2.12,0,0,0,38.68,14.65Zm2.36-4a1.48,1.48,0,0,0-1.14-.41,1.86,1.86,0,0,0-.83.17,1.46,1.46,0,0,0-.52.42,1.33,1.33,0,0,0-.28.52,2.2,2.2,0,0,0-.1.5h3.39A2.43,2.43,0,0,0,41,10.66Z"/><path class="cls-1" d="M55,16.34a5.09,5.09,0,0,1-3.93-.07,4.83,4.83,0,0,1-1.57-1.16,5.1,5.1,0,0,1-1-1.69,5.81,5.81,0,0,1-.34-2,7.46,7.46,0,0,1,.32-2.18,5.29,5.29,0,0,1,.94-1.81A4.5,4.5,0,0,1,51,6.21a4.83,4.83,0,0,1,2.18-.46,6.32,6.32,0,0,1,1.6.19,4,4,0,0,1,1.35.63,3.58,3.58,0,0,1,1,1.08,4.22,4.22,0,0,1,.55,1.57H56.29a2.86,2.86,0,0,0-.38-1,2.46,2.46,0,0,0-.69-.71,3,3,0,0,0-.93-.42,4.44,4.44,0,0,0-1.11-.14,3.15,3.15,0,0,0-2.75,1.39,4.38,4.38,0,0,0-.64,1.42,6.39,6.39,0,0,0-.21,1.63,5.17,5.17,0,0,0,.24,1.58,4.25,4.25,0,0,0,.69,1.34,3.46,3.46,0,0,0,1.12.92,3.34,3.34,0,0,0,1.55.35,3.64,3.64,0,0,0,1.45-.27,3,3,0,0,0,1.06-.72,3.1,3.1,0,0,0,.66-1.09,3.69,3.69,0,0,0,.19-1.34H53.19V11h4.59v5.52H56.9l-.36-1.31A3.38,3.38,0,0,1,55,16.34Z"/><path class="cls-1" d="M58.93,12.68a5.3,5.3,0,0,1,.23-1.56,3.55,3.55,0,0,1,.71-1.26A3.18,3.18,0,0,1,61,9,4.21,4.21,0,0,1,64.2,9a3.36,3.36,0,0,1,1.2.89,2,2,0,0,0,.86-.26L66,8.93l1.44-.6L68,9.75l-1.34.56a4.92,4.92,0,0,1-.83.26,4.72,4.72,0,0,1,.24.56,5.37,5.37,0,0,1,0,3.11,3.43,3.43,0,0,1-.71,1.25,3.15,3.15,0,0,1-1.15.84,4.34,4.34,0,0,1-3.17,0,3.18,3.18,0,0,1-1.16-.84,3.43,3.43,0,0,1-.71-1.25A5.2,5.2,0,0,1,58.93,12.68Zm1.32,0a3.82,3.82,0,0,0,.18,1.22,2.42,2.42,0,0,0,.51.89,2.28,2.28,0,0,0,2.59.55,2.15,2.15,0,0,0,.75-.55,2.42,2.42,0,0,0,.51-.89A3.82,3.82,0,0,0,65,12.68a3.78,3.78,0,0,0-.18-1.22,2.46,2.46,0,0,0-.51-.9,2.05,2.05,0,0,0-.75-.56,2.32,2.32,0,0,0-1.84,0,2.14,2.14,0,0,0-.75.56,2.46,2.46,0,0,0-.51.9A3.78,3.78,0,0,0,60.25,12.68Zm2.58-5h-.7V6.79a1.47,1.47,0,0,0,.78-.25.61.61,0,0,0,.27-.5c0-.35-.3-.53-.91-.53l-.28,0-.27,0,0-.67.3-.06.36,0a2.55,2.55,0,0,1,1.21.26A.9.9,0,0,1,64,6a.89.89,0,0,1-.34.74,2.08,2.08,0,0,1-.82.39Z"/><path class="cls-1" d="M68.74,7.52V6H70V7.52ZM70,8.89v7.58H68.74V8.89Z"/><path class="cls-1" d="M74.52,7.17V6H82.9V7.17H79.41v9.3H78V7.17Z"/><path class="cls-1" d="M83.62,7.52V6h1.25V7.52Zm1.25,1.37v7.58H83.62V8.89Z"/><path class="cls-1" d="M91.88,16a3.44,3.44,0,0,1-2.14.64,4,4,0,0,1-1.58-.29A3.1,3.1,0,0,1,87,15.52a3.63,3.63,0,0,1-.69-1.27,6.08,6.08,0,0,1-.25-1.59,4.73,4.73,0,0,1,.26-1.59,3.91,3.91,0,0,1,.74-1.25,3.36,3.36,0,0,1,2.56-1.11,3.08,3.08,0,0,1,1.68.42,3.29,3.29,0,0,1,1.07,1.06A4.13,4.13,0,0,1,93,11.6a6.13,6.13,0,0,1,.12,1.45H87.42a3,3,0,0,0,.12.95,2,2,0,0,0,.42.79,2.21,2.21,0,0,0,.75.55,2.52,2.52,0,0,0,1.07.21,2.2,2.2,0,0,0,1.3-.37,1.8,1.8,0,0,0,.67-1.12H93A3.1,3.1,0,0,1,91.88,16Zm-.3-4.87a2.25,2.25,0,0,0-.46-.69,2.08,2.08,0,0,0-.67-.45,2.29,2.29,0,0,0-1.73,0,1.86,1.86,0,0,0-.67.46,2.21,2.21,0,0,0-.44.68,2.58,2.58,0,0,0-.19.83h4.35A2.58,2.58,0,0,0,91.58,11.12ZM88.94,5.45l-1.49,2.1h1.11l1-1.41,1,1.41h1.23l-1.52-2.1Zm1.09-2,2,2.38H93L91.61,3.47Z"/><path class="cls-1" d="M95.54,8.89v1.2h0A2.63,2.63,0,0,1,98,8.71a3.48,3.48,0,0,1,1.25.2,2,2,0,0,1,1.23,1.45,4.36,4.36,0,0,1,.13,1.12v5H99.4V11.34A1.49,1.49,0,0,0,99,10.22a1.54,1.54,0,0,0-1.13-.41,2.5,2.5,0,0,0-1,.18,1.74,1.74,0,0,0-.69.49,2.09,2.09,0,0,0-.42.76,2.87,2.87,0,0,0-.14.95v4.28H94.37V8.89Z"/><path class="cls-1" d="M108.41,6v8.53h5.1v1.94h-7.4V6Z"/><path class="cls-1" d="M116.54,14.65a1.87,1.87,0,0,0,1.35.46,1.84,1.84,0,0,0,1.08-.32,1.32,1.32,0,0,0,.56-.67h1.83a3.44,3.44,0,0,1-1.35,2,4,4,0,0,1-2.2.59,4.35,4.35,0,0,1-1.61-.29,3.34,3.34,0,0,1-1.22-.81,3.65,3.65,0,0,1-.77-1.26,4.67,4.67,0,0,1-.27-1.62,4.34,4.34,0,0,1,.28-1.58A3.68,3.68,0,0,1,115,9.83,3.54,3.54,0,0,1,116.24,9a3.83,3.83,0,0,1,1.57-.31,3.6,3.6,0,0,1,1.69.37,3.4,3.4,0,0,1,1.18,1,4.14,4.14,0,0,1,.67,1.44,5.19,5.19,0,0,1,.14,1.68H116A2.07,2.07,0,0,0,116.54,14.65Zm2.35-4a1.48,1.48,0,0,0-1.14-.41,1.81,1.81,0,0,0-.82.17,1.5,1.5,0,0,0-.53.42,1.47,1.47,0,0,0-.28.52,2.2,2.2,0,0,0-.1.5h3.39A2.43,2.43,0,0,0,118.89,10.66Z"/><path class="cls-1" d="M70.2,18.59a.59.59,0,1,0-.59.59.59.59,0,0,0,.59-.59"/></svg>