<svg id="Layer_1" data-name="Layer 1" xmlns="http://www.w3.org/2000/svg" viewBox="0 0 278.54 52.43"><defs><style>.cls-1{fill:#5fa82c;}.cls-2{fill:#fff;}</style></defs><title>Artboard 1 copy 7</title><path class="cls-1" d="M50.27,24.5a22.7,22.7,0,1,0-22.7,22.7,22.71,22.71,0,0,0,22.7-22.7"/><path class="cls-2" d="M51.87,26.21a25.5,25.5,0,1,0-25.5,25.5,25.5,25.5,0,0,0,25.5-25.5"/><path class="cls-1" d="M19.9,41.94h1.57l3-8.17a9.49,9.49,0,0,1-1.39-.5Z"/><path class="cls-1" d="M31.33,10.48l-3.16,8.7a8.91,8.91,0,0,1,1.49.21l3.24-8.91Z"/><path class="cls-1" d="M18.08,26.27c0-7,3.72-12.73,8.32-12.73,3.92,0,5.88,1,8.82,1a21.34,21.34,0,0,0,5.87-1l-5.87,5.88c-2,1-4.9-1.45-8.85-1.45a8.33,8.33,0,0,0-8.32,8.32"/><path class="cls-2" d="M11.06,41.2l2.34-2.35-1.56.48s-.78.31-.78,1.87"/><path class="cls-1" d="M34.73,26.29C34.73,33.32,31,39,26.4,39c-3.92,0-5.88-1-8.81-1a21.36,21.36,0,0,0-5.88,1l5.88-5.87c2-1,4.89,1.45,8.84,1.45a8.32,8.32,0,0,0,8.32-8.33"/><path class="cls-1" d="M19.4,26.07a6.16,6.16,0,0,1,.15-1.21,8.38,8.38,0,0,1,.29-1l.35,0c.09,0,.11,0,.13-.1.1-.33.19-.66.28-1a.22.22,0,0,1,.14-.17.26.26,0,0,0,.19-.26c0-.07,0-.1.11-.13a.65.65,0,0,0,.34-.22s0,0,.06,0,.13,0,.16-.05.07,0,.07,0,0,0,.07,0l.38-.13c.07,0,.1,0,.07-.11s0-.11,0-.13.16-.12.27,0,0,0,.06,0c.21-.08.46-.1.56-.35,0,0,0,0,0,0a.13.13,0,0,1,.2,0c0,.05.06,0,.09,0s.1,0,.1,0,0-.07,0-.09a.26.26,0,0,0,.19-.22s-.13,0-.12-.07a.74.74,0,0,1,.25-.52s0-.05.08,0a.8.8,0,0,1-.08.16c-.1.16-.09.22.06.35.11-.22.11-.22,0-.32a.25.25,0,0,0,.33-.14c0-.1.08-.06.11,0a.8.8,0,0,1,.08.16.19.19,0,0,0,.26.15s.09,0,.11,0,.15.09.23.09.07,0,.08-.08a.61.61,0,0,0-.15-.47.13.13,0,0,1,0-.17c.05-.07.09-.1.17-.09a.51.51,0,0,0,.21,0c.23-.06.23-.06.22-.3s0-.19.17-.18a.91.91,0,0,0,.32-.06c.06,0,.12,0,.17,0s.06,0,.09,0,.13-.17.26-.13,0,0,0-.05c.22,0,.44,0,.65,0,0,0,0,.06.05.09.12.18.09.25-.12.31h-.05c-.06,0-.09,0-.1.09s-.07.12-.15.14a1.27,1.27,0,0,1-.18.06c-.05,0-.06,0-.05.09s0,.16.15.12h.11c.16,0,.33,0,.46-.1s.06,0,.09,0a1,1,0,0,1,.53.38.12.12,0,0,0,.1.06,1.15,1.15,0,0,1,.5.2c.07,0,.13.11.22.11s.21.06.21.2.06.11.14.12a.48.48,0,0,1,.33.13s0,0,.06,0a1.21,1.21,0,0,1,.44-.16L29.88,21s0,0,0,0a0,0,0,0,1,.05,0c.05.06.13.1.13.2s0,.2.2.25h.06s0-.08,0-.1.22.21.36.28.15.1.26.08a.46.46,0,0,1,.21.31.08.08,0,0,0,0,.08.31.31,0,0,0,.28.13.24.24,0,0,1,.2,0c.13.13.32.18.43.35l.06-.09c.08-.13.08-.13.2,0a1.21,1.21,0,0,0,.35.24h0s0,0,0,0h0l.18.3c0,.08,0,.18-.12.23s-.16,0-.18.09.07.12.1.18.05,0,0,.08l-.32.27s-.06,0-.09,0a.5.5,0,0,1-.22-.42c0-.13-.09-.15-.19-.16s-.07.08-.11.13,0,.09-.06.13l-.06-.05a.32.32,0,0,0-.27,0c-.1.05-.1.14-.08.23s0,.16-.14.14-.2-.06-.3,0a.21.21,0,0,1-.28-.07l-.12-.17c0-.06-.06,0-.07,0a.83.83,0,0,1-.31.36l-.27.22a.29.29,0,0,0-.12.27c.08.25.11.28.3.29h.19c.09,0,.1,0,.07.11a2.09,2.09,0,0,0-.13.49.44.44,0,0,1-.11.29.18.18,0,0,0,0,.1.59.59,0,0,1-.2.39c-.05.06-.11.14-.19.14a.48.48,0,0,0-.41.31s0,.09-.07.08-.09,0-.09.11a.71.71,0,0,1,0,.14s0,.07,0,.07,0-.05,0-.08,0-.17-.14-.15l0,0a2.39,2.39,0,0,0,.13-.21s0,0,0,0h0l-.62.27c-.1.05-.12.12,0,.21l.08.1c.05.05.06.08,0,.13s-.09.15,0,.22,0,.06,0,.09,0,.28.1.4a.06.06,0,0,1,0,0c-.06.07-.09.17-.18.2a.36.36,0,0,0-.24.28.19.19,0,0,1-.15.14c-.08,0-.17,0-.21.13a.22.22,0,0,1-.26.07c-.15-.09-.3,0-.44,0s0,0,0,0a1.35,1.35,0,0,0-.14.35c0,.13.06.22.11.33a.25.25,0,0,1-.07.35c-.07,0-.16,0-.22.1s0,0,0,0a.87.87,0,0,0-.43-.3c-.12,0-.14-.13-.11-.25l-.18.07a1.46,1.46,0,0,0,0-.22,3.18,3.18,0,0,0-.23-.4.32.32,0,0,0-.43-.08c-.07,0-.09.14-.17.16s-.15.05-.13.15,0,.05,0,.07a2.07,2.07,0,0,0-.48.31.14.14,0,0,0-.06.13c0,.1,0,.2,0,.3s-.08.11-.14.15-.07,0-.09-.07-.25-.27-.24-.46a.1.1,0,0,0,0-.07.14.14,0,0,1,0-.17.18.18,0,0,0,0-.19.61.61,0,0,1-.1-.37,2,2,0,0,0,0-.22l-.21.32a1.19,1.19,0,0,1-.16-.23.3.3,0,0,0-.18-.15,2.42,2.42,0,0,0-.71-.14c-.16,0-.16,0-.17-.19s0-.16-.17-.12A.52.52,0,0,0,22,28c-.09.06-.14,0-.18-.06s-.12-.24-.17-.37,0-.07-.09-.07a1.09,1.09,0,0,1-.18,0c-.09,0-.13.07-.18.12s0,.08,0,.12a1.06,1.06,0,0,1,.19.59c0,.06,0,.07.08.05s.13-.07.19,0a.35.35,0,0,0,.24.06.54.54,0,0,1,.35.16c.1.09.08.16,0,.23a.24.24,0,0,0-.08.22s0,.08-.05.07a.54.54,0,0,0-.37.08c-.1.05-.23,0-.32.11-.07-.07-.17,0-.23-.05a.26.26,0,0,1-.12-.2.59.59,0,0,0-.24-.42.18.18,0,0,1-.08-.15.64.64,0,0,0-.2-.41.61.61,0,0,1-.21-.33,2.13,2.13,0,0,1,0-.25.88.88,0,0,1,0-.36c.05-.1.09-.21.14-.32-.21-.06-.41,0-.61,0,0,0-.07,0-.11,0a.07.07,0,0,1-.08,0,.2.2,0,0,1,0-.31l.07-.07c0-.06.06-.07.12-.06.22,0,.43,0,.65,0a.24.24,0,0,0,.21-.14.17.17,0,0,0-.07-.23,1.5,1.5,0,0,0-.13-.11s-.06,0,0-.09a.73.73,0,0,0,.06-.38s0-.07,0-.06-.31-.05-.43.08,0,0-.08,0-.07,0-.11,0-.05.07-.1.06-.18.05-.23.14a1.24,1.24,0,0,0-.12.32.19.19,0,0,1-.11.16m1.86.45c0,.06.13,0,.13.12a.55.55,0,0,0,.23.42.34.34,0,0,0,.34,0c.09-.07.1-.21.22-.27s0,0,0-.05L22,26.6c-.06-.05-.08-.08,0-.14a.15.15,0,0,0,0-.25l-.12-.11c-.07-.06-.18-.12,0-.22v0c0-.16,0-.33-.06-.48a.27.27,0,0,0-.38-.05,1.46,1.46,0,0,0-.27.38c0,.06,0,.1,0,.14s.16.11.14.23a.14.14,0,0,0,0,.06c.11.21.11.21,0,.39"/><path class="cls-1" d="M19.46,27.39a.62.62,0,0,0,.33.07c.05,0,.05,0,.07.06s.08.17.18.21,0,.07.05.12a.5.5,0,0,0,.14.28.38.38,0,0,1,.12.27.52.52,0,0,0,.12.31c.17.23.31.49.49.71a1,1,0,0,0,.72.48c.06,0,.09-.06.17,0s-.06.13-.12.17a.38.38,0,0,0-.13.25c0,.09,0,.18-.17.21a.5.5,0,0,0-.29.23.53.53,0,0,1-.13.2c-.11-.05-.16-.16-.23-.26a7.08,7.08,0,0,1-1.27-2.92c0-.12,0-.23-.05-.35"/><path class="cls-1" d="M20.38,22.74s0,.07,0,.1c-.07.24-.14.47-.19.7s-.07.14-.17.12h-.08a7.69,7.69,0,0,1,.45-.91"/><path class="cls-1" d="M20.73,22.21a.22.22,0,0,1-.17.26l.17-.26"/><path class="cls-1" d="M20.4,22.71v0"/><path class="cls-1" d="M32.58,26.49c.32,0,.65,0,1,0,.08,0,.1,0,.1.1a7.11,7.11,0,0,1-.86,3.19c0,.07-.06.06-.12,0a7.43,7.43,0,0,0-1.47-.56c-.07,0-.11,0-.08-.12a10.21,10.21,0,0,0,.35-2.52c0-.1,0-.12.12-.12.33,0,.65,0,1,0"/><path class="cls-1" d="M29.4,27.42h.15a.26.26,0,0,1,.34.06c0,.05.07,0,.08,0s.13-.16.26-.15.09,0,.11-.09a.41.41,0,0,1,.13-.19.11.11,0,0,0,.05-.1c0-.1,0-.2,0-.3s0-.11.1-.11a5,5,0,0,0,.55,0c.08,0,.1,0,.1.11A10.28,10.28,0,0,1,31,28.67c0,.14-.07.28-.1.42s0,.08-.1.06A14,14,0,0,0,29,28.83c-.05,0-.07,0-.06-.08,0-.35.07-.71.09-1.06,0-.06.15-.18.2-.18s0,0,0,0,0,.09,0,.14.05.12.13.09.09,0,.09-.05.05-.14,0-.21l-.12-.1"/><path class="cls-1" d="M31.49,26.24c0-.27,0-.54,0-.81,0-.06,0-.1.08-.08s.23,0,.3-.17a4.76,4.76,0,0,0,.24-.45.9.9,0,0,0,0-.46.71.71,0,0,1,0-.16,1.27,1.27,0,0,0,.14.17c0-.06,0-.12,0-.19.09.09.15,0,.21,0s0,0,.06-.06a.47.47,0,0,1,.58-.15.15.15,0,0,1,.1.09,6.94,6.94,0,0,1,.41,1.79,4.35,4.35,0,0,1,0,.51Z"/><path class="cls-1" d="M32.66,30a6.57,6.57,0,0,1-.73,1A7.11,7.11,0,0,1,31,32a.14.14,0,0,1-.17,0,4.76,4.76,0,0,0-.7-.3c-.1,0-.09-.06,0-.13a6.26,6.26,0,0,0,.34-.55A9,9,0,0,0,31,29.5c0-.05,0-.09.11-.07a7.85,7.85,0,0,1,1.46.56l.07,0"/><path class="cls-1" d="M23.68,29.09s0,.07,0,.09a.21.21,0,0,0,0,.27c.05.06,0,.14.05.2a3.61,3.61,0,0,0,.36.51.3.3,0,0,0,.27.07c.1,0,.1,0,.08.11a.75.75,0,0,1-.05.16c0,.06,0,.09.05.08a.09.09,0,0,1,.1.09c0,.16.09.32.13.49s0,.08-.06.1a8.16,8.16,0,0,0-1.18.3c-.08,0-.1,0-.12-.07a7.23,7.23,0,0,1-.88-1.73l-.11-.33s0-.07,0-.08a12,12,0,0,1,1.33-.26"/><path class="cls-1" d="M28.64,31a2.62,2.62,0,0,1,.33.09.35.35,0,0,0,.33,0c-.11.28.14.18.23.24-.11.17-.11.17-.29.12l-.7-.15c-.06,0-.08,0-.06-.1s.07-.24.1-.36a.23.23,0,0,1,.1-.16l.15-.13,0,0c-.16,0-.15,0-.12-.14s.11-.2.14-.32,0-.18,0-.28.07-.43.1-.64c0-.05,0-.1.1-.09.59.08,1.17.18,1.75.31.1,0,.1.06.07.14a9.63,9.63,0,0,1-.44,1.12c-.05.11-.18.13-.25.22s0,0-.05,0l-.1-.06a.34.34,0,0,0-.33-.11.17.17,0,0,1-.19,0,0,0,0,0,0-.08,0l-.07.06c-.11.09-.12.09-.15,0s-.05-.08-.12-.08a.33.33,0,0,0-.29.22l-.11.19"/><path class="cls-1" d="M25.72,29.7a.18.18,0,0,0,.11,0l.05,0c0,.13.15,0,.21.1s0,0,0,.06,0,.21,0,.32a.35.35,0,0,0,.12.32s0,0,0,.06,0,.08,0,.1,0,0-.07-.05-.1-.08-.15-.12a.06.06,0,0,0-.07,0l-.33.27c.15,0,.29,0,.41.05s.22.16.21.32A10.37,10.37,0,0,0,25,31.2c-.07,0-.09,0-.1-.08s-.07-.22-.09-.33-.06-.13,0-.23,0-.23,0-.35,0,0-.05,0-.11-.05-.12-.13a3.42,3.42,0,0,1,0-.45.11.11,0,0,1,.05-.09,1.53,1.53,0,0,1,.44-.27c.06,0,.1,0,.09-.11s0-.1.07-.1.13-.12.22-.12a.14.14,0,0,1,.13.07.73.73,0,0,1,.16.55.5.5,0,0,0,0,.17"/><path class="cls-1" d="M26.48,32.53c0,.27,0,.55,0,.83,0,.11,0,.12-.13.09a1.4,1.4,0,0,1-.58-.44A4.79,4.79,0,0,1,25,31.47c0-.06,0-.08.05-.09.41-.05.83-.09,1.24-.1.05,0,.09,0,.08.07a.1.1,0,0,0,0,.1.52.52,0,0,1,.09.36c0,.24,0,.48,0,.72"/><path class="cls-1" d="M28.84,33.13s0-.09,0-.1,0,0-.05-.05a.1.1,0,0,0-.17,0,.09.09,0,0,1-.13,0,.36.36,0,0,0-.27,0l-.12,0a.5.5,0,0,0-.31.15.69.69,0,0,1-.46.17,1.35,1.35,0,0,1,0-.53.26.26,0,0,1,.15-.2,2.93,2.93,0,0,0,.4-.19,1,1,0,0,0,.23-.22.26.26,0,0,1,.19-.12.56.56,0,0,0,.34-.18.42.42,0,0,1,.3-.13c-.07.16.08.16.16.2s.27.08.37-.13c0,0,0-.1.08-.09s0,.07,0,.12.05.09.09.11a.14.14,0,0,1,.07.14.73.73,0,0,1-.13.44c-.11.18-.26.32-.38.49a.24.24,0,0,1-.23.13c-.05,0-.08,0-.12,0l0,0"/><path class="cls-1" d="M28.52,29.47a.43.43,0,0,0,0-.07.22.22,0,0,0-.15-.31.05.05,0,0,0,0,0c-.12.13-.26.24-.27.44s0,.11.07.14.15.17.28.08.09,0,.14,0,0,.21-.08.21-.29.18-.4.32h0c-.12-.17-.12-.18-.31-.07a.72.72,0,0,0-.25.21.59.59,0,0,1-.44.28.06.06,0,0,0-.07.07v0c0,.23,0,.24-.26.22,0,0-.06,0-.07-.07a.31.31,0,0,1,.16-.32c0-.06-.12-.06-.13-.12a1.48,1.48,0,0,1,0-.42s0,0,0,0a1.24,1.24,0,0,0,.45-.25.18.18,0,0,0,0-.09.55.55,0,0,0-.1-.51.2.2,0,0,1,0-.21.2.2,0,0,1,.3-.1c.14.06.27,0,.41,0a1.74,1.74,0,0,1,.64,0c.07,0,.12,0,.2,0s.07,0,.06.09-.05.32-.07.48c-.05,0,0-.09-.1-.06l0,0"/><path class="cls-1" d="M21.45,29.61l.59-.18c.06,0,.07,0,.09.06a7.85,7.85,0,0,0,1,2.09c.05.06,0,.08,0,.1l-.57.23c-.13.06-.18,0-.26-.08l0-.06c-.09-.14-.09-.14-.24-.06a.08.08,0,0,1-.1,0,6,6,0,0,1-.62-.62.09.09,0,0,1,0-.12.46.46,0,0,1,.37-.3.09.09,0,0,0,.09-.08,1,1,0,0,0,.11-.31s.05-.06.07-.09a.54.54,0,0,0,.18-.42c0-.05,0-.08-.07-.08s-.19-.06-.3,0a.24.24,0,0,1-.24-.07"/><path class="cls-1" d="M25.84,33.38a.77.77,0,0,1-.28-.07,4.23,4.23,0,0,1-1.95-1.41c-.13-.16-.12-.16.07-.22s.65-.17,1-.23c.08,0,.11,0,.13.07a5.62,5.62,0,0,0,.56,1.25,3.12,3.12,0,0,0,.49.61"/><path class="cls-1" d="M30.64,26s.07,0,.07-.06c0-.37,0-.74,0-1.12,0-.11-.1-.19-.15-.28s0,0,0,0-.27,0-.4,0a.13.13,0,0,1-.14-.1c0-.06,0-.1.06-.14l.46-.38c0,.1.16.11.12.26.1-.15.26-.11.39-.16s.05,0,.06.07a8.28,8.28,0,0,1,.16.84c0,.42.09.84.1,1.27,0,.11,0,.13-.13.12h-.54a.22.22,0,0,0,0-.32"/><path class="cls-1" d="M26.91,32.9a.5.5,0,0,1,.1.38.33.33,0,0,1-.28.19c-.07,0-.05,0-.05-.08V31.75c0-.06,0-.12.07-.13s.06-.19,0-.26l0-.07h.32s.05,0,0,0,0,.14-.06.18l-.06,0c-.11,0-.08.07-.09.12s0,.09.09.1l.44.05s.06,0,.06,0,.06-.15,0-.21l-.17-.12c.13-.12.17-.12.35,0l.07-.13c0,.13,0,.23,0,.34l.22-.17s0,.05,0,.07.13-.13.24-.17a1.56,1.56,0,0,1-.35.69,2.22,2.22,0,0,1-.52.29.34.34,0,0,0-.2.25.27.27,0,0,1-.17.24s0,0-.05,0"/><path class="cls-1" d="M24.93,33.26a6.63,6.63,0,0,1-2.47-1.1c.26-.13.52-.23.78-.33.06,0,.08,0,.11.06a5.21,5.21,0,0,0,1.28,1.2l.3.17"/><path class="cls-1" d="M22.4,29.12a.52.52,0,0,1,.12-.36c.05-.08,0-.16,0-.24s0-.08.09-.08a1.87,1.87,0,0,1,.53.13.16.16,0,0,1,.09.07c0,.05.05.09.07.13s.11.16-.07.19l-.83.16"/><path class="cls-1" d="M29.42,27.23,29.3,27c-.05-.08-.11-.16,0-.23s.06-.1.08-.16a.21.21,0,0,1,.22-.15,3.53,3.53,0,0,0,.46,0c.07,0,.09,0,.07.08l-.06.19c0,.11-.11.13-.2.17h0c-.08-.13-.11,0-.15,0s-.2.18-.3.27"/><path class="cls-1" d="M28.09,28.72c.13,0,.15-.12.18-.21a.35.35,0,0,1,.18-.2c.14-.06.2-.21.28-.33a.11.11,0,0,0,0-.11,2.07,2.07,0,0,1-.12-.49,0,0,0,0,1,0,0s-.07-.05,0-.1.07,0,.12,0a.49.49,0,0,1,0-.12s0-.06.06-.06,0,0,0,.05.09,0,.08.11,0,.18-.12.2-.06.07,0,.09a.24.24,0,0,1,.1.26c0,.3-.05.6-.08.91,0,0,0,.09-.06.09s-.13,0-.07-.1,0-.11.07-.17,0-.08-.06-.07h-.11a.13.13,0,0,0-.15.1.05.05,0,0,1,0,0c-.08.17-.08.17-.27.12"/><path class="cls-1" d="M30.69,32.16a7.16,7.16,0,0,1-1,.6.26.26,0,0,1,.08-.2,1.48,1.48,0,0,0,.2-.37s0,0,0-.07,0-.13,0-.2,0-.06.09,0a5.92,5.92,0,0,1,.64.28"/><path class="cls-1" d="M30.31,26.3h-.38a2.44,2.44,0,0,0,.47-1.17,1.08,1.08,0,0,1,0,.4s0,0,0,0c-.07.19-.06.23.14.34a.27.27,0,0,1-.1.18c-.06,0-.16.1-.12.21"/><path class="cls-1" d="M31.4,24.93c0-.28-.1-.55-.16-.82,0-.05,0-.08.06-.08a.79.79,0,0,0,.22-.05c.05,0,.05,0,.05-.08a1.93,1.93,0,0,1,0-.27.71.71,0,0,1,.23.18s0,.06,0,.08a1,1,0,0,0-.28.48.86.86,0,0,0,0,.32.39.39,0,0,1-.06.24"/><path class="cls-1" d="M19.63,26.26s-.05-.05,0-.07.11-.29.17-.43.06-.12.17-.1a.2.2,0,0,0,.11.26c.09,0,.18,0,.27-.11,0,.14.16.18.25.28a.43.43,0,0,1-.16,0h-.49c-.14,0-.25,0-.29.17"/><path class="cls-1" d="M31.9,24a.82.82,0,0,0,0,.27.9.9,0,0,1-.17.67l-.11.15a.25.25,0,0,1,0-.17.45.45,0,0,0,0-.3A.65.65,0,0,1,31.9,24"/><path class="cls-1" d="M20.19,27a.66.66,0,0,0-.05.32.29.29,0,0,0-.36-.08.19.19,0,0,1-.25-.18,2,2,0,0,1,0-.25s0,0,.07.06a.17.17,0,0,0,.27.06s.09,0,.14,0,.11.09.2.06"/><path class="cls-1" d="M27.78,30.48c0,.1,0,.19.06.25s0,.05,0,.08a.9.9,0,0,0-.2.27c0,.05-.19.1-.24.08s0,0,0,0-.08-.12-.13-.17a1.47,1.47,0,0,0,.57-.48"/><path class="cls-1" d="M31.49,26.24h2.16c0,.09,0,.06-.09.06h-2c-.05,0-.09,0-.08-.06"/><path class="cls-1" d="M29.87,30.93c-.09,0-.19,0-.22.13s-.06,0-.1,0,0,0,0,0,0-.17-.14-.18a.46.46,0,0,1,.49.06"/><path class="cls-1" d="M28.38,31.49s0-.06.07,0l.3.06c-.17.06-.27.21-.45.23,0-.05.05-.1,0-.16s.1,0,0-.08"/><path class="cls-1" d="M28.07,30.7s0-.05,0-.06,0-.06,0-.1.13-.12.22-.13.1-.06.1,0,0,.15-.08.16-.18,0-.23.12"/><path class="cls-1" d="M29.81,31.53a.28.28,0,0,0,0-.13.52.52,0,0,1-.08-.11c.07,0,.14,0,.14-.12.14.12.14.19,0,.36"/><path class="cls-1" d="M33.11,23.73c-.08-.11-.14-.22-.22-.32.12,0,.2.12.22.32"/><path class="cls-1" d="M21.47,27.67l.19.39s0,0,0,0,0,0,0,0-.12-.26-.17-.39l0,0"/><path class="cls-1" d="M28.38,31.49c.06.07,0,.06,0,.08h-.12c.05-.06.12,0,.16-.07"/><path class="cls-1" d="M20.33,25.5c.1,0,.11,0,.05.14l-.05-.14"/><path class="cls-1" d="M20.79,28.79a.21.21,0,0,1,.1.18.39.39,0,0,1-.1-.19Z"/><path class="cls-1" d="M29.79,31.55h0s0,0,0,0h0"/><path class="cls-1" d="M28.86,33.15h0a0,0,0,0,1,0,0l0,0"/><path class="cls-1" d="M20.79,28.78h0s0,0,0,0Z"/><path class="cls-1" d="M28.54,29.49h0v0l0,0"/><path class="cls-1" d="M30.37,21l.45-.21a.11.11,0,0,1,.13,0,6.91,6.91,0,0,1,1.28,1.31c-.12.06-.14.06-.19,0a1.56,1.56,0,0,1-.14-.19,1,1,0,0,1,0,.1s0,.05-.05,0a.52.52,0,0,0-.36-.11s-.09,0-.05-.06,0-.06,0-.09l-.19-.21c-.07-.09-.12-.2-.27-.16a.19.19,0,0,1-.15-.06c-.12-.13-.29-.21-.39-.36"/><path class="cls-1" d="M27.56,19.47a4,4,0,0,1,1.32.75,4.7,4.7,0,0,1,.69.72s0,0,0,.06-.06,0-.08,0a2.09,2.09,0,0,1-.14-.17c0-.05-.08-.1-.16-.07s-.06,0-.07-.05a1.25,1.25,0,0,0-.61-.61h0c-.15.08-.29,0-.44,0l.18.23a.12.12,0,0,1-.12,0,1.43,1.43,0,0,0-.34-.31,1,1,0,0,1-.24-.3s.07-.09,0-.18"/><path class="cls-1" d="M30,20.18a5.4,5.4,0,0,1,.75.46l-.45.2s0,0-.05,0-.15-.05-.2-.12a.06.06,0,0,0-.07,0c-.26.1-.37-.08-.51-.26a.51.51,0,0,0,.48-.1c.07-.05.08-.08,0-.15h0"/><path class="cls-1" d="M29.19,20.22a5.15,5.15,0,0,0-1-.7,2,2,0,0,1,.42.1,5.27,5.27,0,0,1,.56.19c.09,0,.12.06.07.16a1.49,1.49,0,0,0-.07.25"/><path class="cls-1" d="M28.72,20.68a1.76,1.76,0,0,1-.14-.23s0,0,0-.06,0,0,.05,0,.06,0,0,.05,0,.08.06.1.09.1,0,.15"/><path class="cls-1" d="M29.94,20.19v0h0"/><path class="cls-1" d="M24.93,19.52c-.32.16-.57.45-.95.52a.58.58,0,0,0-.32.24,1.33,1.33,0,0,0-.21.47.23.23,0,0,1-.32.18L23,20.88c-.08,0-.13-.06-.1-.15a.09.09,0,0,0-.06-.11c-.1-.08-.1-.17,0-.23a7.06,7.06,0,0,1,2-.87h.05"/><path class="cls-1" d="M21.85,21.61c.08-.09,0-.13-.05-.14l-.25-.06a6.75,6.75,0,0,1,.63-.57s.07,0,.12,0a.48.48,0,0,0,.36.13c.09,0,.19.07.29.11a.39.39,0,0,1-.46.23.11.11,0,0,0-.08,0,1.11,1.11,0,0,0-.48.28.08.08,0,0,1-.08,0"/><path class="cls-1" d="M24.93,19.77a2.3,2.3,0,0,1,.34-.18c.05,0,.09,0,.1,0s0,.09-.05.11a1.21,1.21,0,0,1-.39,0"/><path class="cls-1" d="M24.89,19.81l-.18.34h0c-.12-.14-.12-.14,0-.25l.16-.1v0"/><path class="cls-1" d="M22.61,20.7l-.14-.05c.09-.1.1-.1.15.05h0"/><path class="cls-1" d="M24.54,20.16c-.05,0-.09,0-.09-.06s0-.05.08-.07,0,.08,0,.13"/><path class="cls-1" d="M22.62,20.7h0s0,0,0,0h0"/><path class="cls-1" d="M21.49,25.91a.14.14,0,0,0-.07-.1c-.09-.06-.08-.12,0-.19l.05-.06s.06-.11.14-.08,0,.09,0,.14a.26.26,0,0,1-.16.29"/><path class="cls-1" d="M21.66,26.81c-.09-.1-.07-.21-.07-.34a.46.46,0,0,1,.07.34"/><path class="cls-1" d="M21.56,26.11c.05,0,.11.06.11.13s0,.06,0,.06-.05,0-.05,0a.35.35,0,0,0,0-.14h0"/><path class="cls-1" d="M21.55,26.12v0h0"/><path class="cls-2" d="M69.51,14V33.56H81.19V38h-17V14Z"/><path class="cls-2" d="M88.11,33.83a4.29,4.29,0,0,0,3.09,1,4.24,4.24,0,0,0,2.48-.72A3.06,3.06,0,0,0,95,32.62h4.2a8,8,0,0,1-3.09,4.46,9.07,9.07,0,0,1-5,1.35,9.82,9.82,0,0,1-3.69-.66,7.77,7.77,0,0,1-2.79-1.86A8.38,8.38,0,0,1,82.79,33a10.43,10.43,0,0,1-.62-3.69,10,10,0,0,1,.64-3.63,8.38,8.38,0,0,1,1.81-2.9,8.49,8.49,0,0,1,2.8-1.93A9,9,0,0,1,91,20.16a8.23,8.23,0,0,1,3.86.86,7.76,7.76,0,0,1,2.71,2.3,9.45,9.45,0,0,1,1.52,3.29,12,12,0,0,1,.34,3.86H86.94A4.8,4.8,0,0,0,88.11,33.83Zm5.39-9.14a3.37,3.37,0,0,0-2.6-.94,4.12,4.12,0,0,0-1.9.39,3.68,3.68,0,0,0-1.21,1,3.63,3.63,0,0,0-.64,1.21,5.34,5.34,0,0,0-.21,1.14h7.75A5.52,5.52,0,0,0,93.5,24.69Z"/><path class="cls-2" d="M125.48,37.7a11.34,11.34,0,0,1-4.2.83,11.19,11.19,0,0,1-4.8-1,10.78,10.78,0,0,1-3.59-2.67A11.56,11.56,0,0,1,110.64,31a13.41,13.41,0,0,1-.77-4.54,17,17,0,0,1,.72-5,12.31,12.31,0,0,1,2.15-4.15,10.49,10.49,0,0,1,3.56-2.84,11.14,11.14,0,0,1,5-1.05,14.55,14.55,0,0,1,3.68.45,9.31,9.31,0,0,1,3.09,1.43,8.67,8.67,0,0,1,2.28,2.46,9.58,9.58,0,0,1,1.26,3.61H128.4a6.43,6.43,0,0,0-.87-2.36A5.59,5.59,0,0,0,126,17.41a6.88,6.88,0,0,0-2.13-1,9.93,9.93,0,0,0-2.54-.32A7.31,7.31,0,0,0,115,19.31a9.92,9.92,0,0,0-1.46,3.25,14.71,14.71,0,0,0-.47,3.75,12.42,12.42,0,0,0,.53,3.61,9.5,9.5,0,0,0,1.58,3,7.8,7.8,0,0,0,2.57,2.12,7.69,7.69,0,0,0,3.54.78,8.64,8.64,0,0,0,3.33-.6A7,7,0,0,0,127,33.61a6.9,6.9,0,0,0,1.49-2.49,7.94,7.94,0,0,0,.44-3.07h-7.65V25.37h10.5V38h-2L129,35A7.84,7.84,0,0,1,125.48,37.7Z"/><path class="cls-2" d="M134.44,29.33a11.52,11.52,0,0,1,.54-3.58,8.24,8.24,0,0,1,1.61-2.89,7.72,7.72,0,0,1,2.65-1.93,9.79,9.79,0,0,1,7.27,0A8,8,0,0,1,149.25,23a4.53,4.53,0,0,0,2-.6l-.67-1.65,3.29-1.37,1.34,3.25-3.09,1.28a10.72,10.72,0,0,1-1.88.6,12.28,12.28,0,0,1,.54,1.28,12,12,0,0,1,0,7.12,8.17,8.17,0,0,1-1.61,2.87,7.6,7.6,0,0,1-2.64,1.91,9.92,9.92,0,0,1-7.27,0,7.55,7.55,0,0,1-2.65-1.91A8.33,8.33,0,0,1,135,32.89,11.4,11.4,0,0,1,134.44,29.33Zm3,0a8.63,8.63,0,0,0,.42,2.8,6,6,0,0,0,1.16,2,5.07,5.07,0,0,0,1.73,1.26,5.34,5.34,0,0,0,4.2,0,5,5,0,0,0,1.73-1.26,6,6,0,0,0,1.16-2,9.54,9.54,0,0,0,0-5.6,6,6,0,0,0-1.16-2.05A4.91,4.91,0,0,0,145,23.18a5.34,5.34,0,0,0-4.2,0A5,5,0,0,0,139,24.46a6,6,0,0,0-1.16,2.05A8.63,8.63,0,0,0,137.46,29.31ZM143.37,18h-1.61V15.83a3.51,3.51,0,0,0,1.8-.57,1.39,1.39,0,0,0,.62-1.14c0-.81-.69-1.21-2.08-1.21l-.64,0c-.25,0-.46.06-.64.1l-.1-1.54a4.63,4.63,0,0,1,.67-.12,8.21,8.21,0,0,1,.84-.05,5.8,5.8,0,0,1,2.77.59,2.08,2.08,0,0,1,1.09,2,2,2,0,0,1-.77,1.69,4.63,4.63,0,0,1-1.88.89Z"/><path class="cls-2" d="M156.9,17.51V14h2.86v3.49Zm2.86,3.12V38H156.9V20.63Z"/><path class="cls-2" d="M170.13,16.7V14H189.3V16.7h-8V38h-3.19V16.7Z"/><path class="cls-2" d="M191,17.51V14h2.85v3.49Zm2.85,3.12V38H191V20.63Z"/><path class="cls-2" d="M209.85,36.88a7.85,7.85,0,0,1-4.9,1.48,9,9,0,0,1-3.61-.67,7.26,7.26,0,0,1-2.57-1.88,8.13,8.13,0,0,1-1.56-2.89,14,14,0,0,1-.59-3.66,10.55,10.55,0,0,1,.61-3.63,8.83,8.83,0,0,1,1.69-2.85,7.67,7.67,0,0,1,2.59-1.88,7.84,7.84,0,0,1,3.27-.67,7.11,7.11,0,0,1,3.85,1,7.59,7.59,0,0,1,2.45,2.43,9.68,9.68,0,0,1,1.27,3.22,13.91,13.91,0,0,1,.29,3.33h-13a6.67,6.67,0,0,0,.26,2.16,5,5,0,0,0,1,1.82,4.86,4.86,0,0,0,1.71,1.25,5.79,5.79,0,0,0,2.45.47,4.92,4.92,0,0,0,3-.83,4,4,0,0,0,1.53-2.56h2.82A6.91,6.91,0,0,1,209.85,36.88Zm-.69-11.14a4.73,4.73,0,0,0-1-1.57,4.82,4.82,0,0,0-3.5-1.42,5.09,5.09,0,0,0-2,.38,4.51,4.51,0,0,0-1.53,1.06,5.11,5.11,0,0,0-1,1.56,6,6,0,0,0-.43,1.9h10A5.87,5.87,0,0,0,209.16,25.74Zm-6-13-3.43,4.8h2.55l2.36-3.23,2.31,3.23h2.82l-3.49-4.8Zm2.48-4.54,4.7,5.44h2.15l-3.22-5.44Z"/><path class="cls-2" d="M218.25,20.63v2.75h.06A6,6,0,0,1,224,20.23a7.6,7.6,0,0,1,2.86.47A4.64,4.64,0,0,1,228.65,22a4.83,4.83,0,0,1,1,2,10.66,10.66,0,0,1,.29,2.56V38h-2.85V26.24a3.45,3.45,0,0,0-.94-2.55,3.49,3.49,0,0,0-2.59-.94,5.83,5.83,0,0,0-2.27.4,4.29,4.29,0,0,0-1.59,1.14,5,5,0,0,0-1,1.73,7.11,7.11,0,0,0-.32,2.17V38h-2.85V20.63Z"/><path class="cls-2" d="M247.69,14V33.56h11.68V38h-17V14Z"/><path class="cls-2" d="M266.29,33.83a4.29,4.29,0,0,0,3.09,1,4.24,4.24,0,0,0,2.48-.72,3.06,3.06,0,0,0,1.28-1.53h4.2a7.92,7.92,0,0,1-3.09,4.46,9.07,9.07,0,0,1-5,1.35,9.86,9.86,0,0,1-3.69-.66,7.77,7.77,0,0,1-2.79-1.86A8.38,8.38,0,0,1,261,33a10.43,10.43,0,0,1-.62-3.69A10,10,0,0,1,261,25.7a8.38,8.38,0,0,1,1.81-2.9,8.49,8.49,0,0,1,2.8-1.93,9,9,0,0,1,3.61-.71,8.23,8.23,0,0,1,3.86.86,7.76,7.76,0,0,1,2.71,2.3,9.45,9.45,0,0,1,1.52,3.29,12,12,0,0,1,.34,3.86H265.12A4.8,4.8,0,0,0,266.29,33.83Zm5.39-9.14a3.37,3.37,0,0,0-2.6-.94,4.12,4.12,0,0,0-1.9.39,3.68,3.68,0,0,0-1.21,1,3.63,3.63,0,0,0-.64,1.21,5.34,5.34,0,0,0-.21,1.14h7.75A5.52,5.52,0,0,0,271.68,24.69Z"/><path class="cls-2" d="M160.24,42.84a1.34,1.34,0,1,0-1.34,1.34,1.35,1.35,0,0,0,1.34-1.34"/></svg>