<svg id="Layer_1" data-name="Layer 1" xmlns="http://www.w3.org/2000/svg" viewBox="0 0 387.79 82.35"><defs><style>.cls-1{fill:#706f6f;}.cls-2{fill:#5fa82c;}.cls-3{fill:#e30613;}.cls-4{fill:#fff;}</style></defs><title>Artboard 1 copy 3</title><path class="cls-1" d="M93.07,71.4h1.24l2.94,8.1h-1.2l-.82-2.43H92l-.88,2.43H90Zm1.81,4.78L93.65,72.6l-1.31,3.58Z"/><path class="cls-1" d="M100.79,77.65a1.42,1.42,0,0,0,.26.76,1.58,1.58,0,0,0,1.32.48,2,2,0,0,0,1-.24.79.79,0,0,0,.43-.74.62.62,0,0,0-.34-.58,3.84,3.84,0,0,0-.86-.28l-.8-.2a4.31,4.31,0,0,1-1.14-.42,1.26,1.26,0,0,1-.65-1.11,1.7,1.7,0,0,1,.62-1.36,2.41,2.41,0,0,1,1.64-.52,2.31,2.31,0,0,1,1.95.78,1.67,1.67,0,0,1,.36,1.07h-.93a1.07,1.07,0,0,0-.25-.6,1.55,1.55,0,0,0-1.21-.39,1.51,1.51,0,0,0-.87.21.66.66,0,0,0-.3.57.69.69,0,0,0,.39.61,2.4,2.4,0,0,0,.67.24l.66.16a5,5,0,0,1,1.46.51,1.31,1.31,0,0,1,.58,1.19,1.81,1.81,0,0,1-.6,1.36,2.63,2.63,0,0,1-1.85.58,2.49,2.49,0,0,1-1.89-.6,2.26,2.26,0,0,1-.59-1.48Z"/><path class="cls-1" d="M109.28,73.76a2.24,2.24,0,0,1,.89.76,2.72,2.72,0,0,1,.4,1,7,7,0,0,1,.08,1.3h-4.29a2.57,2.57,0,0,0,.42,1.45,1.41,1.41,0,0,0,1.22.54,1.56,1.56,0,0,0,1.23-.51,1.92,1.92,0,0,0,.37-.69h1a2,2,0,0,1-.25.72,2.7,2.7,0,0,1-.49.66,2.3,2.3,0,0,1-1.11.59,3.32,3.32,0,0,1-.8.09,2.47,2.47,0,0,1-1.86-.8,3.14,3.14,0,0,1-.76-2.25,3.4,3.4,0,0,1,.76-2.31,2.55,2.55,0,0,1,2-.89A2.64,2.64,0,0,1,109.28,73.76Zm.35,2.32a2.65,2.65,0,0,0-.27-1,1.42,1.42,0,0,0-1.35-.72,1.47,1.47,0,0,0-1.14.49,1.88,1.88,0,0,0-.49,1.26Z"/><path class="cls-1" d="M111.71,73.6h1v1a2.17,2.17,0,0,1,.56-.73,1.5,1.5,0,0,1,1-.43h.09l.22,0v1.05l-.16,0h-.16a1.42,1.42,0,0,0-1.15.48,1.68,1.68,0,0,0-.4,1.11v3.4h-1Z"/><path class="cls-1" d="M115.71,73.6l1.57,4.8,1.65-4.8H120l-2.22,5.9h-1.06l-2.18-5.9Z"/><path class="cls-1" d="M120.64,71.4h1v1.13h-1Zm0,2.22h1V79.5h-1Z"/><path class="cls-1" d="M126.82,73.91a2.29,2.29,0,0,1,.75,1.67h-1a1.81,1.81,0,0,0-.4-.91,1.28,1.28,0,0,0-1-.36,1.39,1.39,0,0,0-1.36.93,3.6,3.6,0,0,0-.26,1.48,2.77,2.77,0,0,0,.37,1.49,1.45,1.45,0,0,0,2.16.23,2,2,0,0,0,.5-1h1a2.32,2.32,0,0,1-2.52,2.26,2.24,2.24,0,0,1-1.84-.85,3.21,3.21,0,0,1-.69-2.11,3.58,3.58,0,0,1,.75-2.42,2.46,2.46,0,0,1,1.93-.87A2.6,2.6,0,0,1,126.82,73.91Z"/><path class="cls-1" d="M132,73.76a2.24,2.24,0,0,1,.89.76,2.56,2.56,0,0,1,.39,1,6.77,6.77,0,0,1,.09,1.3h-4.29a2.57,2.57,0,0,0,.42,1.45,1.41,1.41,0,0,0,1.22.54,1.58,1.58,0,0,0,1.23-.51,1.76,1.76,0,0,0,.36-.69h1a2,2,0,0,1-.26.72,2.45,2.45,0,0,1-.48.66,2.3,2.3,0,0,1-1.11.59,3.35,3.35,0,0,1-.81.09,2.45,2.45,0,0,1-1.85-.8,3.15,3.15,0,0,1-.77-2.25,3.41,3.41,0,0,1,.77-2.31,2.53,2.53,0,0,1,2-.89A2.64,2.64,0,0,1,132,73.76Zm.35,2.32a2.48,2.48,0,0,0-.28-1,1.42,1.42,0,0,0-1.35-.72,1.46,1.46,0,0,0-1.13.49,1.88,1.88,0,0,0-.49,1.26Z"/><path class="cls-1" d="M141.6,74.19a3,3,0,0,1,.79,2.23,3.93,3.93,0,0,1-.69,2.36,2.5,2.5,0,0,1-2.14.93,2.46,2.46,0,0,1-1.93-.82,3.3,3.3,0,0,1-.71-2.22,3.5,3.5,0,0,1,.75-2.36,2.51,2.51,0,0,1,2-.89A2.63,2.63,0,0,1,141.6,74.19ZM141,78.11a3.78,3.78,0,0,0,.36-1.66,3,3,0,0,0-.26-1.34,1.47,1.47,0,0,0-1.43-.82,1.41,1.41,0,0,0-1.31.69,3.29,3.29,0,0,0-.41,1.68,2.84,2.84,0,0,0,.41,1.57,1.43,1.43,0,0,0,1.3.62A1.35,1.35,0,0,0,141,78.11Z"/><path class="cls-1" d="M143.84,71.79a1.54,1.54,0,0,1,1.34-.5h.19l.23,0v.9h-.36c-.3,0-.48.07-.54.23a4.53,4.53,0,0,0-.09,1.19h1v.79h-1V79.5h-1V74.41h-.83v-.79h.83V72.7A1.74,1.74,0,0,1,143.84,71.79Z"/><path class="cls-1" d="M156,72.56a4.44,4.44,0,0,1,.81,2.75,4.87,4.87,0,0,1-.92,3,4.09,4.09,0,0,1-6,.17,4.62,4.62,0,0,1-1-3,4.83,4.83,0,0,1,.82-2.81,3.54,3.54,0,0,1,3.1-1.5A3.69,3.69,0,0,1,156,72.56Zm-1,5.16a4.43,4.43,0,0,0,.64-2.39A3.4,3.4,0,0,0,155,73a2.56,2.56,0,0,0-2.05-.87,2.65,2.65,0,0,0-2,.86,3.69,3.69,0,0,0-.79,2.55,3.77,3.77,0,0,0,.68,2.27,2.58,2.58,0,0,0,2.21.92A2.31,2.31,0,0,0,155.06,77.72Z"/><path class="cls-1" d="M157.79,73.6h1v.83a3.1,3.1,0,0,1,.64-.63,2,2,0,0,1,1.11-.34,1.56,1.56,0,0,1,1.58.94,2.05,2.05,0,0,1,1.78-.94,1.65,1.65,0,0,1,1.62.86,2.91,2.91,0,0,1,.23,1.25V79.5h-1V75.4a1,1,0,0,0-.29-.81,1.16,1.16,0,0,0-.72-.22,1.44,1.44,0,0,0-1,.39,1.73,1.73,0,0,0-.42,1.31V79.5h-1V75.65a2.11,2.11,0,0,0-.14-.88.88.88,0,0,0-.85-.41,1.46,1.46,0,0,0-1,.43,2.13,2.13,0,0,0-.46,1.58V79.5h-1Z"/><path class="cls-1" d="M167,73.6h.94v.83a2.62,2.62,0,0,1,.89-.74,2.37,2.37,0,0,1,1-.23,1.73,1.73,0,0,1,1.7.88,3.15,3.15,0,0,1,.24,1.37V79.5h-1V75.78a2,2,0,0,0-.16-.87,1,1,0,0,0-1-.55,1.92,1.92,0,0,0-.58.07,1.63,1.63,0,0,0-1,1.09,4,4,0,0,0-.07.89V79.5h-1Z"/><path class="cls-1" d="M176.67,73.76a2.31,2.31,0,0,1,.89.76,2.56,2.56,0,0,1,.39,1,6.77,6.77,0,0,1,.09,1.3h-4.29a2.57,2.57,0,0,0,.42,1.45,1.41,1.41,0,0,0,1.22.54,1.58,1.58,0,0,0,1.23-.51,1.76,1.76,0,0,0,.36-.69h1a2,2,0,0,1-.26.72,2.45,2.45,0,0,1-.48.66,2.3,2.3,0,0,1-1.11.59,3.35,3.35,0,0,1-.81.09,2.49,2.49,0,0,1-1.86-.8,3.19,3.19,0,0,1-.76-2.25,3.41,3.41,0,0,1,.77-2.31,2.53,2.53,0,0,1,2-.89A2.65,2.65,0,0,1,176.67,73.76Zm.35,2.32a2.48,2.48,0,0,0-.28-1,1.42,1.42,0,0,0-1.35-.72,1.46,1.46,0,0,0-1.13.49,1.88,1.88,0,0,0-.49,1.26Z"/><path class="cls-1" d="M178.51,73.6h1.28l1.36,2.07,1.37-2.07,1.21,0-2,2.85,2.08,3h-1.27l-1.47-2.22-1.42,2.22h-1.25l2.07-3Z"/><path class="cls-1" d="M193,71.63a2.89,2.89,0,0,1,1.45,2.22h-1.08a2,2,0,0,0-.81-1.29,2.71,2.71,0,0,0-1.54-.4,2.39,2.39,0,0,0-1.85.84,3.67,3.67,0,0,0-.75,2.51,4.06,4.06,0,0,0,.62,2.36,2.28,2.28,0,0,0,2,.9,2.57,2.57,0,0,0,1.78-.63,2.76,2.76,0,0,0,.73-2.06H191v-.91h3.56V79.5h-.71l-.26-1a4.07,4.07,0,0,1-1,.85,3.58,3.58,0,0,1-1.8.41,3.52,3.52,0,0,1-2.44-.94,4.47,4.47,0,0,1-1.11-3.2,4.62,4.62,0,0,1,1.09-3.24A3.42,3.42,0,0,1,191,71.19,4.13,4.13,0,0,1,193,71.63Z"/><path class="cls-1" d="M196,73.6H197v1a2.38,2.38,0,0,1,.57-.73,1.49,1.49,0,0,1,1-.43h.09l.23,0v1.05l-.16,0h-.16a1.44,1.44,0,0,0-1.16.48,1.68,1.68,0,0,0-.4,1.11v3.4h-1Z"/><path class="cls-1" d="M203.8,74.19a3,3,0,0,1,.78,2.23,3.86,3.86,0,0,1-.69,2.36,2.79,2.79,0,0,1-4.06.11,3.3,3.3,0,0,1-.71-2.22,3.5,3.5,0,0,1,.75-2.36,2.51,2.51,0,0,1,2-.89A2.63,2.63,0,0,1,203.8,74.19Zm-.61,3.92a3.78,3.78,0,0,0,.36-1.66,3,3,0,0,0-.26-1.34,1.47,1.47,0,0,0-1.43-.82,1.41,1.41,0,0,0-1.31.69,3.29,3.29,0,0,0-.41,1.68,2.84,2.84,0,0,0,.41,1.57,1.43,1.43,0,0,0,1.3.62A1.35,1.35,0,0,0,203.19,78.11Z"/><path class="cls-1" d="M206.57,73.6v3.92a1.69,1.69,0,0,0,.14.73,1,1,0,0,0,1,.53,1.36,1.36,0,0,0,1.37-.92,3.61,3.61,0,0,0,.2-1.36V73.6h1v5.9h-.93v-.87a2.17,2.17,0,0,1-.47.57,2,2,0,0,1-1.35.46,1.74,1.74,0,0,1-1.69-.84,2.59,2.59,0,0,1-.25-1.21v-4Z"/><path class="cls-1" d="M211.55,73.62h1v.79a2.41,2.41,0,0,1,.65-.63,2.09,2.09,0,0,1,1.18-.33,2.24,2.24,0,0,1,1.71.77,3.14,3.14,0,0,1,.7,2.2,3.37,3.37,0,0,1-1,2.75,2.31,2.31,0,0,1-1.5.53,2.07,2.07,0,0,1-1.12-.29,2.55,2.55,0,0,1-.59-.57v3h-1Zm3.73,4.63a2.76,2.76,0,0,0,.46-1.74,3.37,3.37,0,0,0-.2-1.21,1.5,1.5,0,0,0-2.83,0,4,4,0,0,0-.21,1.4,2.91,2.91,0,0,0,.21,1.17,1.39,1.39,0,0,0,1.41.91A1.41,1.41,0,0,0,215.28,78.25Z"/><path class="cls-1" d="M217.89,80.66a.72.72,0,0,0,.54-.54,1.72,1.72,0,0,0,.08-.48v-.07a.64.64,0,0,1,0-.07h-.6V78.3h1.18v1.11a2.47,2.47,0,0,1-.26,1.15,1.23,1.23,0,0,1-.92.62Z"/><path class="cls-1" d="M223.91,71.4H225v8.1h-1.11Z"/><path class="cls-1" d="M226.45,73.6h.94v.83a2.72,2.72,0,0,1,.89-.74,2.37,2.37,0,0,1,1-.23,1.73,1.73,0,0,1,1.7.88,3.15,3.15,0,0,1,.24,1.37V79.5h-1V75.78a2,2,0,0,0-.16-.87,1,1,0,0,0-1-.55,2,2,0,0,0-.58.07,1.46,1.46,0,0,0-.71.48,1.34,1.34,0,0,0-.32.61,3.9,3.9,0,0,0-.08.89V79.5h-1Z"/><path class="cls-1" d="M236.4,73.91a2.29,2.29,0,0,1,.75,1.67h-1a1.81,1.81,0,0,0-.4-.91,1.28,1.28,0,0,0-1-.36,1.4,1.4,0,0,0-1.36.93,3.77,3.77,0,0,0-.26,1.48,2.77,2.77,0,0,0,.37,1.49,1.45,1.45,0,0,0,2.16.23,2,2,0,0,0,.5-1h1a2.32,2.32,0,0,1-2.52,2.26,2.24,2.24,0,0,1-1.84-.85,3.21,3.21,0,0,1-.69-2.11,3.58,3.58,0,0,1,.75-2.42,2.46,2.46,0,0,1,1.93-.87A2.6,2.6,0,0,1,236.4,73.91Z"/><path class="cls-2" d="M96.87,8.53V35.71h16.25v6.17H89.54V8.53Z"/><path class="cls-2" d="M122.74,36.08a6.8,6.8,0,0,0,7.75.45,4.17,4.17,0,0,0,1.78-2.13h5.83a11,11,0,0,1-4.29,6.21,12.62,12.62,0,0,1-7,1.87,13.67,13.67,0,0,1-5.13-.91A10.71,10.71,0,0,1,117.79,39a11.53,11.53,0,0,1-2.45-4,14.57,14.57,0,0,1-.87-5.13,14.15,14.15,0,0,1,.89-5,11.63,11.63,0,0,1,6.42-6.72,12.42,12.42,0,0,1,5-1,11.5,11.5,0,0,1,5.37,1.19,10.63,10.63,0,0,1,3.76,3.2A13.24,13.24,0,0,1,138.06,26a17.09,17.09,0,0,1,.46,5.37H121.11Q121.25,34.64,122.74,36.08Zm7.5-12.7a4.69,4.69,0,0,0-3.62-1.31,5.74,5.74,0,0,0-2.64.54,5,5,0,0,0-1.68,1.33,4.88,4.88,0,0,0-.89,1.68,7.67,7.67,0,0,0-.3,1.59h10.78A7.68,7.68,0,0,0,130.24,23.38Z"/><path class="cls-2" d="M174.72,41.48a15.84,15.84,0,0,1-5.84,1.14,15.55,15.55,0,0,1-6.68-1.38,15,15,0,0,1-5-3.71,16,16,0,0,1-3.12-5.37,18.62,18.62,0,0,1-1.08-6.3,23.35,23.35,0,0,1,1-6.94,17,17,0,0,1,3-5.76,14.66,14.66,0,0,1,4.95-3.95,15.46,15.46,0,0,1,6.94-1.47,20.1,20.1,0,0,1,5.11.63,13,13,0,0,1,4.3,2,11.75,11.75,0,0,1,3.17,3.44,13.3,13.3,0,0,1,1.75,5h-4.43a8.65,8.65,0,0,0-1.22-3.3,7.87,7.87,0,0,0-2.19-2.26,9.56,9.56,0,0,0-3-1.33,13.36,13.36,0,0,0-3.52-.45,10.17,10.17,0,0,0-8.76,4.42,14,14,0,0,0-2,4.53,20.58,20.58,0,0,0-.65,5.2,17,17,0,0,0,.74,5,13,13,0,0,0,2.2,4.25,10.88,10.88,0,0,0,3.57,3,10.63,10.63,0,0,0,4.93,1.09,11.9,11.9,0,0,0,4.62-.84A9.53,9.53,0,0,0,179,32.33a11.57,11.57,0,0,0,.6-4.28H168.92V24.32h14.62V41.88h-2.8l-1.17-4.16A11,11,0,0,1,174.72,41.48Z"/><path class="cls-2" d="M187.18,29.83a16,16,0,0,1,.75-5,11.32,11.32,0,0,1,2.24-4,10.67,10.67,0,0,1,3.69-2.69,13.53,13.53,0,0,1,10.11,0A11.22,11.22,0,0,1,207.78,21a6,6,0,0,0,2.75-.84l-.93-2.29L214.18,16,216,20.49l-4.29,1.77a14.94,14.94,0,0,1-2.62.84,15.09,15.09,0,0,1,.75,1.78,16.71,16.71,0,0,1,0,9.9,11.49,11.49,0,0,1-2.24,4A10.36,10.36,0,0,1,204,41.43a13.79,13.79,0,0,1-10.11,0,10.35,10.35,0,0,1-3.69-2.66,11.49,11.49,0,0,1-2.24-4A15.85,15.85,0,0,1,187.18,29.83Zm4.21,0a11.92,11.92,0,0,0,.58,3.89,8.15,8.15,0,0,0,1.61,2.84A6.89,6.89,0,0,0,196,38.28a7.27,7.27,0,0,0,5.83,0,6.89,6.89,0,0,0,2.41-1.75,8.15,8.15,0,0,0,1.61-2.84,11.92,11.92,0,0,0,.58-3.89,12,12,0,0,0-.58-3.89,8.53,8.53,0,0,0-1.61-2.86,6.82,6.82,0,0,0-2.41-1.77,7.27,7.27,0,0,0-5.83,0,6.82,6.82,0,0,0-2.41,1.77A8.53,8.53,0,0,0,192,25.91,12,12,0,0,0,191.39,29.8ZM199.61,14h-2.25V11.05a4.71,4.71,0,0,0,2.5-.79,1.93,1.93,0,0,0,.87-1.59c0-1.12-1-1.68-2.9-1.68-.25,0-.54,0-.89,0a6,6,0,0,0-.88.14L195.92,5a5.6,5.6,0,0,1,.93-.16A9.52,9.52,0,0,1,198,4.8a8.14,8.14,0,0,1,3.85.81,2.91,2.91,0,0,1,1.52,2.78,2.86,2.86,0,0,1-1.08,2.36A6.46,6.46,0,0,1,199.7,12Z"/><path class="cls-2" d="M218.43,13.39V8.53h4v4.86Zm4,4.34V41.88h-4V17.73Z"/><path class="cls-2" d="M236.82,12.27V8.53h26.67v3.74H252.37V41.88h-4.43V12.27Z"/><path class="cls-2" d="M265.78,13.39V8.53h4v4.86Zm4,4.34V41.88h-4V17.73Z"/><path class="cls-2" d="M292.07,40.33a11,11,0,0,1-6.82,2.06,12.29,12.29,0,0,1-5-.94,9.78,9.78,0,0,1-3.57-2.61,11,11,0,0,1-2.17-4,18.89,18.89,0,0,1-.82-5.09,14.56,14.56,0,0,1,.84-5,12,12,0,0,1,2.36-4,10.61,10.61,0,0,1,3.6-2.61,10.83,10.83,0,0,1,4.55-.94,10,10,0,0,1,5.35,1.33,10.59,10.59,0,0,1,3.4,3.39,13.35,13.35,0,0,1,1.78,4.48A19.18,19.18,0,0,1,296,31H277.87a9.67,9.67,0,0,0,.38,3A6.59,6.59,0,0,0,282,38.28a8.17,8.17,0,0,0,3.41.65,6.91,6.91,0,0,0,4.13-1.16,5.64,5.64,0,0,0,2.13-3.55h3.92A9.63,9.63,0,0,1,292.07,40.33Zm-1-15.5a7,7,0,0,0-9.1-3.62,6.44,6.44,0,0,0-2.13,1.47,7.16,7.16,0,0,0-1.4,2.17,8.62,8.62,0,0,0-.61,2.64h13.87A8,8,0,0,0,291.11,24.83Zm-8.38-18L278,13.48h3.55L284.79,9,288,13.48h3.92L287.07,6.8ZM286.19.5l6.53,7.57h3L291.23.5Z"/><path class="cls-2" d="M303.74,17.73v3.83h.1a8.36,8.36,0,0,1,7.84-4.39,10.39,10.39,0,0,1,4,.66,6.42,6.42,0,0,1,2.57,1.82,6.86,6.86,0,0,1,1.38,2.78A15.11,15.11,0,0,1,320,26V41.88h-4V25.53A4.81,4.81,0,0,0,314.72,22a4.87,4.87,0,0,0-3.6-1.31,8.17,8.17,0,0,0-3.15.56,6,6,0,0,0-2.22,1.59,7,7,0,0,0-1.33,2.41,9.65,9.65,0,0,0-.44,3V41.88h-4V17.73Z"/><path class="cls-2" d="M344.7,8.53V35.71H361v6.17H337.37V8.53Z"/><path class="cls-2" d="M370.57,36.08a6.8,6.8,0,0,0,7.75.45,4.17,4.17,0,0,0,1.78-2.13h5.83a11,11,0,0,1-4.29,6.21,12.62,12.62,0,0,1-7,1.87,13.76,13.76,0,0,1-5.14-.91A10.76,10.76,0,0,1,365.62,39a11.53,11.53,0,0,1-2.45-4,14.57,14.57,0,0,1-.87-5.13,14.15,14.15,0,0,1,.89-5,11.63,11.63,0,0,1,6.42-6.72,12.39,12.39,0,0,1,5-1A11.5,11.5,0,0,1,380,18.27a10.63,10.63,0,0,1,3.76,3.2A13.24,13.24,0,0,1,385.89,26a17.09,17.09,0,0,1,.46,5.37H368.93C369,33.56,369.57,35.12,370.57,36.08Zm7.49-12.7a4.66,4.66,0,0,0-3.62-1.31,5.73,5.73,0,0,0-2.63.54,5,5,0,0,0-1.68,1.33,4.88,4.88,0,0,0-.89,1.68,8.49,8.49,0,0,0-.31,1.59h10.79A7.6,7.6,0,0,0,378.06,23.38Z"/><path class="cls-3" d="M96.92,51.68h3v9.93H98V54.89c0-.19,0-.46,0-.81v-.8L96.1,61.61h-2l-1.86-8.33v.8c0,.35,0,.62,0,.81v6.72H90.3V51.68h3l1.8,7.81Z"/><path class="cls-3" d="M109.19,60.73a5.13,5.13,0,0,1-6.5,0,5.35,5.35,0,0,1-1.51-4.1,5.22,5.22,0,0,1,1.51-4.09,5.13,5.13,0,0,1,6.5,0,5.22,5.22,0,0,1,1.51,4.09A5.35,5.35,0,0,1,109.19,60.73Zm-1.29-1.51a5,5,0,0,0,0-5.17,2.58,2.58,0,0,0-3.93,0,4,4,0,0,0-.73,2.58,4,4,0,0,0,.73,2.59,2.58,2.58,0,0,0,3.93,0Z"/><path class="cls-3" d="M112,51.68h2.18l3.94,6.93V51.68H120v9.93H118l-4-7v7H112Z"/><path class="cls-3" d="M129.05,53.44h-5.26v2.11h4.83v1.72h-4.83v2.56h5.5v1.78h-7.52V51.68h7.28Z"/><path class="cls-3" d="M136.31,51.68h2.35l-3.32,6.21v3.72h-2.07V57.89l-3.44-6.21h2.45L134.34,56Z"/><path class="cls-3" d="M150.13,51.68v1.76h-3v8.17h-2.09V53.44h-3V51.68Z"/><path class="cls-3" d="M157.44,51.94a2.36,2.36,0,0,1,.93.69,3,3,0,0,1,.5.84,2.8,2.8,0,0,1,.18,1,3,3,0,0,1-.35,1.39,2,2,0,0,1-1.18,1,1.81,1.81,0,0,1,1,.78,3.3,3.3,0,0,1,.29,1.56v.66a6,6,0,0,0,.05.93.86.86,0,0,0,.39.56v.25h-2.29c-.07-.22-.11-.4-.14-.53a6,6,0,0,1-.09-.86V59.3a1.9,1.9,0,0,0-.33-1.27,1.67,1.67,0,0,0-1.18-.31h-2v3.89h-2V51.68h4.75A4.17,4.17,0,0,1,157.44,51.94Zm-4.29,1.47v2.66h2.24a2.31,2.31,0,0,0,1-.16,1.11,1.11,0,0,0,.59-1.12,1.25,1.25,0,0,0-.57-1.21,2,2,0,0,0-1-.17Z"/><path class="cls-3" d="M163.61,51.68H166l3.52,9.93h-2.25l-.66-2H162.9l-.67,2h-2.17Zm-.14,6.18H166L164.76,54Z"/><path class="cls-3" d="M170.42,51.68h2.18l3.94,6.93V51.68h1.93v9.93H176.4l-4.05-7v7h-1.93Z"/><path class="cls-3" d="M181.64,58.55a1.93,1.93,0,0,0,.38,1,2.18,2.18,0,0,0,1.76.62A3.73,3.73,0,0,0,185,60a1.15,1.15,0,0,0,.89-1.15.85.85,0,0,0-.44-.76,4.78,4.78,0,0,0-1.37-.46L183,57.4a6.74,6.74,0,0,1-2.18-.76,2.41,2.41,0,0,1-1-2.15,2.88,2.88,0,0,1,1-2.22,4.25,4.25,0,0,1,2.89-.88,4.45,4.45,0,0,1,2.71.83,3,3,0,0,1,1.17,2.42h-2a1.41,1.41,0,0,0-.8-1.27,2.71,2.71,0,0,0-1.24-.25,2.31,2.31,0,0,0-1.31.32,1,1,0,0,0-.49.9.86.86,0,0,0,.48.8,6.76,6.76,0,0,0,1.32.41l1.74.41a4.42,4.42,0,0,1,1.72.72,2.44,2.44,0,0,1,.89,2,2.85,2.85,0,0,1-1,2.26,4.43,4.43,0,0,1-3,.9,4.88,4.88,0,0,1-3.09-.89,2.92,2.92,0,0,1-1.12-2.43Z"/><path class="cls-3" d="M189.08,51.69h7.08v1.75h-5v2.28h4.4v1.73h-4.4v4.16h-2.06Z"/><path class="cls-3" d="M204.59,53.44h-5.25v2.11h4.82v1.72h-4.82v2.56h5.49v1.78h-7.52V51.68h7.28Z"/><path class="cls-3" d="M212.55,51.94a2.36,2.36,0,0,1,.93.69,3,3,0,0,1,.5.84,2.61,2.61,0,0,1,.19,1,2.94,2.94,0,0,1-.36,1.39,2,2,0,0,1-1.18,1,1.81,1.81,0,0,1,1,.78,3.18,3.18,0,0,1,.29,1.56v.66a4.69,4.69,0,0,0,.06.93.81.81,0,0,0,.38.56v.25H212c-.06-.22-.11-.4-.14-.53a4.82,4.82,0,0,1-.08-.86l0-.92a1.9,1.9,0,0,0-.33-1.27,1.67,1.67,0,0,0-1.18-.31h-2v3.89h-2V51.68H211A4.12,4.12,0,0,1,212.55,51.94Zm-4.28,1.47v2.66h2.23a2.39,2.39,0,0,0,1-.16,1.12,1.12,0,0,0,.59-1.12,1.25,1.25,0,0,0-.57-1.21,2.06,2.06,0,0,0-1-.17Z"/><path class="cls-4" d="M70.1,41.43A31.57,31.57,0,1,0,38.54,73,31.57,31.57,0,0,0,70.1,41.43"/><path class="cls-2" d="M72.33,43.81A35.47,35.47,0,1,0,36.86,79.28,35.47,35.47,0,0,0,72.33,43.81"/><path class="cls-4" d="M27.87,65.69h2.18l4.13-11.37a13,13,0,0,1-1.93-.69Z"/><path class="cls-4" d="M43.77,21.94,39.37,34a15.32,15.32,0,0,1,2.08.29L46,21.94Z"/><path class="cls-4" d="M58.16,22.85l-3.68,3.68,2.45-.75s1.23-.48,1.23-2.93"/><path class="cls-4" d="M25.33,43.89c0-9.77,5.18-17.7,11.58-17.7,5.45,0,8.17,1.36,12.26,1.36a29.76,29.76,0,0,0,8.17-1.36l-8.17,8.17c-2.73,1.36-6.81-2-12.3-2A11.59,11.59,0,0,0,25.29,43.92"/><path class="cls-4" d="M15.57,64.66l3.25-3.27-2.17.67s-1.08.42-1.08,2.6"/><path class="cls-4" d="M48.49,43.92c0,9.78-5.19,17.71-11.58,17.71-5.45,0-8.17-1.36-12.26-1.36a29.76,29.76,0,0,0-8.17,1.36l8.17-8.17c2.73-1.37,6.81,2,12.3,2A11.58,11.58,0,0,0,48.53,43.89"/><path class="cls-4" d="M27.17,43.62a8.78,8.78,0,0,1,.21-1.69,11.2,11.2,0,0,1,.4-1.4,4,4,0,0,1,.49,0c.12,0,.16,0,.19-.14.12-.46.26-.92.38-1.39a.3.3,0,0,1,.19-.23.36.36,0,0,0,.27-.37c0-.1.05-.15.15-.18a.9.9,0,0,0,.48-.3s.05-.06.09,0,.17,0,.22-.08.08-.05.09,0,.05.06.1,0,.35-.13.53-.18.13-.07.09-.16,0-.15.07-.17.23-.18.38-.06.06,0,.09,0c.29-.1.63-.13.76-.49,0,0,0,0,0,0a.18.18,0,0,1,.28,0c0,.08.09,0,.13.05s.14,0,.13,0,0-.1.07-.11a.35.35,0,0,0,.26-.32s-.16.06-.16-.09a1.12,1.12,0,0,1,.35-.73s.06-.07.12,0a2.39,2.39,0,0,1-.12.22c-.14.22-.12.31.08.49.16-.31.16-.32,0-.45a.35.35,0,0,0,.46-.2c.05-.13.11-.08.16,0a1.51,1.51,0,0,1,.11.22.27.27,0,0,0,.35.22c.06,0,.13,0,.16,0s.21.13.33.13.1,0,.11-.11a.84.84,0,0,0-.21-.65c-.06-.07-.11-.14,0-.24a.21.21,0,0,1,.23-.12,1,1,0,0,0,.29,0c.32-.09.32-.09.31-.43s0-.26.23-.25a1.56,1.56,0,0,0,.44-.07c.1,0,.17-.06.25,0s.08,0,.12,0,.18-.24.36-.19c0,0,0,0,0-.07.3,0,.6.05.91,0,0,.06,0,.09.06.13.16.25.12.35-.16.43l-.08,0c-.07,0-.12,0-.13.11a.25.25,0,0,1-.22.21l-.24.08c-.07,0-.08.06-.07.12s0,.22.2.17.11,0,.16,0c.21,0,.46,0,.64-.15s.08,0,.12,0a1.33,1.33,0,0,1,.74.53.16.16,0,0,0,.14.07,1.75,1.75,0,0,1,.69.29c.1.05.19.15.31.15a.26.26,0,0,1,.3.27c0,.13.08.16.18.18a.6.6,0,0,1,.46.17.08.08,0,0,0,.09,0,1.54,1.54,0,0,1,.61-.22l-.16-.17s-.05,0,0-.06a0,0,0,0,1,.07,0c.07.08.18.14.18.27,0,.29,0,.29.27.35l.09,0c0-.05,0-.11,0-.14.2.09.31.3.5.38a.66.66,0,0,0,.36.13c.09,0,.32.33.3.43s0,.08,0,.11a.42.42,0,0,0,.39.17.33.33,0,0,1,.27.06c.19.18.45.25.6.49l.08-.13c.11-.18.12-.18.28,0a1.73,1.73,0,0,0,.49.32h0s0,0,0,0h0l0,0,.24.42c0,.1,0,.25-.16.31s-.22.06-.25.13.09.16.13.25.08.06,0,.11l-.44.37c-.05,0-.08,0-.13,0a.69.69,0,0,1-.3-.58c0-.19-.12-.21-.27-.23s-.1.12-.14.18,0,.13-.1.18L44.25,40a.42.42,0,0,0-.38,0c-.14.07-.13.19-.1.32s0,.23-.2.19a.82.82,0,0,0-.41,0,.3.3,0,0,1-.4-.1l-.16-.24c-.05-.08-.08-.06-.11,0a1.05,1.05,0,0,1-.42.51,3.57,3.57,0,0,0-.37.31c-.1.1-.21.22-.17.37.1.35.15.39.42.4l.26,0c.12,0,.13.06.1.15a2.59,2.59,0,0,0-.18.69A.7.7,0,0,1,42,43a.18.18,0,0,0,0,.13.77.77,0,0,1-.27.55c-.08.07-.15.19-.28.2-.29,0-.43.2-.56.43,0,0,0,.11-.1.1s-.13.06-.12.15a1.34,1.34,0,0,1,0,.2s0,.1-.05.09,0-.07,0-.11,0-.24-.2-.2l0,0c.06-.1.12-.2.17-.3s0,0,0,0h0l-.86.37c-.15.06-.16.16-.06.29a1.58,1.58,0,0,0,.12.15c.06,0,.08.1,0,.17s-.13.21,0,.31,0,.08.06.12,0,.39.13.56a.06.06,0,0,1,0,.06c-.08.09-.13.23-.26.28a.48.48,0,0,0-.33.38.26.26,0,0,1-.21.2c-.11,0-.23.05-.29.18a.3.3,0,0,1-.36.09c-.21-.13-.41,0-.61,0l0,0a2.3,2.3,0,0,0-.2.49.68.68,0,0,0,.16.46.35.35,0,0,1-.1.49c-.09.06-.22.06-.3.15s0,0-.07,0a1.1,1.1,0,0,0-.59-.41c-.17,0-.19-.18-.16-.35l-.24.1c0-.11,0-.21,0-.31a3.76,3.76,0,0,0-.32-.55.44.44,0,0,0-.61-.11c-.09.06-.12.19-.23.22s-.2.07-.17.21a.1.1,0,0,1-.06.09,3,3,0,0,0-.67.44.15.15,0,0,0-.08.17c0,.14,0,.28,0,.42s-.11.16-.19.21-.1,0-.14-.1c-.13-.2-.33-.37-.33-.64a.24.24,0,0,0,0-.1.18.18,0,0,1,0-.23.24.24,0,0,0,0-.26.94.94,0,0,1-.13-.52c0-.09,0-.18,0-.31l-.3.45a1.66,1.66,0,0,1-.22-.32.44.44,0,0,0-.25-.21,3.34,3.34,0,0,0-1-.19c-.24,0-.24,0-.25-.26s0-.23-.23-.17a.88.88,0,0,0-.23.07c-.13.1-.19,0-.24-.08a4.59,4.59,0,0,1-.24-.5c0-.06-.06-.1-.13-.1l-.24,0c-.13,0-.19.1-.26.17s0,.11,0,.16a1.52,1.52,0,0,1,.27.83c0,.08,0,.1.11.07s.19-.1.26,0a.52.52,0,0,0,.33.09.69.69,0,0,1,.5.23.18.18,0,0,1,0,.31.31.31,0,0,0-.11.31s0,.11-.08.1a.67.67,0,0,0-.51.1c-.13.07-.32,0-.44.15-.1-.09-.23,0-.32-.06a.35.35,0,0,1-.17-.28.79.79,0,0,0-.34-.59.23.23,0,0,1-.11-.2.84.84,0,0,0-.28-.58.89.89,0,0,1-.29-.46c0-.11,0-.23,0-.35a1,1,0,0,1,0-.49c.07-.15.12-.3.19-.45-.29-.08-.58,0-.85-.06-.05,0-.1,0-.15,0a.07.07,0,0,1-.11,0,.27.27,0,0,1,0-.42.87.87,0,0,0,.09-.11.16.16,0,0,1,.17-.09c.31,0,.61,0,.91,0a.3.3,0,0,0,.29-.19.23.23,0,0,0-.09-.32c-.07,0-.12-.11-.19-.15s-.07-.07,0-.13.07-.35.09-.53,0-.09-.06-.08c-.2,0-.43-.06-.6.11s-.07.06-.11,0-.1,0-.15,0-.07.09-.13.08-.25.07-.32.2a1.49,1.49,0,0,0-.17.44.3.3,0,0,1-.16.23m2.59.62c0,.08.19,0,.18.16a.74.74,0,0,0,.31.59.51.51,0,0,0,.48,0c.13-.1.14-.29.31-.37s0-.06,0-.08l-.24-.18c-.09-.07-.12-.11,0-.19a.22.22,0,0,0,0-.35l-.18-.15c-.09-.09-.25-.17,0-.31a.1.1,0,0,0,0,0c0-.23.06-.46-.08-.67a.37.37,0,0,0-.53-.07,2.19,2.19,0,0,0-.37.53c0,.08,0,.13,0,.19s.22.16.19.33a.21.21,0,0,0,0,.07c.15.3.15.3-.07.55"/><path class="cls-4" d="M27.25,45.45a.93.93,0,0,0,.46.1c.07,0,.08,0,.1.08s.11.23.25.29.06.1.07.16a.67.67,0,0,0,.2.4.52.52,0,0,1,.16.37.7.7,0,0,0,.17.43c.24.33.43.69.68,1a1.41,1.41,0,0,0,1,.65c.08,0,.12-.07.22,0a.49.49,0,0,1-.16.24.52.52,0,0,0-.18.35c0,.13-.05.25-.23.29a.68.68,0,0,0-.41.32,1.31,1.31,0,0,1-.17.28.88.88,0,0,1-.33-.36,9.78,9.78,0,0,1-1.76-4.06c0-.16-.06-.33-.08-.49"/><path class="cls-4" d="M28.53,39s0,.09,0,.14c-.09.32-.19.64-.27,1,0,.14-.09.19-.23.16h-.11A9.81,9.81,0,0,1,28.53,39"/><path class="cls-4" d="M29,38.24a.29.29,0,0,1-.24.37l.24-.37"/><path class="cls-4" d="M28.57,38.94l0,0,0,0"/><path class="cls-4" d="M45.5,44.2h1.37c.1,0,.13,0,.13.14a9.75,9.75,0,0,1-1.19,4.44c-.05.09-.09.08-.16,0a10,10,0,0,0-2-.78c-.1,0-.15,0-.11-.17A14.36,14.36,0,0,0,44,44.36c0-.13,0-.16.17-.16H45.5"/><path class="cls-4" d="M41.08,45.5a.58.58,0,0,0,.21,0,.36.36,0,0,1,.47.09c.06.07.09,0,.11-.05a.31.31,0,0,1,.36-.22.13.13,0,0,0,.16-.12.54.54,0,0,1,.18-.27.16.16,0,0,0,.07-.14c0-.14,0-.28,0-.42s0-.14.15-.14h.75c.12,0,.15,0,.15.15a14,14,0,0,1-.35,2.88c0,.2-.1.39-.14.58s0,.11-.14.09a21.77,21.77,0,0,0-2.54-.45c-.07,0-.1,0-.09-.11a14.53,14.53,0,0,0,.13-1.48c0-.07.21-.25.28-.24s0,0,0,.05l.06.2c0,.11.07.16.18.12s.13,0,.13-.07.07-.2,0-.28a.9.9,0,0,0-.17-.14"/><path class="cls-4" d="M44,43.84l-.06-1.12c0-.08,0-.13.09-.11s.33,0,.43-.24a6.08,6.08,0,0,0,.33-.62,1.17,1.17,0,0,0,.06-.64,1.18,1.18,0,0,1,0-.22c.08.09.13.16.19.24a2.68,2.68,0,0,1,.07-.27c.12.13.2,0,.28,0a.5.5,0,0,0,.08-.07.66.66,0,0,1,.81-.21.2.2,0,0,1,.15.12A10.1,10.1,0,0,1,47,43.14c0,.23,0,.47,0,.7Z"/><path class="cls-4" d="M45.61,49.12a8.66,8.66,0,0,1-1,1.39,9.68,9.68,0,0,1-1.35,1.29.18.18,0,0,1-.24,0,7,7,0,0,0-1-.41c-.13,0-.11-.09-.05-.18.17-.25.33-.51.48-.77a12.2,12.2,0,0,0,.87-2.08c0-.08,0-.13.15-.1a10.69,10.69,0,0,1,2,.77l.09.06"/><path class="cls-4" d="M33.13,47.82a.83.83,0,0,1,0,.12.27.27,0,0,0,0,.37c.07.08,0,.2.07.28a3.44,3.44,0,0,0,.5.7.4.4,0,0,0,.37.12c.14,0,.14.05.12.14a.9.9,0,0,1-.08.23c0,.08,0,.11.07.11s.12,0,.14.12.12.45.19.68,0,.12-.08.14a11.73,11.73,0,0,0-1.65.42c-.11,0-.13,0-.18-.1a10.6,10.6,0,0,1-1.21-2.4c-.06-.15-.11-.31-.16-.47s0-.09,0-.11a18.52,18.52,0,0,1,1.86-.35"/><path class="cls-4" d="M40,50.41c.17.06.32.07.47.14a.56.56,0,0,0,.46,0c-.16.38.19.23.31.33-.15.23-.15.22-.41.16s-.64-.15-1-.21c-.08,0-.11,0-.08-.14s.1-.33.14-.49a.35.35,0,0,1,.14-.23c.07,0,.14-.12.21-.18s0,0,0,0c-.22,0-.22,0-.17-.2s.16-.27.19-.43-.06-.26,0-.4.1-.59.14-.89c0-.07,0-.14.13-.12.82.11,1.64.24,2.44.43.13,0,.14.08.1.2a12.84,12.84,0,0,1-.62,1.55c-.07.15-.25.18-.34.31s-.05,0-.07,0l-.14-.1a.48.48,0,0,0-.46-.14.27.27,0,0,1-.27-.05.07.07,0,0,0-.11,0L41,50c-.15.13-.16.13-.2-.06s-.07-.11-.17-.1a.46.46,0,0,0-.41.3,1.74,1.74,0,0,1-.15.26"/><path class="cls-4" d="M36,48.67a.21.21,0,0,0,.14,0l.08,0c0,.18.21,0,.29.13s0,.06,0,.09,0,.29,0,.44a.54.54,0,0,0,.16.45s.07,0,.07.08,0,.11,0,.14-.07,0-.09-.07-.14-.11-.21-.17-.06,0-.09,0l-.46.37c.21,0,.4-.06.57.07s.3.21.29.44a17,17,0,0,0-1.74.16c-.09,0-.12,0-.14-.1s-.1-.31-.13-.46-.08-.18,0-.32,0-.32,0-.48a.06.06,0,0,0-.06-.05c-.14,0-.15-.07-.18-.18s0-.41,0-.62a.16.16,0,0,1,.07-.13,1.8,1.8,0,0,1,.62-.37c.08,0,.14-.06.12-.16a.1.1,0,0,1,.1-.14c.13,0,.17-.16.31-.16a.18.18,0,0,1,.18.09,1,1,0,0,1,.21.77,1.92,1.92,0,0,0,0,.24"/><path class="cls-4" d="M37,52.59c0,.39,0,.78,0,1.16,0,.16-.05.17-.17.13a1.85,1.85,0,0,1-.82-.61,6.74,6.74,0,0,1-1.1-2.15c0-.08,0-.11.07-.12a16.58,16.58,0,0,1,1.73-.14c.07,0,.12,0,.11.09a.17.17,0,0,0,0,.15.66.66,0,0,1,.13.49c0,.34,0,.67,0,1"/><path class="cls-4" d="M40.3,53.43s.06-.12,0-.14,0,0-.07-.06-.14-.13-.23,0a.14.14,0,0,1-.18,0,.54.54,0,0,0-.39-.06l-.16,0a.82.82,0,0,0-.44.21,1,1,0,0,1-.64.25,2.11,2.11,0,0,1,0-.75.36.36,0,0,1,.22-.27c.18-.08.37-.17.55-.27a1.14,1.14,0,0,0,.32-.3.41.41,0,0,1,.27-.18.7.7,0,0,0,.47-.24.61.61,0,0,1,.42-.19c-.11.23.11.23.21.28.28.17.39.12.53-.18,0-.05,0-.13.1-.11s.06.09,0,.15.07.14.13.17a.16.16,0,0,1,.1.18,1,1,0,0,1-.18.62c-.16.25-.37.45-.53.68a.33.33,0,0,1-.32.18c-.07,0-.11.06-.18.07l0,0"/><path class="cls-4" d="M39.85,48.34a.47.47,0,0,0,.06-.09.31.31,0,0,0-.21-.43s0,0-.05,0c-.17.18-.36.33-.37.61,0,.1,0,.16.09.2s.2.23.39.1c0,0,.13,0,.2.07s0,.28-.12.29c-.31,0-.4.25-.55.44l0,0s0,0,0,0c-.18-.24-.18-.24-.45-.1a1.53,1.53,0,0,0-.33.29c-.17.19-.33.4-.62.39-.06,0-.09,0-.1.1v.05c0,.32,0,.33-.36.3-.07,0-.08,0-.09-.09a.41.41,0,0,1,.22-.45c0-.08-.17-.09-.18-.17a2.27,2.27,0,0,1,0-.58s0,0,.07-.06a1.74,1.74,0,0,0,.62-.35.13.13,0,0,0,.05-.12.75.75,0,0,0-.13-.71.26.26,0,0,1,0-.29.27.27,0,0,1,.42-.14,1.1,1.1,0,0,0,.57,0,2.38,2.38,0,0,1,.88.08c.1,0,.18,0,.28,0s.11,0,.09.12-.06.44-.1.66c-.07,0-.06-.12-.14-.08l0,0"/><path class="cls-4" d="M30,48.53l.82-.24c.09,0,.11,0,.13.07a10.66,10.66,0,0,0,1.38,2.91c.07.1,0,.11-.06.14l-.8.33c-.17.08-.25.06-.35-.11a.36.36,0,0,0,0-.09c-.13-.19-.13-.2-.34-.09s-.09,0-.14,0a11.77,11.77,0,0,1-.87-.86.15.15,0,0,1,0-.18.62.62,0,0,1,.51-.4c.08,0,.11-.05.14-.12s.15-.27.15-.44.06-.08.09-.12a.74.74,0,0,0,.26-.58c0-.06,0-.11-.11-.11s-.27-.08-.42,0-.21,0-.33-.1"/><path class="cls-4" d="M36.12,53.78a1.12,1.12,0,0,1-.38-.09,6,6,0,0,1-2.71-2c-.18-.21-.18-.22.1-.3.45-.13.9-.24,1.36-.33.11,0,.14,0,.18.11a8.74,8.74,0,0,0,.78,1.74,4.41,4.41,0,0,0,.67.84"/><path class="cls-4" d="M42.8,43.49c.06,0,.1,0,.1-.08,0-.52,0-1,0-1.56,0-.15-.14-.26-.21-.39a0,0,0,0,0-.06,0c-.18.11-.37,0-.56,0a.17.17,0,0,1-.19-.13.16.16,0,0,1,.08-.19l.65-.54c0,.15.22.16.16.36.14-.2.37-.14.54-.21s.08,0,.09.09c.09.39.16.78.22,1.17.07.59.12,1.17.14,1.76,0,.15-.05.18-.18.18h-.76a.31.31,0,0,0,0-.45"/><path class="cls-4" d="M37.61,53.11a.71.71,0,0,1,.15.54.49.49,0,0,1-.39.25c-.1,0-.08,0-.08-.1V51.51c0-.08,0-.16.1-.17s.1-.27,0-.37a.31.31,0,0,0,0-.1h.44s.08,0,.07.05,0,.19-.09.24l-.09,0c-.15,0-.1.1-.11.18s0,.12.12.13l.61.08s.09,0,.09-.06.08-.2,0-.28l-.23-.17c.19-.17.24-.16.49,0l.1-.18c0,.18,0,.32,0,.48l.31-.24s0,.07,0,.1.18-.18.33-.23a2.11,2.11,0,0,1-.49.95,3,3,0,0,1-.71.41.44.44,0,0,0-.28.34.39.39,0,0,1-.24.33s0,0-.08.06"/><path class="cls-4" d="M34.86,53.62a9.32,9.32,0,0,1-3.43-1.54c.36-.18.72-.32,1.08-.46.09,0,.12,0,.16.09a7,7,0,0,0,1.78,1.66l.41.25"/><path class="cls-4" d="M31.35,47.86a.69.69,0,0,1,.16-.5c.07-.11,0-.22,0-.33s0-.12.12-.12a2.67,2.67,0,0,1,.74.18.16.16,0,0,1,.11.1l.11.18c.15.22.15.22-.1.27l-1.15.22"/><path class="cls-4" d="M41.11,45.23c-.06-.1-.11-.2-.17-.29s-.15-.21,0-.31.08-.15.11-.23a.3.3,0,0,1,.31-.2H42c.09,0,.12,0,.09.11s0,.18-.07.26-.17.18-.28.23h0c-.11-.18-.16,0-.21,0a4.83,4.83,0,0,0-.42.37"/><path class="cls-4" d="M39.26,47.31c.19,0,.21-.17.25-.3a.46.46,0,0,1,.25-.28,1.1,1.1,0,0,0,.39-.46.14.14,0,0,0,0-.15,3.22,3.22,0,0,1-.17-.68.07.07,0,0,1,0,0s-.1-.07,0-.13.1,0,.16,0a1.15,1.15,0,0,1,0-.16s0-.08.08-.08,0,0,0,.07.13,0,.12.16,0,.24-.18.27-.08.09,0,.13.16.2.14.35c0,.42-.07.85-.11,1.27,0,0,0,.13-.08.13s-.18,0-.11-.14.07-.16.11-.23,0-.12-.08-.1h-.16a.19.19,0,0,0-.21.14s0,0,0,.06c-.1.22-.1.22-.37.17"/><path class="cls-4" d="M42.88,52.08a9.79,9.79,0,0,1-1.4.84.43.43,0,0,1,.12-.28,1.75,1.75,0,0,0,.28-.52s0-.07,0-.09,0-.19,0-.29.06-.08.12-.05a8.74,8.74,0,0,1,.9.39"/><path class="cls-4" d="M42.34,43.93h-.52a3.37,3.37,0,0,0,.65-1.63,1.37,1.37,0,0,1,0,.57.08.08,0,0,1,0,0c-.09.28-.07.33.2.49a.34.34,0,0,1-.14.24c-.08,0-.22.14-.17.29"/><path class="cls-4" d="M43.86,42c-.07-.39-.13-.77-.22-1.14,0-.07,0-.12.09-.11a2,2,0,0,0,.31-.07c.06,0,.06-.06.05-.11s0-.24-.05-.38a1.06,1.06,0,0,1,.33.25c.05.05,0,.08,0,.11a1.56,1.56,0,0,0-.39.67,1.13,1.13,0,0,0,0,.45.49.49,0,0,1-.09.33"/><path class="cls-4" d="M27.5,43.87c-.05,0-.08-.06-.06-.08.16-.18.16-.41.25-.61s.08-.16.23-.13a.27.27,0,0,0,.16.36c.12.06.25,0,.37-.15.05.18.23.24.35.37a.42.42,0,0,1-.22,0c-.23,0-.46,0-.69,0s-.34,0-.39.23"/><path class="cls-4" d="M44.56,40.77a.87.87,0,0,0,0,.36,1.19,1.19,0,0,1-.24.93,2.12,2.12,0,0,1-.15.21.36.36,0,0,1,0-.23.59.59,0,0,0,0-.41.91.91,0,0,1,.35-.86"/><path class="cls-4" d="M28.27,44.92a.79.79,0,0,0-.07.44.38.38,0,0,0-.49-.1.26.26,0,0,1-.36-.25l0-.35c.07,0,.08.05.1.08s.22.2.38.08.13,0,.19,0,.15.13.28.09"/><path class="cls-4" d="M38.83,49.75c0,.14,0,.26.08.35s0,.07,0,.1a1.08,1.08,0,0,0-.28.39c0,.06-.27.13-.33.1l0,0c.05-.16-.11-.17-.18-.25a2.17,2.17,0,0,0,.79-.66"/><path class="cls-4" d="M44,43.84h3c0,.13-.08.09-.14.09H44.1c-.07,0-.13,0-.11-.1"/><path class="cls-4" d="M41.74,50.38c-.13,0-.27,0-.31.18s-.09,0-.14,0-.06,0,0,0,0-.23-.19-.24a.65.65,0,0,1,.68.09"/><path class="cls-4" d="M39.66,51.16s0-.1.09-.08l.43.08c-.23.09-.38.29-.62.33,0-.08.06-.14,0-.22s.15,0,.06-.11"/><path class="cls-4" d="M39.24,50.05a.45.45,0,0,0,0-.08s0-.08,0-.13c0-.2.18-.18.31-.19s.13-.08.14,0,0,.2-.12.22-.25,0-.31.16"/><path class="cls-4" d="M41.65,51.21a.35.35,0,0,0,0-.18l-.12-.15c.11,0,.2,0,.2-.17.2.17.19.26,0,.5"/><path class="cls-4" d="M46.25,40.36l-.31-.45c.16,0,.27.17.31.45"/><path class="cls-4" d="M30,45.84c.1.18.19.36.28.54,0,0,0,0,0,.06a0,0,0,0,1-.05,0,2.28,2.28,0,0,0-.23-.56l0,0"/><path class="cls-4" d="M39.66,51.16c.09.09,0,.08-.06.11l-.16,0c.06-.08.16,0,.22-.09"/><path class="cls-4" d="M28.46,42.83c.15,0,.16,0,.08.18l-.08-.18"/><path class="cls-4" d="M29.1,47.39a.34.34,0,0,1,.15.26.4.4,0,0,1-.14-.26Z"/><path class="cls-4" d="M41.62,51.23h0s0,0,0,0h0"/><path class="cls-4" d="M40.32,53.46l0,0s0,0,0,0l0,0"/><path class="cls-4" d="M29.11,47.39h0s0,0,0,0Z"/><path class="cls-4" d="M39.88,48.37h0s0,0,0,0l0,0"/><path class="cls-4" d="M42.42,36.58l.64-.29a.13.13,0,0,1,.17,0A10.28,10.28,0,0,1,45,38.14c-.18.09-.2.09-.27,0l-.19-.27c0,.06,0,.1-.05.14s0,.06-.08,0a.69.69,0,0,0-.5-.15s-.12,0-.07-.08,0-.09,0-.13-.19-.2-.27-.3-.16-.28-.38-.22a.22.22,0,0,1-.19-.08c-.17-.19-.41-.3-.56-.5"/><path class="cls-4" d="M38.52,34.43a5.54,5.54,0,0,1,1.84,1,6.9,6.9,0,0,1,1,1s.07.05,0,.09-.08,0-.11,0-.13-.15-.2-.23-.11-.13-.21-.09-.09,0-.11-.07a1.62,1.62,0,0,0-.84-.85s0,0,0,0c-.2.12-.39-.05-.6,0l.24.33a.15.15,0,0,1-.16,0,2.4,2.4,0,0,0-.47-.43,1.26,1.26,0,0,1-.33-.42c0-.06.09-.13,0-.25"/><path class="cls-4" d="M41.85,35.42a7,7,0,0,1,1,.64c-.21.11-.41.19-.62.28,0,0-.06,0-.07,0s-.21-.06-.27-.16a.08.08,0,0,0-.1,0c-.36.14-.52-.11-.71-.37a.73.73,0,0,0,.67-.13c.09-.07.11-.12,0-.21l0,0"/><path class="cls-4" d="M40.78,35.48a7.15,7.15,0,0,0-1.35-1,2.89,2.89,0,0,1,.58.14q.39.12.78.27c.12.05.17.08.1.22a2.42,2.42,0,0,0-.11.35"/><path class="cls-4" d="M40.13,36.12l-.19-.32s0,0,0-.09,0,0,.07,0,.08,0,0,.07,0,.11.08.13.13.14,0,.22"/><path class="cls-4" d="M41.83,35.44l0,0h0l0,0"/><path class="cls-4" d="M34.86,34.5c-.45.23-.79.63-1.31.72a.74.74,0,0,0-.45.35,1.8,1.8,0,0,0-.3.64c0,.22-.18.32-.44.25l-.18-.07c-.11,0-.18-.08-.14-.21s0-.11-.09-.15-.14-.24,0-.32A9.78,9.78,0,0,1,34.8,34.5h.06"/><path class="cls-4" d="M30.58,37.41c.1-.13.05-.18-.08-.2l-.33-.08c.28-.28.57-.54.87-.79.05,0,.09-.06.16,0a.73.73,0,0,0,.5.18c.13,0,.27.09.4.15a.52.52,0,0,1-.62.31.27.27,0,0,0-.13,0,1.4,1.4,0,0,0-.65.39.13.13,0,0,1-.12,0"/><path class="cls-4" d="M34.87,34.85a2.72,2.72,0,0,1,.47-.25c.06,0,.12,0,.14,0s0,.13-.08.16a1.76,1.76,0,0,1-.53,0"/><path class="cls-4" d="M34.81,34.91l-.26.47,0,0c-.18-.2-.18-.2,0-.34l.22-.14,0,0"/><path class="cls-4" d="M31.63,36.15l-.19-.08c.13-.13.14-.13.21.07h0"/><path class="cls-4" d="M34.33,35.39c-.07,0-.13,0-.13-.08s.06-.07.1-.1,0,.11,0,.18"/><path class="cls-4" d="M31.65,36.14l0,0s0,0,0,0h0"/><path class="cls-4" d="M30.08,43.39a.19.19,0,0,0-.09-.14c-.14-.08-.13-.17,0-.27L30,42.9c.05-.06.09-.16.19-.11s.06.12.07.2a.35.35,0,0,1-.22.4"/><path class="cls-4" d="M30.32,44.64c-.13-.14-.11-.28-.1-.47a.63.63,0,0,1,.1.47"/><path class="cls-4" d="M30.18,43.66c.06.06.16.09.15.2s0,.07-.06.07-.07,0-.07-.06a.37.37,0,0,0,0-.18l0,0"/><path class="cls-4" d="M30.16,43.69l0,0,0,0,0,0"/><path class="cls-2" d="M223.07,48.62a1.87,1.87,0,1,0-1.87,1.87,1.87,1.87,0,0,0,1.87-1.87"/></svg>