<svg id="Layer_1" data-name="Layer 1" xmlns="http://www.w3.org/2000/svg" viewBox="0 0 171.05 26"><defs><style>.cls-1{fill:#253d83;}</style></defs><title>Artboard 1 copy 9</title><path class="cls-1" d="M16,18.31a8.25,8.25,0,0,1-6.2,2.21,8.24,8.24,0,0,1-6.19-2.21Q.75,15.61.75,10.51t2.88-7.8A8.24,8.24,0,0,1,9.82.5,8.25,8.25,0,0,1,16,2.71q2.86,2.6,2.87,7.8T16,18.31m-2.47-2.87a7.76,7.76,0,0,0,1.38-4.93,7.74,7.74,0,0,0-1.38-4.92A4.51,4.51,0,0,0,9.82,3.85,4.57,4.57,0,0,0,6.08,5.58a7.64,7.64,0,0,0-1.4,4.93,7.64,7.64,0,0,0,1.4,4.93,4.57,4.57,0,0,0,3.74,1.73,4.53,4.53,0,0,0,3.73-1.73"/><path class="cls-1" d="M38,6.06a4.14,4.14,0,0,1,1.63,1.25,4,4,0,0,1,.79,1.8,11.94,11.94,0,0,1,.13,2.07l0,8.81H36.79v-8.9a2.94,2.94,0,0,0-.26-1.31,1.81,1.81,0,0,0-1.79-1,2.12,2.12,0,0,0-2.1,1.26,4.08,4.08,0,0,0-.29,1.6V20H28.67V11.66a4.64,4.64,0,0,0-.26-1.8,1.79,1.79,0,0,0-1.81-1,2.17,2.17,0,0,0-2.11,1,4,4,0,0,0-.29,1.71V20H20.49V6H24v2a6,6,0,0,1,1.29-1.55,4.38,4.38,0,0,1,2.76-.82,4.36,4.36,0,0,1,2.59.7,4.19,4.19,0,0,1,1.21,1.69,4.56,4.56,0,0,1,1.78-1.81,5.38,5.38,0,0,1,2.52-.58A4.88,4.88,0,0,1,38,6.06"/><path class="cls-1" d="M54.15,6.81a4.6,4.6,0,0,1,1.38,3.76V20H51.78v-8.5a4,4,0,0,0-.29-1.7,2.06,2.06,0,0,0-2-1.08,2.54,2.54,0,0,0-2.54,1.58,5.64,5.64,0,0,0-.35,2.13V20H42.9V6h3.54v2a6.2,6.2,0,0,1,1.33-1.55,4.57,4.57,0,0,1,2.85-.85,5.33,5.33,0,0,1,3.53,1.14"/><path class="cls-1" d="M67,6.29a5.74,5.74,0,0,1,2.42,2.07,6.89,6.89,0,0,1,1.12,2.89A19.05,19.05,0,0,1,70.64,14H60.46a3.34,3.34,0,0,0,1.46,3,3.73,3.73,0,0,0,2,.52,3.09,3.09,0,0,0,2-.64,3.15,3.15,0,0,0,.75-1h3.73a4.55,4.55,0,0,1-1.35,2.53,6.8,6.8,0,0,1-5.26,2,7.6,7.6,0,0,1-4.93-1.72c-1.42-1.15-2.14-3-2.14-5.6A7.61,7.61,0,0,1,58.7,7.57a6.76,6.76,0,0,1,5-1.94A7.89,7.89,0,0,1,67,6.29M61.52,9.45a3.74,3.74,0,0,0-1,2.16h6.3a3.06,3.06,0,0,0-1-2.21,3.2,3.2,0,0,0-2.17-.75,2.92,2.92,0,0,0-2.18.8"/><path class="cls-1" d="M104.27,7a3.7,3.7,0,0,0-2.19-2.71,5.42,5.42,0,0,0-2.17-.42,4.7,4.7,0,0,0-3.75,1.72,7.83,7.83,0,0,0-1.47,5.18c0,2.33.53,4,1.59,4.94a5.25,5.25,0,0,0,3.62,1.44A4.71,4.71,0,0,0,103.16,16a4.92,4.92,0,0,0,1.56-3h-4.37V9.84h7.88V20h-2.62l-.4-2.36a8.69,8.69,0,0,1-2,1.89,7.26,7.26,0,0,1-3.85,1,8,8,0,0,1-6.16-2.6,9.93,9.93,0,0,1-2.5-7.16,10.52,10.52,0,0,1,2.52-7.36A8.63,8.63,0,0,1,99.86.59a8.72,8.72,0,0,1,5.79,1.83A6.78,6.78,0,0,1,108.16,7Z"/><path class="cls-1" d="M118.42,5.68l.32,0V9.44l-.62,0h-.43a3,3,0,0,0-3,1.44,5.64,5.64,0,0,0-.42,2.49V20h-3.69V6h3.5V8.44a7.6,7.6,0,0,1,1.47-1.91,4.06,4.06,0,0,1,2.67-.86h.17"/><path class="cls-1" d="M131.5,18.28a7.7,7.7,0,0,1-10.76,0A8.08,8.08,0,0,1,119,13a8.12,8.12,0,0,1,1.77-5.24,7.63,7.63,0,0,1,10.76,0A8.12,8.12,0,0,1,133.27,13a8.08,8.08,0,0,1-1.77,5.26m-2.93-2a5.32,5.32,0,0,0,.86-3.24,5.32,5.32,0,0,0-.86-3.24,3.25,3.25,0,0,0-4.93,0,5.25,5.25,0,0,0-.87,3.24,5.25,5.25,0,0,0,.87,3.24,3.24,3.24,0,0,0,4.93,0"/><path class="cls-1" d="M138.48,6v8.43a4.36,4.36,0,0,0,.28,1.79,1.94,1.94,0,0,0,2,1.07,2.57,2.57,0,0,0,2.56-1.51,5.52,5.52,0,0,0,.36-2.17V6h3.7V20h-3.55V18l-.26.38A2.21,2.21,0,0,1,143,19,5.18,5.18,0,0,1,141.38,20a5.58,5.58,0,0,1-1.87.28q-3.1,0-4.18-2.23a8.57,8.57,0,0,1-.6-3.63V6Z"/><path class="cls-1" d="M161.6,7.51a7.43,7.43,0,0,1,1.71,5.31,8.36,8.36,0,0,1-1.67,5.63,5.4,5.4,0,0,1-4.31,1.94,4.55,4.55,0,0,1-2.79-.83,5.38,5.38,0,0,1-1.18-1.35V25.5h-3.62V6h3.5V8.07a6.28,6.28,0,0,1,1.26-1.44,4.72,4.72,0,0,1,2.92-.93,5.51,5.51,0,0,1,4.18,1.81m-2.8,2.63a2.62,2.62,0,0,0-2.42-1.25,2.75,2.75,0,0,0-2.76,1.89,7.06,7.06,0,0,0-.39,2.54,4,4,0,0,0,1.31,3.43,3,3,0,0,0,1.84.57,2.67,2.67,0,0,0,2.35-1.18,5.43,5.43,0,0,0,.81-3.14,5.51,5.51,0,0,0-.74-2.86"/><polygon class="cls-1" points="76.13 8.46 74.74 6.03 70.26 6.03 73.96 11.62 76.13 8.46"/><polygon class="cls-1" points="74.49 19.99 70.05 19.99 79.36 6.03 83.71 6.03 74.49 19.99"/><polyline class="cls-1" points="80 14.17 83.89 20 79.33 20 77.84 17.39"/><polygon class="cls-1" points="166.35 0.61 166.35 1.26 165.26 1.26 165.26 4.26 164.49 4.26 164.49 1.26 163.4 1.26 163.4 0.61 166.35 0.61"/><path class="cls-1" d="M169.21.61h1.09V4.26h-.71V1.79c0-.07,0-.17,0-.29V1.2l-.69,3.06h-.74l-.69-3.06c0,.07,0,.17,0,.3V4.26h-.71V.61h1.11l.66,2.87Z"/></svg>