<svg id="Layer_1" data-name="Layer 1" xmlns="http://www.w3.org/2000/svg" viewBox="0 0 244.1 52.43"><defs><style>.cls-1{fill:#fff;}</style></defs><title>Artboard 1 copy 8</title><path class="cls-1" d="M67.84,31.91A3.58,3.58,0,0,0,69,33.22a4.8,4.8,0,0,0,1.63.75,7.75,7.75,0,0,0,1.94.24A9.54,9.54,0,0,0,74,34.09a5,5,0,0,0,1.45-.43,3.23,3.23,0,0,0,1.14-.89A2.25,2.25,0,0,0,77,31.33a2,2,0,0,0-.6-1.52,4.89,4.89,0,0,0-1.57-1,16.31,16.31,0,0,0-2.19-.67c-.82-.2-1.65-.41-2.49-.65a23.78,23.78,0,0,1-2.52-.79,8.81,8.81,0,0,1-2.2-1.21,5.9,5.9,0,0,1-1.57-1.86,5.73,5.73,0,0,1-.59-2.7,6,6,0,0,1,.76-3.08,6.81,6.81,0,0,1,2-2.19,8.75,8.75,0,0,1,2.78-1.29,11.86,11.86,0,0,1,3.1-.42,14.67,14.67,0,0,1,3.48.41,8.67,8.67,0,0,1,3,1.3,6.69,6.69,0,0,1,2,2.31,7.07,7.07,0,0,1,.76,3.41H76.24a4.13,4.13,0,0,0-.43-1.71,2.92,2.92,0,0,0-1-1.07,4.21,4.21,0,0,0-1.4-.54,8.53,8.53,0,0,0-1.73-.17,6.42,6.42,0,0,0-1.23.13,3.22,3.22,0,0,0-1.11.46,2.76,2.76,0,0,0-.83.8,2.25,2.25,0,0,0-.32,1.23,2,2,0,0,0,.26,1.1,2.25,2.25,0,0,0,1,.77,13.16,13.16,0,0,0,2.1.72l3.51.9c.43.09,1,.24,1.79.47a8.44,8.44,0,0,1,2.28,1.08,6.89,6.89,0,0,1,2,2,5.73,5.73,0,0,1,.82,3.18,7.16,7.16,0,0,1-.61,2.94A6.28,6.28,0,0,1,79.49,36a8.81,8.81,0,0,1-3,1.54,14.39,14.39,0,0,1-4.15.55,14.72,14.72,0,0,1-3.7-.47,9.19,9.19,0,0,1-3.16-1.47,7.17,7.17,0,0,1-2.18-2.55,7.67,7.67,0,0,1-.78-3.69h4.91A4.19,4.19,0,0,0,67.84,31.91Z"/><path class="cls-1" d="M88.94,14.53v8.69H89a5.25,5.25,0,0,1,2.23-2.11,6,6,0,0,1,2.65-.67,7.9,7.9,0,0,1,3,.5,4.66,4.66,0,0,1,1.86,1.39,5.58,5.58,0,0,1,1,2.17,13.67,13.67,0,0,1,.27,2.83V37.6H95.43V28.17a5.89,5.89,0,0,0-.64-3.09,2.51,2.51,0,0,0-2.3-1,3.15,3.15,0,0,0-2.71,1.12,6.17,6.17,0,0,0-.84,3.66V37.6H84.35V14.53Z"/><path class="cls-1" d="M103.22,26a5.24,5.24,0,0,1,.81-2.68,5.39,5.39,0,0,1,1.81-1.71,7.76,7.76,0,0,1,2.47-.92,14.2,14.2,0,0,1,2.76-.28,18.44,18.44,0,0,1,2.55.18,7.72,7.72,0,0,1,2.36.7,4.7,4.7,0,0,1,1.75,1.43,4.05,4.05,0,0,1,.68,2.44v8.69a18.75,18.75,0,0,0,.13,2.17A3.86,3.86,0,0,0,119,37.6h-4.66c-.08-.26-.15-.52-.21-.79A7.53,7.53,0,0,1,114,36a5.9,5.9,0,0,1-2.58,1.59,10.51,10.51,0,0,1-3,.45,8.35,8.35,0,0,1-2.23-.29,5.06,5.06,0,0,1-1.81-.91,4.05,4.05,0,0,1-1.21-1.55A5.22,5.22,0,0,1,102.7,33a4.94,4.94,0,0,1,.5-2.34,4.4,4.4,0,0,1,1.29-1.47,6,6,0,0,1,1.81-.82,21,21,0,0,1,2.06-.44c.68-.11,1.36-.19,2-.26a11.61,11.61,0,0,0,1.78-.29,3.12,3.12,0,0,0,1.23-.56,1.26,1.26,0,0,0,.42-1.09,2.31,2.31,0,0,0-.25-1.17,1.68,1.68,0,0,0-.64-.68,2.68,2.68,0,0,0-.94-.33,8.2,8.2,0,0,0-1.15-.08,3.54,3.54,0,0,0-2.13.58,2.61,2.61,0,0,0-.9,1.94Zm10.6,3.4a2.22,2.22,0,0,1-.73.4,6.14,6.14,0,0,1-.94.24,10.54,10.54,0,0,1-1.05.16c-.36.05-.73.1-1.1.17a8.76,8.76,0,0,0-1,.25,3.15,3.15,0,0,0-.88.44,2.08,2.08,0,0,0-.59.69,2.15,2.15,0,0,0-.23,1.07,2,2,0,0,0,.23,1,1.72,1.72,0,0,0,.61.67,2.76,2.76,0,0,0,.9.34,6.26,6.26,0,0,0,1.07.09,4.07,4.07,0,0,0,2.1-.45,3,3,0,0,0,1.1-1.08,3.55,3.55,0,0,0,.44-1.28,9.55,9.55,0,0,0,.08-1Z"/><path class="cls-1" d="M126.22,20.9V24h.07a5.32,5.32,0,0,1,.87-1.44,5.87,5.87,0,0,1,1.26-1.13,6.45,6.45,0,0,1,1.52-.73,5.57,5.57,0,0,1,1.68-.26,3.55,3.55,0,0,1,1,.17v4.26c-.21,0-.47-.08-.77-.11a6.78,6.78,0,0,0-.88-.05,4.87,4.87,0,0,0-2.13.42,3.61,3.61,0,0,0-1.4,1.15,4.5,4.5,0,0,0-.76,1.69,8.78,8.78,0,0,0-.23,2.1V37.6h-4.59V20.9Z"/><path class="cls-1" d="M138.66,33.59a4.67,4.67,0,0,0,5.36.31,2.85,2.85,0,0,0,1.23-1.47h4a7.67,7.67,0,0,1-3,4.3A8.77,8.77,0,0,1,141.47,38a9.51,9.51,0,0,1-3.55-.63,7.39,7.39,0,0,1-2.68-1.79,8,8,0,0,1-1.7-2.78,10.15,10.15,0,0,1-.6-3.56,9.78,9.78,0,0,1,.62-3.49A8.33,8.33,0,0,1,135.3,23a8.14,8.14,0,0,1,2.7-1.86,8.7,8.7,0,0,1,3.47-.68,7.94,7.94,0,0,1,3.72.83,7.43,7.43,0,0,1,2.6,2.21,9,9,0,0,1,1.47,3.17,11.69,11.69,0,0,1,.32,3.71H137.53A4.64,4.64,0,0,0,138.66,33.59Zm5.19-8.78a3.21,3.21,0,0,0-2.51-.91,4.06,4.06,0,0,0-1.82.37,3.5,3.5,0,0,0-1.16.92,3.32,3.32,0,0,0-.62,1.17,5,5,0,0,0-.21,1.1H145A5.21,5.21,0,0,0,143.85,24.81Z"/><path class="cls-1" d="M155.11,20.9v2.45h.06a6.53,6.53,0,0,1,8.21-2.2,3.64,3.64,0,0,1,1.77,2.2,5.89,5.89,0,0,1,2.22-2.1,6.28,6.28,0,0,1,3-.74,8.91,8.91,0,0,1,2.28.27,4.81,4.81,0,0,1,1.74.86,3.87,3.87,0,0,1,1.13,1.5,5.48,5.48,0,0,1,.41,2.21V37.6H173.2v-11a7.55,7.55,0,0,0-.13-1.46,3.19,3.19,0,0,0-.48-1.18,2.54,2.54,0,0,0-1-.79,4,4,0,0,0-1.63-.29,4.35,4.35,0,0,0-3.2,1.16,4.23,4.23,0,0,0-1.16,3.11V37.6h-2.75v-11a7.62,7.62,0,0,0-.14-1.49,3.39,3.39,0,0,0-.5-1.18,2.37,2.37,0,0,0-1-.77,3.58,3.58,0,0,0-1.53-.28,4,4,0,0,0-2,.49,4.46,4.46,0,0,0-1.39,1.16,4.55,4.55,0,0,0-.78,1.4,4.06,4.06,0,0,0-.24,1.22V37.6h-2.75V20.9Z"/><path class="cls-1" d="M178.63,25.82A7.8,7.8,0,0,1,180.18,23a7.35,7.35,0,0,1,2.55-1.85,9.35,9.35,0,0,1,7,0A7.37,7.37,0,0,1,192.26,23a7.8,7.8,0,0,1,1.55,2.78,11,11,0,0,1,.52,3.44,10.86,10.86,0,0,1-.52,3.43,7.72,7.72,0,0,1-1.55,2.76,7.1,7.1,0,0,1-2.53,1.84,9.48,9.48,0,0,1-7,0,7.08,7.08,0,0,1-2.55-1.84,7.72,7.72,0,0,1-1.55-2.76,10.86,10.86,0,0,1-.52-3.43A11,11,0,0,1,178.63,25.82ZM181.42,32a5.47,5.47,0,0,0,1.12,2,4.8,4.8,0,0,0,1.66,1.21,5.07,5.07,0,0,0,4,0,4.8,4.8,0,0,0,1.66-1.21A5.47,5.47,0,0,0,191,32a8.25,8.25,0,0,0,.4-2.7,8.23,8.23,0,0,0-.4-2.69,5.74,5.74,0,0,0-1.12-2,4.65,4.65,0,0,0-1.66-1.23,5.07,5.07,0,0,0-4,0,4.73,4.73,0,0,0-1.66,1.23,5.74,5.74,0,0,0-1.12,2,8.23,8.23,0,0,0-.4,2.69A8.25,8.25,0,0,0,181.42,32Z"/><path class="cls-1" d="M199.08,20.9v2.65h.06a5.78,5.78,0,0,1,5.43-3,7.29,7.29,0,0,1,2.75.45,4.46,4.46,0,0,1,1.77,1.26,4.58,4.58,0,0,1,1,1.92,10.56,10.56,0,0,1,.27,2.47v11h-2.74V26.29a3.14,3.14,0,0,0-3.4-3.36,5.58,5.58,0,0,0-2.18.39,4.06,4.06,0,0,0-1.53,1.1,4.64,4.64,0,0,0-.92,1.66,6.64,6.64,0,0,0-.31,2.09V37.6h-2.75V20.9Z"/><path class="cls-1" d="M225.22,36.53A7.59,7.59,0,0,1,220.5,38a8.56,8.56,0,0,1-3.47-.65,6.72,6.72,0,0,1-2.47-1.81,7.78,7.78,0,0,1-1.51-2.78,13.44,13.44,0,0,1-.56-3.52,10,10,0,0,1,.58-3.49A8.5,8.5,0,0,1,214.7,23a7.41,7.41,0,0,1,5.64-2.45,6.88,6.88,0,0,1,3.7.92,7.33,7.33,0,0,1,2.36,2.34,9.18,9.18,0,0,1,1.22,3.1,13.3,13.3,0,0,1,.28,3.2H215.39a6.85,6.85,0,0,0,.26,2.09,4.9,4.9,0,0,0,.94,1.74,4.54,4.54,0,0,0,1.65,1.21,5.71,5.71,0,0,0,2.36.45,4.76,4.76,0,0,0,2.86-.8,3.94,3.94,0,0,0,1.47-2.46h2.71A6.64,6.64,0,0,1,225.22,36.53Zm-.66-10.72a4.82,4.82,0,0,0-1-1.51,4.77,4.77,0,0,0-1.48-1,4.83,4.83,0,0,0-1.89-.37,4.9,4.9,0,0,0-1.92.37,4.31,4.31,0,0,0-1.47,1,4.72,4.72,0,0,0-1,1.5,5.83,5.83,0,0,0-.43,1.83H225A5.69,5.69,0,0,0,224.56,25.81Z"/><path class="cls-1" d="M236.23,39.83a17.31,17.31,0,0,1-.95,2.07,5.84,5.84,0,0,1-1,1.37,3.63,3.63,0,0,1-1.26.78,4.94,4.94,0,0,1-1.6.24,6.24,6.24,0,0,1-1-.07,4.94,4.94,0,0,1-.94-.22V41.48a4.76,4.76,0,0,0,.83.27,3.16,3.16,0,0,0,.79.11,2.34,2.34,0,0,0,1.4-.4,2.49,2.49,0,0,0,.86-1.15l1.13-2.81-6.62-16.6H231l4.88,13.66h.06L240.6,20.9h2.9Z"/><path class="cls-1" d="M26.1.71a25.5,25.5,0,1,0,25.5,25.5A25.5,25.5,0,0,0,26.1.71Zm11,34.74a7.71,7.71,0,0,1-2.2,2.83,10.5,10.5,0,0,1-3.64,1.86,14.14,14.14,0,0,1-2.3.49v2.18H22.16v-2.5l-.4-.07a11.24,11.24,0,0,1-3.83-1.78,8.86,8.86,0,0,1-2.63-3.09,9.05,9.05,0,0,1-.94-4.45H20.3a5.08,5.08,0,0,0,.5,2.38,4.43,4.43,0,0,0,1.35,1.58,5.65,5.65,0,0,0,2,.9,9.18,9.18,0,0,0,2.35.3,12.58,12.58,0,0,0,1.76-.14A6,6,0,0,0,30,35.41a3.91,3.91,0,0,0,1.37-1.07,2.74,2.74,0,0,0,.55-1.74,2.43,2.43,0,0,0-.73-1.84,5.8,5.8,0,0,0-1.89-1.17,20,20,0,0,0-2.66-.82q-1.49-.35-3-.78a25.75,25.75,0,0,1-3.05-1,10.19,10.19,0,0,1-2.66-1.46,6.59,6.59,0,0,1-2.61-5.51,7.34,7.34,0,0,1,.91-3.73,8.57,8.57,0,0,1,2.41-2.64A10.57,10.57,0,0,1,22,12.13l.18,0V9.16H29v2.78c.32.06.66.09,1,.17a10.71,10.71,0,0,1,3.57,1.58A8,8,0,0,1,36,16.49a8.56,8.56,0,0,1,.92,4.12H31a4.84,4.84,0,0,0-.53-2.07,3.37,3.37,0,0,0-1.19-1.29,5.26,5.26,0,0,0-1.7-.67,10.47,10.47,0,0,0-2.09-.19,6.77,6.77,0,0,0-1.48.16,3.83,3.83,0,0,0-1.35.54,3.46,3.46,0,0,0-1,1,2.61,2.61,0,0,0-.39,1.48,2.49,2.49,0,0,0,.32,1.33,2.77,2.77,0,0,0,1.23.94,15.35,15.35,0,0,0,2.54.86l4.23,1.09c.52.11,1.25.29,2.17.57a10.33,10.33,0,0,1,2.76,1.31,8.44,8.44,0,0,1,2.36,2.4,6.86,6.86,0,0,1,1,3.85A8.43,8.43,0,0,1,37.09,35.45Z"/></svg>