<svg id="Layer_1" data-name="Layer 1" xmlns="http://www.w3.org/2000/svg" viewBox="0 0 107.59 22.65"><defs><style>.cls-1{fill:#fff;}.cls-2{fill:#06c;}.cls-3{fill:#f49739;}</style></defs><title>Artboard 5 copy 2</title><path class="cls-1" d="M30.08,13.82a1.69,1.69,0,0,0,.49.57,2,2,0,0,0,.71.32,3.05,3.05,0,0,0,.85.11,5,5,0,0,0,.64-.05,1.92,1.92,0,0,0,.63-.19,1.28,1.28,0,0,0,.5-.39,1,1,0,0,0,.2-.63.87.87,0,0,0-.27-.66,2.15,2.15,0,0,0-.68-.43,6.46,6.46,0,0,0-1-.29L31.1,11.9a10.06,10.06,0,0,1-1.1-.35A3.71,3.71,0,0,1,29,11a2.57,2.57,0,0,1-.69-.81A2.54,2.54,0,0,1,28.09,9a2.65,2.65,0,0,1,.33-1.35,3.07,3.07,0,0,1,.87-1,3.79,3.79,0,0,1,1.22-.56A5.24,5.24,0,0,1,31.86,6a6.27,6.27,0,0,1,1.52.18,3.93,3.93,0,0,1,1.3.57,3,3,0,0,1,.89,1,3.12,3.12,0,0,1,.34,1.49H33.76a1.86,1.86,0,0,0-.19-.74A1.31,1.31,0,0,0,33.14,8a2,2,0,0,0-.62-.24,3.57,3.57,0,0,0-.76-.07,3.27,3.27,0,0,0-.53,0,1.63,1.63,0,0,0-.49.2,1.13,1.13,0,0,0-.36.36.89.89,0,0,0-.14.53,1,1,0,0,0,.11.48.93.93,0,0,0,.45.34,4.73,4.73,0,0,0,.91.31l1.54.4.78.2a3.66,3.66,0,0,1,1,.48,2.83,2.83,0,0,1,.85.87,2.45,2.45,0,0,1,.36,1.39A3.18,3.18,0,0,1,36,14.59a2.85,2.85,0,0,1-.8,1,3.82,3.82,0,0,1-1.32.67,6.2,6.2,0,0,1-1.81.24,6.66,6.66,0,0,1-1.62-.2A4,4,0,0,1,29,15.68a3.09,3.09,0,0,1-.95-1.11A3.3,3.3,0,0,1,27.75,13H29.9A1.91,1.91,0,0,0,30.08,13.82Z"/><path class="cls-1" d="M39.31,6.21V10h0a2.3,2.3,0,0,1,1-.93,2.65,2.65,0,0,1,1.16-.29A3.34,3.34,0,0,1,42.81,9a2,2,0,0,1,.81.61,2.31,2.31,0,0,1,.42.94,6,6,0,0,1,.12,1.24v4.5h-2V12.18a2.56,2.56,0,0,0-.28-1.35,1.09,1.09,0,0,0-1-.45,1.4,1.4,0,0,0-1.19.49,2.68,2.68,0,0,0-.37,1.6v3.84h-2V6.21Z"/><path class="cls-1" d="M45.56,11.25a2.32,2.32,0,0,1,.35-1.18,2.46,2.46,0,0,1,.79-.75,3.4,3.4,0,0,1,1.08-.4A6.21,6.21,0,0,1,49,8.8a8.56,8.56,0,0,1,1.12.08,3.42,3.42,0,0,1,1,.3,2,2,0,0,1,.76.63,1.76,1.76,0,0,1,.3,1.07v3.8a7.23,7.23,0,0,0,.06,1,1.73,1.73,0,0,0,.19.68h-2a2.25,2.25,0,0,1-.09-.35,2.23,2.23,0,0,1,0-.36,2.61,2.61,0,0,1-1.13.69,4.66,4.66,0,0,1-1.33.2,3.42,3.42,0,0,1-1-.13,2.34,2.34,0,0,1-.79-.39,2,2,0,0,1-.53-.68,2.29,2.29,0,0,1-.19-1,2.08,2.08,0,0,1,.22-1,1.8,1.8,0,0,1,.57-.65,2.48,2.48,0,0,1,.79-.36,8.79,8.79,0,0,1,.89-.19l.89-.11a4.86,4.86,0,0,0,.78-.13,1.35,1.35,0,0,0,.54-.24.56.56,0,0,0,.18-.48,1.05,1.05,0,0,0-.1-.51.76.76,0,0,0-.29-.3,1,1,0,0,0-.41-.14,2.6,2.6,0,0,0-.5,0,1.53,1.53,0,0,0-.93.26,1.13,1.13,0,0,0-.4.85Zm4.63,1.48a1.07,1.07,0,0,1-.32.18,3.52,3.52,0,0,1-.41.1l-.45.07-.49.07a3.6,3.6,0,0,0-.44.12,1.13,1.13,0,0,0-.38.19.83.83,0,0,0-.26.3.94.94,0,0,0-.1.47.88.88,0,0,0,.1.45.69.69,0,0,0,.27.29,1.13,1.13,0,0,0,.39.15,2.42,2.42,0,0,0,.47,0,1.82,1.82,0,0,0,.92-.2,1.44,1.44,0,0,0,.48-.47,1.69,1.69,0,0,0,.19-.56q0-.29,0-.45Z"/><path class="cls-1" d="M55.62,9v1.36h0A2.25,2.25,0,0,1,56,9.73a2.37,2.37,0,0,1,.55-.5,2.75,2.75,0,0,1,.67-.32A2.53,2.53,0,0,1,58,8.8a1.48,1.48,0,0,1,.44.07v1.87l-.34-.05a2.48,2.48,0,0,0-.38,0,2.22,2.22,0,0,0-.94.18,1.66,1.66,0,0,0-.61.5,1.85,1.85,0,0,0-.33.74,3.87,3.87,0,0,0-.1.92v3.3h-2V9Z"/><path class="cls-1" d="M61.06,14.55a2.07,2.07,0,0,0,2.35.14,1.25,1.25,0,0,0,.53-.65h1.77a3.32,3.32,0,0,1-1.3,1.88,3.79,3.79,0,0,1-2.12.57,4,4,0,0,1-1.55-.28,3.12,3.12,0,0,1-1.18-.78,3.5,3.5,0,0,1-.74-1.22,4.54,4.54,0,0,1-.26-1.55,4.24,4.24,0,0,1,.27-1.53,3.55,3.55,0,0,1,.76-1.22,3.65,3.65,0,0,1,1.18-.81,3.75,3.75,0,0,1,1.52-.3,3.53,3.53,0,0,1,1.63.36,3.13,3.13,0,0,1,1.13,1,4.08,4.08,0,0,1,.65,1.38,5.17,5.17,0,0,1,.14,1.63H60.57A2,2,0,0,0,61.06,14.55Zm2.27-3.84a1.4,1.4,0,0,0-1.1-.4,1.68,1.68,0,0,0-.79.17,1.3,1.3,0,0,0-.51.4,1.4,1.4,0,0,0-.27.51,2.48,2.48,0,0,0-.09.48h3.26A2.27,2.27,0,0,0,63.33,10.71Z"/><path class="cls-1" d="M68.25,9v1.07h0a2.86,2.86,0,0,1,3.59-1,1.58,1.58,0,0,1,.78,1,2.6,2.6,0,0,1,1-.92,2.8,2.8,0,0,1,1.32-.32,3.86,3.86,0,0,1,1,.12,2.07,2.07,0,0,1,.76.37,1.64,1.64,0,0,1,.49.66,2.37,2.37,0,0,1,.18,1v5.36h-1.2v-4.8a3.21,3.21,0,0,0-.06-.63,1.42,1.42,0,0,0-.21-.52,1.05,1.05,0,0,0-.43-.34,1.61,1.61,0,0,0-.71-.13,1.88,1.88,0,0,0-1.4.51,1.82,1.82,0,0,0-.51,1.35v4.56h-1.2v-4.8a2.7,2.7,0,0,0-.07-.65,1.24,1.24,0,0,0-.22-.51A1,1,0,0,0,71,10a1.64,1.64,0,0,0-.67-.12,1.81,1.81,0,0,0-.9.21,2,2,0,0,0-.61.51,2,2,0,0,0-.34.61,1.85,1.85,0,0,0-.11.53v4.56h-1.2V9Z"/><path class="cls-1" d="M78.54,11.15a3.42,3.42,0,0,1,.68-1.21,3,3,0,0,1,1.12-.81,4.05,4.05,0,0,1,3.06,0,3,3,0,0,1,1.11.81,3.58,3.58,0,0,1,.68,1.21,4.92,4.92,0,0,1,.22,1.51,4.81,4.81,0,0,1-.22,1.5,3.68,3.68,0,0,1-.68,1.21,3.1,3.1,0,0,1-1.11.8,4.18,4.18,0,0,1-3.06,0,3.06,3.06,0,0,1-1.12-.8,3.51,3.51,0,0,1-.68-1.21,4.81,4.81,0,0,1-.22-1.5A4.92,4.92,0,0,1,78.54,11.15Zm1.23,2.69a2.47,2.47,0,0,0,.48.86,2.11,2.11,0,0,0,.73.53,2.2,2.2,0,0,0,.88.18,2.25,2.25,0,0,0,.89-.18,2.11,2.11,0,0,0,.73-.53,2.64,2.64,0,0,0,.48-.86,3.61,3.61,0,0,0,.18-1.18A3.57,3.57,0,0,0,84,11.48a2.52,2.52,0,0,0-.48-.87,2,2,0,0,0-.73-.54,2.27,2.27,0,0,0-1.77,0,2,2,0,0,0-.73.54,2.52,2.52,0,0,0-.48.87,3.57,3.57,0,0,0-.18,1.18A3.61,3.61,0,0,0,79.77,13.84Z"/><path class="cls-1" d="M87.49,9v1.16h0a2.52,2.52,0,0,1,2.37-1.33,3,3,0,0,1,1.2.2,1.94,1.94,0,0,1,.78.55,2,2,0,0,1,.42.84,4.46,4.46,0,0,1,.12,1.08v4.81h-1.2V11.36a1.37,1.37,0,0,0-1.49-1.47,2.48,2.48,0,0,0-1,.17,1.72,1.72,0,0,0-.67.48,2.09,2.09,0,0,0-.41.73,2.9,2.9,0,0,0-.13.91v4.13h-1.2V9Z"/><path class="cls-1" d="M98.92,15.84a3.32,3.32,0,0,1-2.06.62,3.75,3.75,0,0,1-1.52-.28,3,3,0,0,1-1.08-.79,3.5,3.5,0,0,1-.66-1.22,6.12,6.12,0,0,1-.25-1.54,4.43,4.43,0,0,1,.26-1.53,3.78,3.78,0,0,1,.71-1.2,3.25,3.25,0,0,1,2.47-1.07,3,3,0,0,1,1.62.4,3.17,3.17,0,0,1,1,1,4,4,0,0,1,.54,1.35,6.91,6.91,0,0,1,.12,1.4H94.63a2.71,2.71,0,0,0,.11.91,2,2,0,0,0,.41.77,2.18,2.18,0,0,0,.72.53,2.53,2.53,0,0,0,1,.19,2,2,0,0,0,1.25-.35A1.7,1.7,0,0,0,98.8,14H100A2.91,2.91,0,0,1,98.92,15.84Zm-.29-4.69a2,2,0,0,0-.43-.66,2.4,2.4,0,0,0-.65-.44,2.26,2.26,0,0,0-1.67,0,2,2,0,0,0-.65.45,2.2,2.2,0,0,0-.42.65,2.39,2.39,0,0,0-.18.8h4.19A2.4,2.4,0,0,0,98.63,11.15Z"/><path class="cls-1" d="M103.74,17.28a6.45,6.45,0,0,1-.42.9,2.25,2.25,0,0,1-.45.61,1.55,1.55,0,0,1-.55.33,1.87,1.87,0,0,1-.7.11,3,3,0,0,1-.42,0,1.89,1.89,0,0,1-.41-.1V18a1.52,1.52,0,0,0,.36.12,1.64,1.64,0,0,0,.34.05,1,1,0,0,0,.62-.18,1,1,0,0,0,.37-.5l.5-1.23L100.08,9h1.36l2.13,6h0l2.05-6h1.27Z"/><circle class="cls-2" cx="11.82" cy="11.32" r="11.15"/><rect class="cls-3" x="10.1" y="3.86" width="2.97" height="2.55"/><rect class="cls-3" x="10.1" y="16.04" width="2.97" height="2.55"/><path class="cls-1" d="M9.51,14.43a1.88,1.88,0,0,0,.59.69,2.72,2.72,0,0,0,.86.39,3.86,3.86,0,0,0,1,.13,5.3,5.3,0,0,0,.77-.06,2.76,2.76,0,0,0,.77-.23,1.74,1.74,0,0,0,.6-.47,1.17,1.17,0,0,0,.24-.76,1.1,1.1,0,0,0-.32-.81,2.55,2.55,0,0,0-.83-.51,10.72,10.72,0,0,0-1.16-.36c-.43-.1-.87-.21-1.31-.34a10.41,10.41,0,0,1-1.34-.42A4.49,4.49,0,0,1,8.24,11a3,3,0,0,1-.83-1A3,3,0,0,1,7.1,8.63,3.18,3.18,0,0,1,7.5,7,3.73,3.73,0,0,1,8.55,5.85,4.52,4.52,0,0,1,10,5.16a6.6,6.6,0,0,1,1.64-.22,7.42,7.42,0,0,1,1.84.22,4.59,4.59,0,0,1,1.56.69,3.34,3.34,0,0,1,1.08,1.22,3.74,3.74,0,0,1,.41,1.8H14a2.13,2.13,0,0,0-.23-.9,1.59,1.59,0,0,0-.52-.57,2.49,2.49,0,0,0-.75-.29A5.05,5.05,0,0,0,11.54,7a2.88,2.88,0,0,0-.65.07,1.69,1.69,0,0,0-.59.23,1.47,1.47,0,0,0-.43.43A1.27,1.27,0,0,0,9.83,9a1.16,1.16,0,0,0,.54.41,7,7,0,0,0,1.11.38l1.85.48a8.74,8.74,0,0,1,.95.24,4.32,4.32,0,0,1,1.21.58,3.56,3.56,0,0,1,1,1.05A3,3,0,0,1,17,13.81a3.7,3.7,0,0,1-.33,1.56,3.46,3.46,0,0,1-1,1.23,4.77,4.77,0,0,1-1.59.82,7.72,7.72,0,0,1-2.2.29,8,8,0,0,1-2-.25,5,5,0,0,1-1.67-.78A3.77,3.77,0,0,1,7.1,15.33a4,4,0,0,1-.41-1.95H9.28A2.26,2.26,0,0,0,9.51,14.43Z"/></svg>