<svg id="Layer_1" data-name="Layer 1" xmlns="http://www.w3.org/2000/svg" viewBox="0 0 356.45 76.75"><defs><style>.cls-1{fill:#706f6f;}.cls-2{fill:#06c;}.cls-3{fill:#f49739;}.cls-4{fill:#fff;}</style></defs><title>Artboard 1 copy 4</title><path class="cls-1" d="M94.5,65.09h1.24l2.94,8.09h-1.2l-.82-2.42h-3.2l-.88,2.42H91.45Zm1.81,4.78-1.23-3.58-1.31,3.58Z"/><path class="cls-1" d="M102.22,71.33a1.39,1.39,0,0,0,.26.76,1.58,1.58,0,0,0,1.32.48,2,2,0,0,0,1-.24.79.79,0,0,0,.42-.74.63.63,0,0,0-.34-.58,4.22,4.22,0,0,0-.86-.28l-.8-.2a3.63,3.63,0,0,1-1.13-.42,1.23,1.23,0,0,1-.65-1.11,1.7,1.7,0,0,1,.61-1.36,2.48,2.48,0,0,1,1.64-.51,2.31,2.31,0,0,1,2,.78A1.74,1.74,0,0,1,106,69h-.94a1.16,1.16,0,0,0-.24-.61,1.59,1.59,0,0,0-1.22-.39,1.51,1.51,0,0,0-.87.21.69.69,0,0,0-.3.57.7.7,0,0,0,.39.62,2.4,2.4,0,0,0,.67.24l.66.16a5.07,5.07,0,0,1,1.46.5,1.32,1.32,0,0,1,.58,1.2,1.84,1.84,0,0,1-.6,1.36,2.63,2.63,0,0,1-1.85.57,2.49,2.49,0,0,1-1.89-.6,2.26,2.26,0,0,1-.59-1.48Z"/><path class="cls-1" d="M110.71,67.44a2.18,2.18,0,0,1,.89.77,2.6,2.6,0,0,1,.4,1,6.63,6.63,0,0,1,.09,1.3h-4.3a2.62,2.62,0,0,0,.42,1.45,1.42,1.42,0,0,0,1.22.54,1.53,1.53,0,0,0,1.23-.52,1.78,1.78,0,0,0,.37-.69h1a2,2,0,0,1-.25.73,2.83,2.83,0,0,1-.49.65,2.4,2.4,0,0,1-1.11.6,3.94,3.94,0,0,1-.8.08,2.45,2.45,0,0,1-1.86-.8,3.1,3.1,0,0,1-.76-2.24,3.4,3.4,0,0,1,.76-2.31,2.52,2.52,0,0,1,2-.89A2.73,2.73,0,0,1,110.71,67.44Zm.36,2.32a2.69,2.69,0,0,0-.28-1,1.42,1.42,0,0,0-1.35-.72,1.51,1.51,0,0,0-1.14.5,1.85,1.85,0,0,0-.49,1.25Z"/><path class="cls-1" d="M113.14,67.28h1v1a2.06,2.06,0,0,1,.56-.72,1.48,1.48,0,0,1,1-.43h.09l.23,0v1l-.17,0h-.16a1.42,1.42,0,0,0-1.15.48,1.67,1.67,0,0,0-.4,1.11v3.39h-1Z"/><path class="cls-1" d="M117.14,67.28l1.57,4.81,1.65-4.81h1.08l-2.22,5.9h-1.06L116,67.28Z"/><path class="cls-1" d="M122.07,65.09h1v1.12h-1Zm0,2.22h1v5.87h-1Z"/><path class="cls-1" d="M128.25,67.59a2.33,2.33,0,0,1,.75,1.67h-1a1.77,1.77,0,0,0-.4-.9,1.28,1.28,0,0,0-1-.36,1.4,1.4,0,0,0-1.36.92A3.81,3.81,0,0,0,125,70.4a2.83,2.83,0,0,0,.37,1.5,1.3,1.3,0,0,0,1.18.6,1.27,1.27,0,0,0,1-.38,2,2,0,0,0,.5-1h1a2.57,2.57,0,0,1-.82,1.71,2.6,2.6,0,0,1-1.7.54,2.26,2.26,0,0,1-1.84-.84A3.25,3.25,0,0,1,124,70.4,3.56,3.56,0,0,1,124.7,68a2.46,2.46,0,0,1,1.93-.87A2.6,2.6,0,0,1,128.25,67.59Z"/><path class="cls-1" d="M133.43,67.44a2.18,2.18,0,0,1,.89.77,2.45,2.45,0,0,1,.39,1,6.63,6.63,0,0,1,.09,1.3h-4.29a2.62,2.62,0,0,0,.42,1.45,1.41,1.41,0,0,0,1.22.54,1.56,1.56,0,0,0,1.23-.52,1.76,1.76,0,0,0,.36-.69h1a2.08,2.08,0,0,1-.26.73,2.55,2.55,0,0,1-.48.65,2.4,2.4,0,0,1-1.11.6,4,4,0,0,1-.81.08,2.42,2.42,0,0,1-1.85-.8,3.11,3.11,0,0,1-.77-2.24,3.41,3.41,0,0,1,.77-2.31,2.5,2.5,0,0,1,2-.89A2.76,2.76,0,0,1,133.43,67.44Zm.35,2.32a2.53,2.53,0,0,0-.28-1,1.42,1.42,0,0,0-1.35-.72,1.47,1.47,0,0,0-1.13.5,1.85,1.85,0,0,0-.49,1.25Z"/><path class="cls-1" d="M143,67.87a3,3,0,0,1,.79,2.24,3.83,3.83,0,0,1-.69,2.35,2.5,2.5,0,0,1-2.14.93,2.42,2.42,0,0,1-1.93-.82,3.3,3.3,0,0,1-.71-2.21A3.54,3.54,0,0,1,139.1,68a2.52,2.52,0,0,1,2-.88A2.62,2.62,0,0,1,143,67.87Zm-.61,3.92a3.74,3.74,0,0,0,.36-1.66,3,3,0,0,0-.26-1.34,1.47,1.47,0,0,0-1.43-.81,1.41,1.41,0,0,0-1.31.69,3.25,3.25,0,0,0-.41,1.67,2.84,2.84,0,0,0,.41,1.57,1.44,1.44,0,0,0,1.3.63A1.35,1.35,0,0,0,142.42,71.79Z"/><path class="cls-1" d="M145.27,65.48a1.52,1.52,0,0,1,1.34-.51H147v.91l-.23,0h-.13c-.3,0-.48.08-.54.23a4.62,4.62,0,0,0-.09,1.2h1v.78h-1v5.09h-1V68.09h-.82v-.78h.82v-.93A1.7,1.7,0,0,1,145.27,65.48Z"/><path class="cls-1" d="M157.45,66.24a4.46,4.46,0,0,1,.81,2.75,4.85,4.85,0,0,1-.92,3,4.1,4.1,0,0,1-6,.18,4.65,4.65,0,0,1-.95-3,4.78,4.78,0,0,1,.81-2.81,3.54,3.54,0,0,1,3.1-1.5A3.71,3.71,0,0,1,157.45,66.24Zm-1,5.17a4.49,4.49,0,0,0,.65-2.4,3.41,3.41,0,0,0-.75-2.3,2.55,2.55,0,0,0-2-.87,2.63,2.63,0,0,0-2,.87,3.62,3.62,0,0,0-.8,2.54,3.73,3.73,0,0,0,.68,2.27,2.56,2.56,0,0,0,2.21.93A2.29,2.29,0,0,0,156.49,71.41Z"/><path class="cls-1" d="M159.22,67.28h1v.84a3.82,3.82,0,0,1,.64-.64,2,2,0,0,1,1.11-.33,1.57,1.57,0,0,1,1.58.93,2.07,2.07,0,0,1,1.78-.93,1.64,1.64,0,0,1,1.62.86,2.72,2.72,0,0,1,.23,1.24v3.93h-1v-4.1a1,1,0,0,0-.29-.81,1.23,1.23,0,0,0-.72-.22,1.44,1.44,0,0,0-1,.39,1.73,1.73,0,0,0-.42,1.31v3.43h-1V69.33a2.14,2.14,0,0,0-.14-.88.88.88,0,0,0-.85-.41,1.47,1.47,0,0,0-1,.44,2.15,2.15,0,0,0-.46,1.57v3.13h-1Z"/><path class="cls-1" d="M168.4,67.28h.94v.84a2.76,2.76,0,0,1,.89-.75,2.36,2.36,0,0,1,1-.22A1.73,1.73,0,0,1,173,68a3.16,3.16,0,0,1,.24,1.38v3.78h-1V69.46a2,2,0,0,0-.16-.87,1,1,0,0,0-1-.55,1.92,1.92,0,0,0-.58.07,1.48,1.48,0,0,0-.71.49,1.38,1.38,0,0,0-.33.6,4.14,4.14,0,0,0-.07.89v3.09h-1Z"/><path class="cls-1" d="M178.1,67.44a2.18,2.18,0,0,1,.89.77,2.45,2.45,0,0,1,.39,1,6.63,6.63,0,0,1,.09,1.3h-4.29A2.62,2.62,0,0,0,175.6,72a1.41,1.41,0,0,0,1.22.54,1.56,1.56,0,0,0,1.23-.52,1.76,1.76,0,0,0,.36-.69h1a2.08,2.08,0,0,1-.26.73,2.55,2.55,0,0,1-.48.65,2.4,2.4,0,0,1-1.11.6,4,4,0,0,1-.81.08,2.42,2.42,0,0,1-1.85-.8,3.11,3.11,0,0,1-.77-2.24,3.41,3.41,0,0,1,.77-2.31,2.5,2.5,0,0,1,2-.89A2.76,2.76,0,0,1,178.1,67.44Zm.35,2.32a2.53,2.53,0,0,0-.28-1,1.42,1.42,0,0,0-1.35-.72,1.47,1.47,0,0,0-1.13.5,1.85,1.85,0,0,0-.49,1.25Z"/><path class="cls-1" d="M179.94,67.28h1.29l1.35,2.08L184,67.28l1.21,0-2,2.85,2.08,3H184L182.52,71l-1.43,2.21h-1.25l2.07-3Z"/><path class="cls-1" d="M194.38,65.32a2.85,2.85,0,0,1,1.45,2.22h-1.08a2,2,0,0,0-.81-1.29,2.7,2.7,0,0,0-1.53-.41,2.39,2.39,0,0,0-1.86.84,3.72,3.72,0,0,0-.75,2.52,4.1,4.1,0,0,0,.62,2.35,2.29,2.29,0,0,0,2,.91,2.56,2.56,0,0,0,1.77-.64,2.69,2.69,0,0,0,.73-2.06h-2.54v-.91H196v4.33h-.71l-.26-1a4.25,4.25,0,0,1-1,.85,3.64,3.64,0,0,1-1.81.41,3.48,3.48,0,0,1-2.43-.93,4.44,4.44,0,0,1-1.12-3.21A4.67,4.67,0,0,1,189.76,66a3.44,3.44,0,0,1,2.67-1.14A4,4,0,0,1,194.38,65.32Z"/><path class="cls-1" d="M197.45,67.28h.94v1a2.25,2.25,0,0,1,.57-.72,1.45,1.45,0,0,1,1-.43h.1l.22,0v1l-.16,0H200a1.44,1.44,0,0,0-1.16.48,1.72,1.72,0,0,0-.4,1.11v3.39h-1Z"/><path class="cls-1" d="M205.23,67.87a3,3,0,0,1,.79,2.24,3.83,3.83,0,0,1-.69,2.35,2.5,2.5,0,0,1-2.14.93,2.42,2.42,0,0,1-1.93-.82,3.3,3.3,0,0,1-.71-2.21A3.54,3.54,0,0,1,201.3,68a2.5,2.5,0,0,1,2-.88A2.62,2.62,0,0,1,205.23,67.87Zm-.61,3.92a3.74,3.74,0,0,0,.36-1.66,3,3,0,0,0-.26-1.34,1.47,1.47,0,0,0-1.43-.81,1.41,1.41,0,0,0-1.31.69,3.25,3.25,0,0,0-.41,1.67,2.84,2.84,0,0,0,.41,1.57,1.44,1.44,0,0,0,1.3.63A1.35,1.35,0,0,0,204.62,71.79Z"/><path class="cls-1" d="M208,67.28V71.2a1.74,1.74,0,0,0,.14.74,1,1,0,0,0,1,.53,1.35,1.35,0,0,0,1.37-.93,3.58,3.58,0,0,0,.2-1.36v-2.9h1v5.9h-.94v-.87a1.89,1.89,0,0,1-.47.57,2,2,0,0,1-1.35.46,1.74,1.74,0,0,1-1.69-.84,2.57,2.57,0,0,1-.24-1.21v-4Z"/><path class="cls-1" d="M213,67.31h1v.78a2.23,2.23,0,0,1,.65-.62,2.12,2.12,0,0,1,1.18-.33,2.21,2.21,0,0,1,1.71.77,3.12,3.12,0,0,1,.7,2.19,3.38,3.38,0,0,1-1,2.76,2.29,2.29,0,0,1-1.49.52,2,2,0,0,1-1.13-.29,2.55,2.55,0,0,1-.59-.57v3h-1Zm3.73,4.63a2.76,2.76,0,0,0,.46-1.74A3.43,3.43,0,0,0,217,69a1.5,1.5,0,0,0-2.83.06,4,4,0,0,0-.21,1.4,2.9,2.9,0,0,0,.21,1.16,1.41,1.41,0,0,0,1.41.92A1.44,1.44,0,0,0,216.71,71.94Z"/><path class="cls-1" d="M219.32,74.34c.26,0,.43-.22.54-.54a1.61,1.61,0,0,0,.08-.48v-.07a.25.25,0,0,0,0-.07h-.6V72h1.18V73.1a2.5,2.5,0,0,1-.26,1.15,1.22,1.22,0,0,1-.92.61Z"/><path class="cls-1" d="M225.34,65.09h1.11v8.09h-1.11Z"/><path class="cls-1" d="M227.88,67.28h.94v.84a2.76,2.76,0,0,1,.89-.75,2.36,2.36,0,0,1,1-.22,1.73,1.73,0,0,1,1.7.87,3.16,3.16,0,0,1,.24,1.38v3.78h-1V69.46a2,2,0,0,0-.16-.87,1,1,0,0,0-1-.55,1.85,1.85,0,0,0-.57.07,1.46,1.46,0,0,0-.72.49,1.36,1.36,0,0,0-.32.6,4,4,0,0,0-.08.89v3.09h-1Z"/><path class="cls-1" d="M237.83,67.59a2.33,2.33,0,0,1,.75,1.67h-1a1.77,1.77,0,0,0-.4-.9,1.28,1.28,0,0,0-1-.36,1.4,1.4,0,0,0-1.36.92,3.81,3.81,0,0,0-.26,1.48,2.83,2.83,0,0,0,.37,1.5,1.3,1.3,0,0,0,1.18.6,1.27,1.27,0,0,0,1-.38,2,2,0,0,0,.5-1h1a2.32,2.32,0,0,1-2.51,2.25,2.26,2.26,0,0,1-1.85-.84,3.25,3.25,0,0,1-.69-2.11,3.51,3.51,0,0,1,.76-2.42,2.42,2.42,0,0,1,1.92-.87A2.58,2.58,0,0,1,237.83,67.59Z"/><circle class="cls-2" cx="38.39" cy="38.38" r="37.16"/><rect class="cls-3" x="32.65" y="13.52" width="9.89" height="8.48"/><rect class="cls-3" x="32.65" y="54.09" width="9.89" height="8.48"/><path class="cls-4" d="M30.67,48.71a6.41,6.41,0,0,0,2,2.3,8.31,8.31,0,0,0,2.87,1.31,13.36,13.36,0,0,0,3.42.43,18.27,18.27,0,0,0,2.56-.2,8.75,8.75,0,0,0,2.56-.77,5.58,5.58,0,0,0,2-1.56,4,4,0,0,0,.8-2.54A3.55,3.55,0,0,0,45.79,45,8.12,8.12,0,0,0,43,43.3a28.19,28.19,0,0,0-3.87-1.2c-1.45-.34-2.91-.72-4.39-1.13a38.84,38.84,0,0,1-4.44-1.4,15.38,15.38,0,0,1-3.87-2.13,10.22,10.22,0,0,1-2.76-3.28,10,10,0,0,1-1.05-4.75A10.68,10.68,0,0,1,24,24a12.13,12.13,0,0,1,3.5-3.84,15.47,15.47,0,0,1,4.89-2.28,21.06,21.06,0,0,1,5.47-.74,25.64,25.64,0,0,1,6.12.72,15.28,15.28,0,0,1,5.21,2.3,11.69,11.69,0,0,1,3.61,4.07,12.5,12.5,0,0,1,1.34,6H45.48a7.35,7.35,0,0,0-.77-3A5.09,5.09,0,0,0,43,25.31a7.39,7.39,0,0,0-2.48-1,15.12,15.12,0,0,0-3-.28,10.57,10.57,0,0,0-2.16.23,5.78,5.78,0,0,0-2,.79,4.94,4.94,0,0,0-1.45,1.43,3.82,3.82,0,0,0-.57,2.16,3.62,3.62,0,0,0,.46,1.94A4.08,4.08,0,0,0,33.55,32a21.77,21.77,0,0,0,3.7,1.25c1.58.42,3.63,1,6.18,1.6.76.15,1.81.42,3.16.82a15.41,15.41,0,0,1,4,1.91A12.09,12.09,0,0,1,54,41.05a10,10,0,0,1,1.45,5.61,12.45,12.45,0,0,1-1.08,5.18A11.32,11.32,0,0,1,51.2,56a15.56,15.56,0,0,1-5.3,2.7,25.13,25.13,0,0,1-7.31,1,25.73,25.73,0,0,1-6.52-.83,16.27,16.27,0,0,1-5.58-2.59,12.71,12.71,0,0,1-3.84-4.5,13.36,13.36,0,0,1-1.37-6.48h8.65A7.51,7.51,0,0,0,30.67,48.71Z"/><path class="cls-2" d="M99.23,46.68a5.21,5.21,0,0,0,1.62,1.91,6.83,6.83,0,0,0,2.38,1.08,11,11,0,0,0,2.82.36,14.72,14.72,0,0,0,2.12-.17,7.54,7.54,0,0,0,2.12-.63,4.7,4.7,0,0,0,1.65-1.3,3.25,3.25,0,0,0,.66-2.09,3,3,0,0,0-.87-2.22,7.09,7.09,0,0,0-2.29-1.41,22.06,22.06,0,0,0-3.2-1c-1.19-.28-2.4-.59-3.63-.94a32.56,32.56,0,0,1-3.67-1.15,12.85,12.85,0,0,1-3.2-1.77,7.93,7.93,0,0,1-3.15-6.64,8.93,8.93,0,0,1,1.1-4.5,10,10,0,0,1,2.9-3.17,12.56,12.56,0,0,1,4-1.89,17.57,17.57,0,0,1,4.52-.61,21.51,21.51,0,0,1,5.06.59,12.58,12.58,0,0,1,4.31,1.91,9.76,9.76,0,0,1,3,3.36,10.31,10.31,0,0,1,1.11,5h-7.16a6.11,6.11,0,0,0-.64-2.5,4.28,4.28,0,0,0-1.43-1.55,6.1,6.1,0,0,0-2.05-.8,12.42,12.42,0,0,0-2.52-.23,9.06,9.06,0,0,0-1.79.18,4.85,4.85,0,0,0-1.62.66,4.09,4.09,0,0,0-1.2,1.18,3.12,3.12,0,0,0-.47,1.79,3,3,0,0,0,.37,1.6,3.41,3.41,0,0,0,1.48,1.13,19.06,19.06,0,0,0,3.06,1l5.11,1.31c.63.13,1.5.36,2.62.69a12.65,12.65,0,0,1,3.32,1.57,10.08,10.08,0,0,1,2.84,2.9,8.24,8.24,0,0,1,1.2,4.64,10.19,10.19,0,0,1-.89,4.28,9.34,9.34,0,0,1-2.66,3.42,12.9,12.9,0,0,1-4.38,2.23,20.48,20.48,0,0,1-6,.8,21,21,0,0,1-5.39-.68,13.62,13.62,0,0,1-4.62-2.14,10.5,10.5,0,0,1-3.17-3.72,11,11,0,0,1-1.13-5.37h7.15A6.12,6.12,0,0,0,99.23,46.68Z"/><path class="cls-2" d="M130,21.35V34h.14a7.76,7.76,0,0,1,3.25-3.09,8.83,8.83,0,0,1,3.86-1,11.34,11.34,0,0,1,4.41.73,6.51,6.51,0,0,1,2.7,2,7.8,7.8,0,0,1,1.39,3.16,19.39,19.39,0,0,1,.4,4.12V55h-6.68V41.22a8.62,8.62,0,0,0-.94-4.5,3.68,3.68,0,0,0-3.35-1.48,4.6,4.6,0,0,0-4,1.63Q130,38.49,130,42.21V55h-6.68V21.35Z"/><path class="cls-2" d="M150.78,38.11a7.78,7.78,0,0,1,1.18-3.9,8,8,0,0,1,2.64-2.5,11.38,11.38,0,0,1,3.6-1.34,20.18,20.18,0,0,1,4-.4,26,26,0,0,1,3.71.26,11.38,11.38,0,0,1,3.44,1,6.67,6.67,0,0,1,2.54,2.09,5.87,5.87,0,0,1,1,3.56V49.56a24.57,24.57,0,0,0,.19,3.15,5.48,5.48,0,0,0,.66,2.26H167a9.3,9.3,0,0,1-.31-1.15,9.87,9.87,0,0,1-.16-1.2,8.74,8.74,0,0,1-3.77,2.3,15.09,15.09,0,0,1-4.43.66,12,12,0,0,1-3.24-.42,7.29,7.29,0,0,1-2.64-1.32,6.28,6.28,0,0,1-1.77-2.26,7.69,7.69,0,0,1-.63-3.25,7,7,0,0,1,.73-3.41,5.94,5.94,0,0,1,1.88-2.14,8.4,8.4,0,0,1,2.64-1.21,30.54,30.54,0,0,1,3-.63c1-.16,2-.28,3-.38a16.9,16.9,0,0,0,2.59-.42,4.38,4.38,0,0,0,1.79-.83,1.8,1.8,0,0,0,.62-1.57,3.47,3.47,0,0,0-.36-1.72,2.5,2.5,0,0,0-.94-1,3.66,3.66,0,0,0-1.36-.47,11.06,11.06,0,0,0-1.68-.12,5,5,0,0,0-3.1.85,3.74,3.74,0,0,0-1.32,2.82Zm15.45,5a3.1,3.1,0,0,1-1.06.59,10.54,10.54,0,0,1-1.37.35c-.49.09-1,.17-1.53.23s-1.07.15-1.6.24a10.71,10.71,0,0,0-1.48.38,4.5,4.5,0,0,0-1.28.63,3.14,3.14,0,0,0-.87,1,3.28,3.28,0,0,0-.33,1.56,3.15,3.15,0,0,0,.33,1.51,2.52,2.52,0,0,0,.9,1,3.52,3.52,0,0,0,1.32.49,7.91,7.91,0,0,0,1.55.15,5.89,5.89,0,0,0,3.06-.66,4.41,4.41,0,0,0,1.6-1.58,5,5,0,0,0,.64-1.86,12.57,12.57,0,0,0,.12-1.51Z"/><path class="cls-2" d="M184.31,30.63v4.52h.09a8.23,8.23,0,0,1,1.27-2.1,8.74,8.74,0,0,1,1.84-1.65,9.56,9.56,0,0,1,2.21-1.06,8,8,0,0,1,2.45-.37,5.44,5.44,0,0,1,1.46.23v6.22c-.31-.06-.69-.12-1.13-.17s-.86-.07-1.27-.07a7.09,7.09,0,0,0-3.11.62,5.28,5.28,0,0,0-2.05,1.67,6.47,6.47,0,0,0-1.1,2.47,12.88,12.88,0,0,0-.33,3.06V55H178V30.63Z"/><path class="cls-2" d="M202.43,49.13a6.87,6.87,0,0,0,7.82.45A4.25,4.25,0,0,0,212,47.44h5.88a11.15,11.15,0,0,1-4.33,6.26,12.78,12.78,0,0,1-7.06,1.88,13.77,13.77,0,0,1-5.18-.92,10.75,10.75,0,0,1-3.91-2.61A11.7,11.7,0,0,1,195,48a14.82,14.82,0,0,1-.87-5.18,14.1,14.1,0,0,1,.9-5.08,11.88,11.88,0,0,1,2.54-4.08,12.08,12.08,0,0,1,3.93-2.7,12.58,12.58,0,0,1,5.06-1,11.61,11.61,0,0,1,5.42,1.2,10.87,10.87,0,0,1,3.79,3.22A13.42,13.42,0,0,1,217.88,39a17.32,17.32,0,0,1,.47,5.41H200.79A6.75,6.75,0,0,0,202.43,49.13ZM210,36.32A4.73,4.73,0,0,0,206.34,35a5.86,5.86,0,0,0-2.66.54A5.1,5.1,0,0,0,202,36.89a5,5,0,0,0-.9,1.69,7.72,7.72,0,0,0-.3,1.61h10.87A7.72,7.72,0,0,0,210,36.32Z"/><path class="cls-3" d="M226.4,30.63v3.58h.09a9.49,9.49,0,0,1,12-3.21A5.26,5.26,0,0,1,241,34.21a8.47,8.47,0,0,1,3.23-3.06,9,9,0,0,1,4.4-1.09,13,13,0,0,1,3.32.4,7,7,0,0,1,2.54,1.25,5.6,5.6,0,0,1,1.65,2.19,8,8,0,0,1,.59,3.22V55h-4V39a11.77,11.77,0,0,0-.19-2.12,4.35,4.35,0,0,0-.71-1.72A3.43,3.43,0,0,0,250.44,34a5.63,5.63,0,0,0-2.38-.43,6.29,6.29,0,0,0-4.66,1.7,6.12,6.12,0,0,0-1.7,4.52V55h-4V39a10.44,10.44,0,0,0-.21-2.17,4.69,4.69,0,0,0-.73-1.72A3.53,3.53,0,0,0,235.37,34a5.51,5.51,0,0,0-2.24-.4,6,6,0,0,0-3,.71,6.92,6.92,0,0,0-2,1.69A6.73,6.73,0,0,0,227,38a5.76,5.76,0,0,0-.36,1.77V55h-4V30.63Z"/><path class="cls-3" d="M260.68,37.81a11.15,11.15,0,0,1,2.26-4.05,10.53,10.53,0,0,1,3.72-2.71,13.61,13.61,0,0,1,10.19,0,10.73,10.73,0,0,1,3.7,2.71,11.3,11.3,0,0,1,2.26,4.05,16.23,16.23,0,0,1,.75,5,16,16,0,0,1-.75,5,11.63,11.63,0,0,1-2.26,4,10.53,10.53,0,0,1-3.7,2.68,13.87,13.87,0,0,1-10.19,0,10.34,10.34,0,0,1-3.72-2.68,11.31,11.31,0,0,1-2.26-4,15.72,15.72,0,0,1-.76-5A15.94,15.94,0,0,1,260.68,37.81Zm4.07,8.94a8.2,8.2,0,0,0,1.62,2.88,7.31,7.31,0,0,0,8.31,1.76,7,7,0,0,0,2.43-1.76,8.2,8.2,0,0,0,1.62-2.88,11.85,11.85,0,0,0,.59-3.93,11.94,11.94,0,0,0-.59-3.93,8.57,8.57,0,0,0-1.62-2.9,6.88,6.88,0,0,0-2.42-1.78,7.3,7.3,0,0,0-5.89,0A6.79,6.79,0,0,0,266.38,36a8.59,8.59,0,0,0-1.63,2.9,13.38,13.38,0,0,0,0,7.86Z"/><path class="cls-3" d="M290.48,30.63v3.86h.1a8.43,8.43,0,0,1,7.91-4.43,10.55,10.55,0,0,1,4,.66,6.53,6.53,0,0,1,2.59,1.84,6.84,6.84,0,0,1,1.39,2.8,15.37,15.37,0,0,1,.4,3.6V55h-4V38.49a4.83,4.83,0,0,0-1.31-3.58,4.91,4.91,0,0,0-3.63-1.32,8.14,8.14,0,0,0-3.18.57,6,6,0,0,0-2.23,1.6,6.91,6.91,0,0,0-1.35,2.42,9.84,9.84,0,0,0-.44,3V55h-4V30.63Z"/><path class="cls-3" d="M328.57,53.42a11,11,0,0,1-6.87,2.07,12.62,12.62,0,0,1-5.06-.94,10,10,0,0,1-3.6-2.64,11,11,0,0,1-2.19-4,19.67,19.67,0,0,1-.83-5.13,14.58,14.58,0,0,1,.85-5.09,12.32,12.32,0,0,1,2.38-4A10.87,10.87,0,0,1,316.87,31a11.21,11.21,0,0,1,4.59-.94,10.05,10.05,0,0,1,5.4,1.34,10.77,10.77,0,0,1,3.43,3.42,13.37,13.37,0,0,1,1.79,4.52,19.46,19.46,0,0,1,.4,4.66H314.26a9.51,9.51,0,0,0,.38,3A6.86,6.86,0,0,0,316,49.58a6.63,6.63,0,0,0,2.4,1.76,8.31,8.31,0,0,0,3.44.66A7,7,0,0,0,326,50.83a5.74,5.74,0,0,0,2.14-3.58h4A9.72,9.72,0,0,1,328.57,53.42Zm-1-15.64A6.76,6.76,0,0,0,324,34.13a6.85,6.85,0,0,0-2.75-.54,7,7,0,0,0-2.8.54,6.53,6.53,0,0,0-2.14,1.49,7.19,7.19,0,0,0-1.42,2.19,8.4,8.4,0,0,0-.61,2.66h14A8.2,8.2,0,0,0,327.61,37.78Z"/><path class="cls-3" d="M344.63,58.22a25.82,25.82,0,0,1-1.39,3,8.12,8.12,0,0,1-1.51,2,5,5,0,0,1-1.83,1.13,7,7,0,0,1-2.33.36,9.69,9.69,0,0,1-1.42-.1,6.28,6.28,0,0,1-1.36-.33V60.62a6.24,6.24,0,0,0,1.2.4,5.07,5.07,0,0,0,1.15.17,3.45,3.45,0,0,0,2.05-.59,3.7,3.7,0,0,0,1.25-1.67l1.65-4.1-9.65-24.2H337l7.1,19.91h.1L351,30.63h4.23Z"/></svg>