<svg id="Layer_1" data-name="Layer 1" xmlns="http://www.w3.org/2000/svg" viewBox="0 0 259 84"><defs><style>.cls-1{fill:#6f6f6e;}.cls-2{fill:#006db7;}.cls-3{fill:#fff;}</style></defs><title>Artboard 1</title><path class="cls-1" d="M98.14,71.48h1.38l3.26,9h-1.34l-.91-2.69H97l-1,2.69H94.76Zm2,5.3-1.36-4-1.45,4Z"/><path class="cls-1" d="M106.71,78.41a1.53,1.53,0,0,0,.28.85,1.79,1.79,0,0,0,1.47.53,2.19,2.19,0,0,0,1.1-.27.87.87,0,0,0,.47-.82.69.69,0,0,0-.37-.64,4.24,4.24,0,0,0-1-.31l-.89-.22a4.46,4.46,0,0,1-1.26-.47,1.39,1.39,0,0,1-.72-1.24,1.87,1.87,0,0,1,.68-1.5,2.75,2.75,0,0,1,1.83-.58,2.54,2.54,0,0,1,2.16.87,1.86,1.86,0,0,1,.4,1.19h-1a1.2,1.2,0,0,0-.27-.67,1.71,1.71,0,0,0-1.34-.44,1.63,1.63,0,0,0-1,.24.74.74,0,0,0-.33.63.78.78,0,0,0,.43.68,2.91,2.91,0,0,0,.74.27l.74.18a5.68,5.68,0,0,1,1.62.55,1.49,1.49,0,0,1,.64,1.33,2,2,0,0,1-.67,1.51,2.85,2.85,0,0,1-2,.64,2.74,2.74,0,0,1-2.1-.67,2.5,2.5,0,0,1-.66-1.64Z"/><path class="cls-1" d="M116.12,74.1a2.54,2.54,0,0,1,1,.84,3,3,0,0,1,.43,1.16,7.1,7.1,0,0,1,.1,1.44h-4.76a2.84,2.84,0,0,0,.46,1.61,1.57,1.57,0,0,0,1.36.6,1.73,1.73,0,0,0,1.36-.57,2,2,0,0,0,.41-.77h1.08a2.21,2.21,0,0,1-.29.81,3.2,3.2,0,0,1-.53.72,2.53,2.53,0,0,1-1.24.66,3.46,3.46,0,0,1-.89.1,2.74,2.74,0,0,1-2.06-.89,3.47,3.47,0,0,1-.84-2.49,3.8,3.8,0,0,1,.85-2.57,2.8,2.8,0,0,1,2.22-1A2.92,2.92,0,0,1,116.12,74.1Zm.4,2.57a2.93,2.93,0,0,0-.31-1.14,1.59,1.59,0,0,0-1.5-.8,1.64,1.64,0,0,0-1.26.55,2.07,2.07,0,0,0-.54,1.39Z"/><path class="cls-1" d="M118.83,73.92h1v1.13a2.69,2.69,0,0,1,.63-.81,1.67,1.67,0,0,1,1.16-.47h.1l.25,0V75l-.18,0h-.18a1.58,1.58,0,0,0-1.28.54,1.82,1.82,0,0,0-.44,1.23v3.77h-1.1Z"/><path class="cls-1" d="M123.26,73.92,125,79.25l1.82-5.33H128l-2.46,6.55h-1.18L122,73.92Z"/><path class="cls-1" d="M128.74,71.48h1.12v1.25h-1.12Zm0,2.47h1.12v6.52h-1.12Z"/><path class="cls-1" d="M135.6,74.27a2.58,2.58,0,0,1,.84,1.85h-1.08a2,2,0,0,0-.44-1,1.44,1.44,0,0,0-1.12-.4,1.56,1.56,0,0,0-1.51,1,4.15,4.15,0,0,0-.29,1.64,3.08,3.08,0,0,0,.42,1.66,1.61,1.61,0,0,0,2.39.25,2.26,2.26,0,0,0,.55-1.14h1.08a2.88,2.88,0,0,1-.92,1.9,2.83,2.83,0,0,1-1.88.61,2.52,2.52,0,0,1-2-.94,3.6,3.6,0,0,1-.76-2.35,4,4,0,0,1,.83-2.68,2.71,2.71,0,0,1,2.14-1A2.84,2.84,0,0,1,135.6,74.27Z"/><path class="cls-1" d="M141.33,74.1a2.44,2.44,0,0,1,1,.84,2.89,2.89,0,0,1,.44,1.16,7.1,7.1,0,0,1,.1,1.44h-4.77a2.85,2.85,0,0,0,.47,1.61,1.56,1.56,0,0,0,1.35.6,1.75,1.75,0,0,0,1.37-.57,2,2,0,0,0,.4-.77h1.09a2.42,2.42,0,0,1-.29.81,3,3,0,0,1-.54.72,2.46,2.46,0,0,1-1.23.66,3.46,3.46,0,0,1-.89.1,2.74,2.74,0,0,1-2.06-.89,3.43,3.43,0,0,1-.85-2.49,3.85,3.85,0,0,1,.85-2.57,2.82,2.82,0,0,1,2.23-1A2.92,2.92,0,0,1,141.33,74.1Zm.4,2.57a2.93,2.93,0,0,0-.31-1.14,1.59,1.59,0,0,0-1.5-.8,1.64,1.64,0,0,0-1.26.55,2.07,2.07,0,0,0-.54,1.39Z"/><path class="cls-1" d="M152,74.57a3.3,3.3,0,0,1,.87,2.48,4.29,4.29,0,0,1-.77,2.62,2.75,2.75,0,0,1-2.37,1,2.68,2.68,0,0,1-2.13-.91,3.62,3.62,0,0,1-.79-2.46,3.87,3.87,0,0,1,.83-2.62,2.75,2.75,0,0,1,2.23-1A3,3,0,0,1,152,74.57Zm-.68,4.35a4.25,4.25,0,0,0,.4-1.84,3.35,3.35,0,0,0-.29-1.49,1.64,1.64,0,0,0-1.59-.9,1.56,1.56,0,0,0-1.45.77,3.6,3.6,0,0,0-.45,1.85,3.18,3.18,0,0,0,.45,1.75,1.6,1.6,0,0,0,1.44.69A1.5,1.5,0,0,0,151.31,78.92Z"/><path class="cls-1" d="M154.47,71.92a1.69,1.69,0,0,1,1.49-.57h.21l.25,0v1H156c-.34,0-.54.09-.61.26a5.46,5.46,0,0,0-.1,1.33h1.1v.87h-1.1v5.65h-1.09V74.82h-.91V74h.91v-1A2,2,0,0,1,154.47,71.92Z"/><path class="cls-1" d="M168,72.77a4.91,4.91,0,0,1,.89,3,5.31,5.31,0,0,1-1,3.34,4,4,0,0,1-3.42,1.57,4.11,4.11,0,0,1-3.26-1.37A5.19,5.19,0,0,1,160.13,76a5.36,5.36,0,0,1,.9-3.12,3.92,3.92,0,0,1,3.44-1.66A4.11,4.11,0,0,1,168,72.77Zm-1.07,5.72a4.9,4.9,0,0,0,.72-2.65,3.78,3.78,0,0,0-.83-2.55,2.82,2.82,0,0,0-2.27-1,2.92,2.92,0,0,0-2.27,1,4,4,0,0,0-.88,2.82,4.14,4.14,0,0,0,.75,2.52,2.83,2.83,0,0,0,2.45,1A2.54,2.54,0,0,0,166.92,78.49Z"/><path class="cls-1" d="M170,73.92H171v.93a3.62,3.62,0,0,1,.71-.71,2.1,2.1,0,0,1,1.23-.37,2,2,0,0,1,1.26.38,2,2,0,0,1,.49.65,2.29,2.29,0,0,1,2-1,1.83,1.83,0,0,1,1.8,1,3.2,3.2,0,0,1,.25,1.39v4.36h-1.14V75.92a1,1,0,0,0-.33-.9,1.25,1.25,0,0,0-.8-.25,1.57,1.57,0,0,0-1.11.44,1.91,1.91,0,0,0-.47,1.45v3.81h-1.12V76.19a2.15,2.15,0,0,0-.16-1,1,1,0,0,0-.93-.46,1.62,1.62,0,0,0-1.14.48,2.39,2.39,0,0,0-.51,1.75v3.48H170Z"/><path class="cls-1" d="M180.13,73.92h1.05v.93a3,3,0,0,1,1-.83,2.63,2.63,0,0,1,1.16-.25,1.89,1.89,0,0,1,1.88,1,3.47,3.47,0,0,1,.27,1.53v4.2h-1.12V76.34a2.41,2.41,0,0,0-.17-1,1.08,1.08,0,0,0-1.07-.61,2.27,2.27,0,0,0-.64.08,1.61,1.61,0,0,0-.79.54,1.47,1.47,0,0,0-.36.67,4.16,4.16,0,0,0-.09,1v3.43h-1.1Z"/><path class="cls-1" d="M190.9,74.1a2.58,2.58,0,0,1,1,.84,2.88,2.88,0,0,1,.43,1.16,7.1,7.1,0,0,1,.1,1.44h-4.76a2.84,2.84,0,0,0,.46,1.61,1.59,1.59,0,0,0,1.36.6,1.73,1.73,0,0,0,1.36-.57,2,2,0,0,0,.41-.77h1.08a2.37,2.37,0,0,1-.28.81,3.56,3.56,0,0,1-.54.72,2.53,2.53,0,0,1-1.24.66,3.46,3.46,0,0,1-.89.1,2.76,2.76,0,0,1-2.06-.89,3.47,3.47,0,0,1-.84-2.49,3.8,3.8,0,0,1,.85-2.57,2.82,2.82,0,0,1,2.22-1A3,3,0,0,1,190.9,74.1Zm.39,2.57a2.77,2.77,0,0,0-.31-1.14,1.59,1.59,0,0,0-1.5-.8,1.64,1.64,0,0,0-1.26.55,2.07,2.07,0,0,0-.54,1.39Z"/><path class="cls-1" d="M192.94,73.92h1.43l1.5,2.3,1.53-2.3,1.33,0-2.2,3.16,2.3,3.36h-1.4L195.8,78l-1.58,2.46h-1.39l2.3-3.36Z"/><path class="cls-1" d="M209,71.74a3.17,3.17,0,0,1,1.61,2.46h-1.2a2.19,2.19,0,0,0-.89-1.43,3,3,0,0,0-1.71-.45,2.65,2.65,0,0,0-2.06.94,4,4,0,0,0-.83,2.79,4.51,4.51,0,0,0,.69,2.6,2.52,2.52,0,0,0,2.24,1,2.84,2.84,0,0,0,2-.71,3,3,0,0,0,.8-2.28h-2.81v-1h3.94v4.81h-.78l-.3-1.16a4.43,4.43,0,0,1-1.07.94,3.93,3.93,0,0,1-2,.46,3.89,3.89,0,0,1-2.7-1,5,5,0,0,1-1.23-3.56,5.18,5.18,0,0,1,1.2-3.59,3.82,3.82,0,0,1,3-1.27A4.47,4.47,0,0,1,209,71.74Z"/><path class="cls-1" d="M212.36,73.92h1v1.13a2.69,2.69,0,0,1,.63-.81,1.67,1.67,0,0,1,1.16-.47h.1l.25,0V75l-.18,0h-.18a1.58,1.58,0,0,0-1.28.54,1.87,1.87,0,0,0-.44,1.23v3.77h-1.1Z"/><path class="cls-1" d="M221,74.57a3.3,3.3,0,0,1,.87,2.48,4.28,4.28,0,0,1-.76,2.62,2.77,2.77,0,0,1-2.38,1,2.71,2.71,0,0,1-2.13-.91,3.62,3.62,0,0,1-.79-2.46,3.92,3.92,0,0,1,.83-2.62,2.77,2.77,0,0,1,2.24-1A2.93,2.93,0,0,1,221,74.57Zm-.68,4.35a4.11,4.11,0,0,0,.4-1.84,3.35,3.35,0,0,0-.29-1.49,1.62,1.62,0,0,0-1.58-.9,1.54,1.54,0,0,0-1.45.77,3.5,3.5,0,0,0-.46,1.85,3.1,3.1,0,0,0,.46,1.75,1.59,1.59,0,0,0,1.43.69A1.49,1.49,0,0,0,220.31,78.92Z"/><path class="cls-1" d="M224.06,73.92v4.35a2,2,0,0,0,.16.82,1.07,1.07,0,0,0,1.07.58,1.5,1.5,0,0,0,1.52-1,4.08,4.08,0,0,0,.22-1.51V73.92h1.1v6.55h-1v-1a2.14,2.14,0,0,1-.52.63,2.27,2.27,0,0,1-1.5.51,1.92,1.92,0,0,1-1.87-.93,2.85,2.85,0,0,1-.27-1.34V73.92Z"/><path class="cls-1" d="M229.59,74h1.07v.87a2.82,2.82,0,0,1,.73-.7,2.36,2.36,0,0,1,1.31-.36,2.45,2.45,0,0,1,1.89.85,3.49,3.49,0,0,1,.78,2.44,3.74,3.74,0,0,1-1.12,3.06,2.6,2.6,0,0,1-1.66.58,2.2,2.2,0,0,1-1.24-.33,2.68,2.68,0,0,1-.66-.63v3.35h-1.1Zm4.14,5.13a3.07,3.07,0,0,0,.51-1.93,3.39,3.39,0,0,0-.23-1.34,1.66,1.66,0,0,0-3.14.06,4.55,4.55,0,0,0-.22,1.55,3.28,3.28,0,0,0,.22,1.29,1.67,1.67,0,0,0,2.86.37Z"/><path class="cls-1" d="M236.63,81.75a.77.77,0,0,0,.59-.59,1.79,1.79,0,0,0,.09-.54v-.08a.25.25,0,0,0,0-.07h-.66V79.13h1.31v1.24a2.66,2.66,0,0,1-.3,1.28,1.32,1.32,0,0,1-1,.68Z"/><path class="cls-1" d="M243.3,71.48h1.23v9H243.3Z"/><path class="cls-1" d="M246.12,73.92h1v.93a3,3,0,0,1,1-.83,2.6,2.6,0,0,1,1.16-.25,1.89,1.89,0,0,1,1.88,1,3.47,3.47,0,0,1,.27,1.53v4.2h-1.12V76.34a2.41,2.41,0,0,0-.17-1,1.09,1.09,0,0,0-1.07-.61,2.27,2.27,0,0,0-.64.08,1.68,1.68,0,0,0-.8.54,1.55,1.55,0,0,0-.35.67,4.16,4.16,0,0,0-.09,1v3.43h-1.1Z"/><path class="cls-1" d="M257.17,74.27a2.54,2.54,0,0,1,.83,1.85h-1.07a2,2,0,0,0-.45-1,1.42,1.42,0,0,0-1.12-.4,1.54,1.54,0,0,0-1.5,1,4,4,0,0,0-.29,1.64A3.07,3.07,0,0,0,254,79a1.62,1.62,0,0,0,2.4.25,2.35,2.35,0,0,0,.55-1.14H258a2.61,2.61,0,0,1-2.8,2.51,2.52,2.52,0,0,1-2-.94,3.61,3.61,0,0,1-.77-2.35,3.93,3.93,0,0,1,.84-2.68,2.71,2.71,0,0,1,2.13-1A2.89,2.89,0,0,1,257.17,74.27Z"/><path class="cls-1" d="M103.05,49.6h3.31v11h-2.14V53.17c0-.22,0-.52,0-.91v-.89l-2.08,9.25H99.91l-2.07-9.25v.89c0,.39,0,.69,0,.91v7.45H95.7v-11h3.36l2,8.66Z"/><path class="cls-1" d="M116.67,59.64a5.73,5.73,0,0,1-7.22,0,6,6,0,0,1-1.67-4.55,5.85,5.85,0,0,1,1.67-4.54,5.7,5.7,0,0,1,7.22,0,5.85,5.85,0,0,1,1.67,4.54A6,6,0,0,1,116.67,59.64ZM115.23,58a4.51,4.51,0,0,0,.81-2.88,4.47,4.47,0,0,0-.81-2.86,2.6,2.6,0,0,0-2.17-1,2.66,2.66,0,0,0-2.18,1,4.5,4.5,0,0,0-.81,2.87,4.51,4.51,0,0,0,.81,2.88,2.65,2.65,0,0,0,2.18,1A2.61,2.61,0,0,0,115.23,58Z"/><path class="cls-1" d="M119.77,49.6h2.41l4.38,7.68V49.6h2.14v11h-2.3l-4.48-7.82v7.82h-2.15Z"/><path class="cls-1" d="M138.71,51.55h-5.84v2.34h5.36V55.8h-5.36v2.84H139v2h-8.35v-11h8.09Z"/><path class="cls-1" d="M146.76,49.6h2.61l-3.68,6.89v4.13h-2.3V56.49l-3.82-6.89h2.72l2.28,4.8Z"/><path class="cls-1" d="M162.09,49.6v1.95H158.8v9.07h-2.32V51.55h-3.31V49.6Z"/><path class="cls-1" d="M170.21,49.88a2.91,2.91,0,0,1,1,.77,3.36,3.36,0,0,1,.55.93,3,3,0,0,1,.21,1.16,3.22,3.22,0,0,1-.4,1.54,2.2,2.2,0,0,1-1.31,1.08,2,2,0,0,1,1.08.87,3.5,3.5,0,0,1,.32,1.72v.74a5.62,5.62,0,0,0,.06,1,.88.88,0,0,0,.43.63v.28h-2.54c-.07-.25-.12-.44-.15-.59a5,5,0,0,1-.1-1l0-1a2.09,2.09,0,0,0-.36-1.4,1.82,1.82,0,0,0-1.31-.35h-2.25v4.32H163.2v-11h5.27A4.84,4.84,0,0,1,170.21,49.88Zm-4.76,1.63v3h2.48a2.58,2.58,0,0,0,1.1-.18,1.23,1.23,0,0,0,.66-1.24,1.39,1.39,0,0,0-.63-1.34,2.31,2.31,0,0,0-1.07-.2Z"/><path class="cls-1" d="M177.05,49.6h2.6l3.9,11h-2.5l-.72-2.27h-4.06l-.75,2.27h-2.41Zm-.15,6.85h2.82l-1.39-4.33Z"/><path class="cls-1" d="M184.61,49.6H187l4.38,7.68V49.6h2.14v11h-2.3l-4.49-7.82v7.82h-2.14Z"/><path class="cls-1" d="M197.06,57.22a2.23,2.23,0,0,0,.42,1.13,2.44,2.44,0,0,0,2,.68,4.24,4.24,0,0,0,1.35-.18,1.28,1.28,0,0,0,1-1.28.94.94,0,0,0-.48-.85,5.37,5.37,0,0,0-1.53-.51L198.57,56a7.35,7.35,0,0,1-2.42-.85A2.69,2.69,0,0,1,195,52.72a3.15,3.15,0,0,1,1.09-2.46,4.59,4.59,0,0,1,3.2-1,5,5,0,0,1,3,.92,3.28,3.28,0,0,1,1.3,2.68h-2.21a1.58,1.58,0,0,0-.89-1.41,3,3,0,0,0-1.37-.28,2.63,2.63,0,0,0-1.46.36,1.13,1.13,0,0,0-.54,1,.93.93,0,0,0,.54.88,6.23,6.23,0,0,0,1.46.46l1.93.46a4.82,4.82,0,0,1,1.91.8,2.66,2.66,0,0,1,1,2.25,3.14,3.14,0,0,1-1.16,2.5,4.91,4.91,0,0,1-3.3,1,5.35,5.35,0,0,1-3.42-1,3.24,3.24,0,0,1-1.25-2.7Z"/><path class="cls-1" d="M205.32,49.61h7.85v1.94h-5.56v2.53h4.88V56h-4.88v4.62h-2.29Z"/><path class="cls-1" d="M222.53,51.55H216.7v2.34h5.35V55.8H216.7v2.84h6.1v2h-8.35v-11h8.08Z"/><path class="cls-1" d="M231.36,49.88a2.82,2.82,0,0,1,1,.77,3.39,3.39,0,0,1,.56.93,3.28,3.28,0,0,1-.2,2.7,2.21,2.21,0,0,1-1.3,1.08,2.08,2.08,0,0,1,1.08.87,3.64,3.64,0,0,1,.31,1.72v.74a4.61,4.61,0,0,0,.07,1,.9.9,0,0,0,.42.63v.28h-2.54c-.07-.25-.12-.44-.15-.59a6,6,0,0,1-.1-1v-1a2,2,0,0,0-.37-1.4,1.82,1.82,0,0,0-1.31-.35H226.6v4.32h-2.25v-11h5.27A4.76,4.76,0,0,1,231.36,49.88Zm-4.76,1.63v3h2.48a2.66,2.66,0,0,0,1.11-.18,1.24,1.24,0,0,0,.65-1.24,1.39,1.39,0,0,0-.63-1.34,2.28,2.28,0,0,0-1.07-.2Z"/><path class="cls-2" d="M125.69,30.35a15.49,15.49,0,0,1-3.35,5.11,13.58,13.58,0,0,1-5.07,3.11A22.31,22.31,0,0,1,110,39.63a24.81,24.81,0,0,1-5.31-.57A14.66,14.66,0,0,1,100,37.22a10,10,0,0,1-3.31-3.37,9.77,9.77,0,0,1-1.27-5.16,14.36,14.36,0,0,1,.26-2.77c.17-.91.34-1.82.52-2.72l4.5-21.4h8.14l-4.51,21.4c-.07.31-.15.67-.23,1.06s-.18.83-.26,1.27-.16.88-.21,1.27a8.72,8.72,0,0,0-.08,1.07,5.2,5.2,0,0,0,.29,1.55,3.92,3.92,0,0,0,1.06,1.63A6.2,6.2,0,0,0,107,32.32a9.65,9.65,0,0,0,3.47.52,10.67,10.67,0,0,0,4-.65A6.26,6.26,0,0,0,117,30.38a8.54,8.54,0,0,0,1.5-2.88c.37-1.14.7-2.4,1-3.78L124.16,1.8h8.13l-4.51,21.51A39.53,39.53,0,0,1,125.69,30.35Z"/><path class="cls-2" d="M146.8,1.8l10,26.32H157L162.24,1.8h7.46l-7.82,37h-8.14l-10.15-26h-.11l-5.28,26h-7.57l7.78-37Z"/><path class="cls-2" d="M171.52,14.76a22.06,22.06,0,0,1,4-7.13A18.95,18.95,0,0,1,190.33.92a21.59,21.59,0,0,1,6.78,1,13.67,13.67,0,0,1,5.19,3,13.85,13.85,0,0,1,3.29,5,18.71,18.71,0,0,1,1.16,6.84,27.88,27.88,0,0,1-1.35,8.7,22.33,22.33,0,0,1-3.91,7.31,18.56,18.56,0,0,1-6.32,5,19.45,19.45,0,0,1-8.63,1.84q-7.87,0-12.15-4.2t-4.27-12.12A25.73,25.73,0,0,1,171.52,14.76Zm7.23,12.17a8.78,8.78,0,0,0,1.5,3,7.05,7.05,0,0,0,2.59,2.1,8.51,8.51,0,0,0,3.81.78,9.43,9.43,0,0,0,5.23-1.43,12.54,12.54,0,0,0,3.73-3.67,17.46,17.46,0,0,0,2.26-5,20.41,20.41,0,0,0,.75-5.39,15.21,15.21,0,0,0-.44-3.71,8.33,8.33,0,0,0-1.43-3,7.2,7.2,0,0,0-2.54-2.07,8.46,8.46,0,0,0-3.83-.78A10.12,10.12,0,0,0,185,9.19a12.15,12.15,0,0,0-3.78,3.67,17,17,0,0,0-2.2,5,21.07,21.07,0,0,0-.73,5.42A13,13,0,0,0,178.75,26.93Z"/><path class="cls-2" d="M79.71,41.68A39.36,39.36,0,1,0,40.36,81,39.35,39.35,0,0,0,79.71,41.68"/><polygon class="cls-3" points="61.94 26.49 62.83 22.2 49.9 22.2 49 26.49 61.94 26.49"/><path class="cls-3" d="M36.79,26.49l.88-4.29H24.74q-.46,2.24-.9,4.29Z"/><polygon class="cls-3" points="60.77 32.15 61.42 29 48.48 29 47.82 32.15 60.77 32.15"/><path class="cls-3" d="M35.62,32.15,36.27,29h-13l-.66,3.15Z"/><path class="cls-3" d="M47.29,34.66,45.08,45.24q-1.12,5.23-3,7.35a6.29,6.29,0,0,1-4.94,2.12q-4.94,0-4.93-4.88a19.55,19.55,0,0,1,.52-3.71L35.1,34.66h-13c-2,9.78-3.11,15-3.2,15.67a15.94,15.94,0,0,0-.17,2.08,11,11,0,0,0,4.67,9.29q4.66,3.47,13.08,3.47t13.72-3.85Q55.55,57.47,57.07,50l3.18-15.34Z"/></svg>