<?xml version="1.0" encoding="utf-8"?>
<!-- Generator: Adobe Illustrator 24.0.1, SVG Export Plug-In . SVG Version: 6.00 Build 0)  -->
<svg version="1.1" id="Layer_1" xmlns="http://www.w3.org/2000/svg" xmlns:xlink="http://www.w3.org/1999/xlink" x="0px" y="0px"
	 viewBox="0 0 59 23" style="enable-background:new 0 0 59 23;" xml:space="preserve">
<style type="text/css">
	.st0{fill:#FFFFFF;}
	.st1{fill:#006DB7;}
</style>
<title>Artboard 1 copy</title>
<path class="st0" d="M35.7,14.3c-0.2,0.5-0.5,1-0.9,1.4c-0.4,0.4-0.9,0.7-1.4,0.9c-0.7,0.2-1.4,0.3-2.1,0.3c-0.5,0-1-0.1-1.5-0.2
	c-0.5-0.1-0.9-0.3-1.3-0.5c-0.4-0.3-0.7-0.6-0.9-1c-0.3-0.4-0.4-0.9-0.4-1.5c0-0.3,0-0.5,0.1-0.8l0.1-0.8l1.3-6h2.3l-1.3,6
	c0,0.1,0,0.2-0.1,0.3s0,0.2-0.1,0.4s0,0.2,0,0.4c0,0.1,0,0.2,0,0.3c0,0.1,0,0.3,0.1,0.4c0.1,0.2,0.2,0.3,0.3,0.5
	c0.2,0.2,0.4,0.3,0.6,0.4c0.3,0.1,0.7,0.2,1,0.1c0.4,0,0.8,0,1.1-0.2c0.3-0.1,0.5-0.3,0.7-0.5c0.2-0.2,0.3-0.5,0.4-0.8
	c0.1-0.3,0.2-0.7,0.3-1.1l1.3-6.2h2.3l-1.3,6.1C36.1,13,35.9,13.7,35.7,14.3z"/>
<path class="st0" d="M41.6,6.3l2.8,7.4l0,0L46,6.3h2.1l-2.3,10.4h-2.3l-2.9-7.3l0,0l-1.5,7.3H37l2.2-10.4H41.6z"/>
<path class="st0" d="M48.6,9.9c0.2-0.7,0.6-1.4,1.1-2c0.5-0.6,1.1-1.1,1.8-1.4C52.2,6.2,53,6,53.9,6c0.6,0,1.3,0.1,1.9,0.3
	c0.5,0.2,1,0.5,1.5,0.8C57.7,7.5,58,8,58.2,8.6c0.2,0.6,0.3,1.3,0.3,1.9c0,0.9-0.1,1.7-0.4,2.5c-0.2,0.7-0.6,1.4-1.1,2
	c-0.5,0.6-1.1,1.1-1.8,1.4c-0.8,0.4-1.6,0.6-2.4,0.6c-1.3,0.1-2.5-0.3-3.4-1.2c-0.9-0.9-1.3-2.2-1.2-3.4
	C48.2,11.6,48.3,10.7,48.6,9.9z M50.6,13.4c0.1,0.3,0.2,0.6,0.4,0.9c0.2,0.3,0.4,0.5,0.7,0.6c0.3,0.2,0.7,0.2,1.1,0.2
	c0.5,0,1-0.1,1.5-0.4c0.4-0.3,0.7-0.6,1-1c0.3-0.4,0.6-0.9,0.7-1.5c0.1-0.5,0.2-1,0.2-1.5c0-0.3,0-0.7-0.1-1
	c-0.1-0.3-0.2-0.6-0.4-0.9c-0.2-0.3-0.4-0.5-0.7-0.6C54.6,8,54.3,8,53.9,8c-0.5,0-1.1,0.1-1.5,0.4c-0.4,0.3-0.8,0.6-1.1,1
	c-0.3,0.4-0.5,0.9-0.6,1.4c-0.1,0.5-0.2,1-0.2,1.5C50.5,12.7,50.5,13,50.6,13.4L50.6,13.4z"/>
<path class="st1" d="M11.6,0.4c-6.1,0-11.1,5-11.1,11.1s5,11.1,11.1,11.1c6.1,0,11.1-5,11.1-11.1C22.7,5.4,17.7,0.4,11.6,0.4
	C11.6,0.4,11.6,0.4,11.6,0.4z"/>
<path class="st0" d="M7.1,5.5h3.6l-0.2,1.2H6.8C6.9,6.3,7,5.9,7.1,5.5z M6.7,7.4h3.7l-0.2,0.9H6.5C6.5,8,6.6,7.7,6.7,7.4L6.7,7.4z
	 M16.2,13.3c-0.2,1.3-0.9,2.4-1.9,3.2c-1.1,0.8-2.5,1.1-3.9,1.1c-1.3,0.1-2.6-0.3-3.7-1C5.9,16,5.4,15,5.4,14c0-0.2,0-0.4,0-0.6
	c0-0.2,0.3-1.7,0.9-4.4h3.7l-0.7,3.2c-0.1,0.3-0.1,0.7-0.1,1.1c-0.1,0.7,0.4,1.3,1,1.4c0.1,0,0.2,0,0.3,0c0.5,0,1-0.2,1.4-0.6
	c0.4-0.6,0.7-1.3,0.9-2.1l0.6-3h3.7L16.2,13.3z M17.2,8.3h-3.6l0.2-0.9h3.7L17.2,8.3z M17.5,6.7h-3.6l0.3-1.2h3.7L17.5,6.7z"/>
</svg>
