<svg id="Layer_1" data-name="Layer 1" xmlns="http://www.w3.org/2000/svg" viewBox="0 0 135.12 52.33"><defs><style>.cls-1{fill:#fff;}</style></defs><title>Artboard 1 copy 5</title><path class="cls-1" d="M81.69,32.7A9.82,9.82,0,0,1,79.52,36a8.66,8.66,0,0,1-3.29,2,14.23,14.23,0,0,1-4.73.69,16.55,16.55,0,0,1-3.44-.37,9.78,9.78,0,0,1-3-1.19A6.44,6.44,0,0,1,62.89,35a6.31,6.31,0,0,1-.82-3.34,9.77,9.77,0,0,1,.16-1.79c.11-.6.23-1.18.34-1.77L65.49,14.2h5.27L67.84,28.06q-.07.3-.15.69c-.06.26-.11.53-.17.82s-.1.57-.13.83a4.27,4.27,0,0,0,0,.68,3.37,3.37,0,0,0,.18,1,2.49,2.49,0,0,0,.69,1.06,3.94,3.94,0,0,0,1.38.82,6.17,6.17,0,0,0,2.24.34,6.87,6.87,0,0,0,2.62-.42,4,4,0,0,0,1.63-1.18,5.47,5.47,0,0,0,1-1.86c.23-.74.45-1.56.65-2.45l3-14.2H86L83.05,28.13A25.57,25.57,0,0,1,81.69,32.7Z"/><path class="cls-1" d="M95.37,14.2l6.51,17.05H102l3.42-17h4.84l-5.07,24H99.87L93.29,21.35h-.07L89.8,38.17H84.89l5-24Z"/><path class="cls-1" d="M111.38,22.59A14.46,14.46,0,0,1,114,18a12.26,12.26,0,0,1,9.58-4.34,13.88,13.88,0,0,1,4.4.65,8.79,8.79,0,0,1,3.36,2,9,9,0,0,1,2.13,3.22,12.06,12.06,0,0,1,.75,4.43,18.18,18.18,0,0,1-.87,5.64,14.62,14.62,0,0,1-2.53,4.73,12,12,0,0,1-4.1,3.24,12.49,12.49,0,0,1-5.59,1.2c-3.4,0-6-.91-7.87-2.72s-2.77-4.44-2.77-7.86A16.93,16.93,0,0,1,111.38,22.59Zm4.69,7.89a5.71,5.71,0,0,0,1,2,4.57,4.57,0,0,0,1.68,1.36,5.47,5.47,0,0,0,2.47.51,6.11,6.11,0,0,0,3.39-.93A8.19,8.19,0,0,0,127,31a11.35,11.35,0,0,0,1.46-3.24,13.33,13.33,0,0,0,.48-3.49,9.75,9.75,0,0,0-.28-2.4,5.24,5.24,0,0,0-.93-2,4.64,4.64,0,0,0-1.64-1.35,5.61,5.61,0,0,0-2.49-.5,6.55,6.55,0,0,0-3.5.92,7.66,7.66,0,0,0-2.45,2.39,10.83,10.83,0,0,0-1.43,3.25,13.57,13.57,0,0,0-.47,3.51A8.19,8.19,0,0,0,116.07,30.48Z"/><path class="cls-1" d="M26.4.67a25.5,25.5,0,1,0,25.5,25.5A25.5,25.5,0,0,0,26.4.67ZM16.28,13.54h8.38l-.57,2.78H15.7C15.89,15.43,16.08,14.51,16.28,13.54ZM15.36,18h8.39l-.42,2h-8.4ZM37.23,31.56a11.47,11.47,0,0,1-4.44,7.33,14.82,14.82,0,0,1-8.89,2.49c-3.63,0-6.46-.74-8.47-2.24a7.13,7.13,0,0,1-3-6,12,12,0,0,1,.11-1.35q.09-.63,2.08-10.15H23L21.46,29a12.52,12.52,0,0,0-.34,2.4q0,3.16,3.2,3.16a4.05,4.05,0,0,0,3.2-1.37,10.67,10.67,0,0,0,1.94-4.76l1.43-6.85h8.4ZM39.63,20H31.24l.42-2h8.39Zm.76-3.67H32l.58-2.78H41Z"/></svg>